<svg width="449" height="448" viewBox="0 0 449 448" fill="none" xmlns="http://www.w3.org/2000/svg">
<path d="M232.2 384.538C232.9 384.538 233.48 384.848 233.94 385.468C234.38 386.108 234.6 387.238 234.6 388.858C234.6 390.558 234.57 392.208 234.51 393.808C234.45 395.428 234.34 396.878 234.18 398.158C234 399.438 233.76 400.458 233.46 401.218C233.16 401.978 232.77 402.358 232.29 402.358C231.95 402.358 231.65 402.168 231.39 401.788C231.13 401.428 231 400.948 231 400.348C231 399.728 231.06 398.898 231.18 397.858C231.3 396.818 231.45 395.698 231.63 394.498C231.79 393.318 231.93 392.168 232.05 391.048C232.17 389.948 232.23 389.018 232.23 388.258C232.23 387.938 232.22 387.678 232.2 387.478C232.16 387.298 232.1 387.208 232.02 387.208C231.72 387.208 231.4 387.468 231.06 387.988C230.7 388.528 230.32 389.228 229.92 390.088C229.52 390.968 229.1 391.928 228.66 392.968C228.22 394.028 227.77 395.078 227.31 396.118C226.85 397.158 226.38 398.108 225.9 398.968C225.42 399.848 224.94 400.548 224.46 401.068C223.98 401.608 223.51 401.878 223.05 401.878C222.51 401.878 222.01 401.618 221.55 401.098C221.07 400.598 220.83 399.878 220.83 398.938C220.83 398.658 220.87 398.168 220.95 397.468C221.03 396.788 221.13 396.008 221.25 395.128C221.37 394.248 221.49 393.368 221.61 392.488C221.73 391.628 221.83 390.858 221.91 390.178C221.99 389.518 222.03 389.048 222.03 388.768C222.03 387.728 221.93 387.208 221.73 387.208C221.17 387.208 220.58 387.558 219.96 388.258C219.32 388.978 218.68 389.898 218.04 391.018C217.38 392.158 216.73 393.388 216.09 394.708C215.43 396.048 214.8 397.328 214.2 398.548C213.92 399.188 213.69 399.618 213.51 399.838C213.31 400.078 213.11 400.198 212.91 400.198C212.63 400.198 212.37 400.048 212.13 399.748C211.87 399.448 211.74 399.038 211.74 398.518C211.74 398.338 211.75 398.158 211.77 397.978C211.79 397.818 211.84 397.638 211.92 397.438C212.6 395.638 213.33 393.968 214.11 392.428C214.89 390.908 215.69 389.578 216.51 388.438C217.31 387.318 218.1 386.438 218.88 385.798C219.66 385.178 220.38 384.868 221.04 384.868C222.18 384.868 223.07 385.188 223.71 385.828C224.33 386.488 224.64 387.368 224.64 388.468C224.64 388.928 224.61 389.528 224.55 390.268C224.47 391.008 224.38 391.808 224.28 392.668C224.16 393.528 224.04 394.358 223.92 395.158C223.8 395.958 223.7 396.658 223.62 397.258C223.52 397.858 223.46 398.268 223.44 398.488C223.42 398.768 223.45 398.908 223.53 398.908C223.61 398.908 223.77 398.648 224.01 398.128C224.23 397.628 224.5 396.988 224.82 396.208C225.12 395.448 225.44 394.658 225.78 393.838C226.16 392.938 226.6 391.948 227.1 390.868C227.58 389.808 228.1 388.798 228.66 387.838C229.2 386.878 229.77 386.088 230.37 385.468C230.97 384.848 231.58 384.538 232.2 384.538Z" fill="black"/>
<path d="M197.756 395.395C197.825 394.759 198.092 394.154 198.557 393.581C199.019 393.028 199.609 392.509 200.325 392.023C201.04 391.558 201.821 391.13 202.668 390.739C203.515 390.348 204.356 390.017 205.19 389.746C206.024 389.475 206.781 389.265 207.461 389.118C207.705 388.36 207.859 387.682 207.924 387.086C207.965 386.708 207.905 386.43 207.743 386.251C207.581 386.073 207.312 385.963 206.934 385.922C206.099 385.831 205.198 385.884 204.231 386.081C203.264 386.277 202.267 386.561 201.241 386.932C200.215 387.304 199.225 387.709 198.272 388.149C197.319 388.588 196.449 389.007 195.661 389.404C194.854 389.799 194.185 390.118 193.656 390.362C193.126 390.607 192.782 390.72 192.623 390.703C192.384 390.677 192.214 390.578 192.112 390.406C191.988 390.252 191.937 390.075 191.959 389.876C191.976 389.717 192.258 389.436 192.805 389.033C193.332 388.627 194.036 388.161 194.918 387.633C195.798 387.125 196.78 386.608 197.863 386.082C198.947 385.556 200.065 385.074 201.219 384.637C202.354 384.197 203.446 383.863 204.497 383.635C205.528 383.405 206.441 383.334 207.236 383.42C208.27 383.533 209.033 384.008 209.525 384.846C210.018 385.684 210.175 386.918 209.998 388.549C209.879 389.642 209.62 390.731 209.22 391.814C208.801 392.895 208.288 393.915 207.68 394.875C207.051 395.853 206.385 396.706 205.682 397.434C204.957 398.18 204.222 398.744 203.476 399.126C202.728 399.527 202.026 399.692 201.37 399.621C200.118 399.485 199.171 399.03 198.531 398.256C197.891 397.482 197.633 396.529 197.756 395.395ZM206.585 391.346C205.928 391.657 205.248 391.985 204.547 392.332C203.845 392.678 203.192 393.039 202.588 393.416C201.984 393.793 201.487 394.202 201.097 394.642C200.685 395.1 200.451 395.588 200.395 396.105C200.315 396.84 200.672 397.251 201.468 397.338C201.965 397.392 202.526 397.131 203.152 396.555C203.756 395.998 204.36 395.248 204.966 394.308C205.571 393.368 206.111 392.381 206.585 391.346Z" fill="black"/>
<path d="M187.321 392.367C187.771 392.466 187.941 392.76 187.834 393.248C187.769 393.541 187.608 393.854 187.351 394.186C187.074 394.514 186.762 394.906 186.416 395.363C186.07 395.819 185.736 396.36 185.414 396.985C185.073 397.606 184.809 398.337 184.624 399.177C184.564 399.45 184.524 399.728 184.502 400.01C184.458 400.307 184.407 400.583 184.351 400.837C184.123 401.872 183.86 402.51 183.561 402.752C183.258 403.012 182.891 403.096 182.462 403.001C182.071 402.915 181.778 402.666 181.582 402.254C181.386 401.843 181.393 401.158 181.604 400.201C181.862 399.029 182.253 397.948 182.778 396.958C183.299 395.987 183.863 395.149 184.469 394.442C185.075 393.736 185.644 393.196 186.177 392.822C186.686 392.463 187.067 392.311 187.321 392.367Z" fill="black"/>
<path d="M175.692 376.245C175.995 376.348 176.209 376.557 176.335 376.874C176.46 377.19 176.449 377.567 176.303 378.002C176.194 378.325 175.949 378.833 175.567 379.527C175.16 380.234 174.702 381.062 174.193 382.009C173.665 382.949 173.153 383.937 172.656 384.973C172.153 386.028 171.732 387.057 171.394 388.062C171.228 388.554 170.983 388.873 170.66 389.017C170.312 389.174 169.976 389.199 169.654 389.09C169.351 388.988 169.187 388.722 169.164 388.292C169.14 387.861 169.367 387.094 169.845 385.988C168.321 387.628 166.841 388.86 165.402 389.683C163.939 390.52 162.599 391.018 161.384 391.179C160.163 391.358 159.136 391.307 158.302 391.026C157.752 390.841 157.392 390.593 157.223 390.283C157.027 389.985 156.975 389.704 157.064 389.438C157.185 389.078 157.433 388.845 157.806 388.739C158.154 388.645 158.733 388.587 159.543 388.564C160.485 388.523 161.381 388.402 162.229 388.203C163.052 388.016 163.891 387.686 164.746 387.215C165.583 386.737 166.473 386.066 167.418 385.203C168.357 384.358 169.379 383.267 170.484 381.93C171.589 380.593 172.837 378.956 174.228 377.019C174.482 376.64 174.733 376.397 174.98 376.29C175.208 376.177 175.445 376.162 175.692 376.245Z" fill="black"/>
<path d="M144.34 377.974C144.608 377.394 145.054 376.906 145.678 376.511C146.293 376.135 147.017 375.831 147.851 375.6C148.677 375.387 149.554 375.23 150.481 375.131C151.409 375.031 152.311 374.986 153.189 374.995C154.066 375.004 154.85 375.047 155.542 375.125C156.014 374.484 156.377 373.891 156.629 373.347C156.788 373.002 156.82 372.719 156.724 372.498C156.627 372.277 156.407 372.087 156.062 371.928C155.3 371.575 154.429 371.337 153.45 371.215C152.471 371.093 151.436 371.043 150.345 371.068C149.254 371.092 148.187 371.16 147.143 371.272C146.099 371.384 145.141 371.503 144.268 371.628C143.377 371.744 142.641 371.834 142.061 371.896C141.482 371.958 141.119 371.956 140.974 371.889C140.756 371.788 140.626 371.64 140.585 371.444C140.516 371.258 140.524 371.075 140.608 370.893C140.675 370.748 141.032 370.572 141.679 370.364C142.308 370.148 143.125 369.931 144.129 369.713C145.125 369.512 146.221 369.336 147.415 369.183C148.61 369.031 149.824 368.931 151.057 368.885C152.272 368.83 153.414 368.863 154.483 368.982C155.533 369.094 156.421 369.317 157.147 369.653C158.091 370.09 158.663 370.784 158.862 371.735C159.06 372.687 158.816 373.907 158.127 375.395C157.665 376.394 157.072 377.342 156.347 378.241C155.605 379.132 154.793 379.935 153.911 380.651C153.002 381.376 152.098 381.972 151.2 382.437C150.275 382.913 149.398 383.212 148.569 383.336C147.732 383.478 147.015 383.41 146.416 383.133C145.272 382.604 144.52 381.87 144.161 380.933C143.801 379.995 143.861 379.009 144.34 377.974ZM154 376.957C153.278 377.041 152.529 377.135 151.753 377.24C150.978 377.344 150.244 377.478 149.551 377.642C148.858 377.806 148.256 378.035 147.746 378.328C147.21 378.63 146.832 379.017 146.614 379.489C146.303 380.161 146.511 380.665 147.237 381.001C147.691 381.211 148.306 381.143 149.083 380.797C149.833 380.461 150.645 379.944 151.519 379.247C152.393 378.549 153.22 377.786 154 376.957Z" fill="black"/>
<path d="M134.401 355.493C134.751 355.759 134.943 356.068 134.977 356.421C135.022 356.757 134.749 357.315 134.156 358.095C133.611 358.812 132.776 359.646 131.649 360.599C130.511 361.568 129.188 362.597 127.681 363.687C126.174 364.778 124.575 365.873 122.884 366.974C121.181 368.091 119.478 369.158 117.775 370.175C116.044 371.196 114.434 372.108 112.945 372.91C112.399 373.199 111.948 373.346 111.592 373.351C111.236 373.357 110.907 373.245 110.604 373.015C110.397 372.858 110.271 372.661 110.224 372.424C110.15 372.192 110.215 371.94 110.421 371.67C110.494 371.574 110.833 371.342 111.44 370.974C112.03 370.594 112.827 370.107 113.831 369.514C114.819 368.908 115.926 368.229 117.151 367.477C118.375 366.725 119.651 365.923 120.976 365.072C122.302 364.221 123.609 363.343 124.899 362.439C126.177 361.552 127.363 360.669 128.457 359.792C129.55 358.915 130.472 358.083 131.221 357.296C130.488 357.468 129.602 357.724 128.564 358.065C127.526 358.406 126.413 358.779 125.226 359.183C124.04 359.588 122.851 359.978 121.661 360.354C120.47 360.731 119.342 361.041 118.277 361.286C117.211 361.532 116.288 361.672 115.508 361.706C114.7 361.745 114.112 361.625 113.746 361.347C113.141 360.887 112.801 360.327 112.725 359.666C112.621 359.01 112.89 358.259 113.532 357.416C113.895 356.938 114.426 356.437 115.125 355.914C115.809 355.378 116.548 354.835 117.344 354.284C118.14 353.733 118.887 353.196 119.587 352.673C120.27 352.137 120.793 351.631 121.156 351.153C121.653 350.5 121.654 349.986 121.16 349.611C120.396 349.03 119.505 348.616 118.486 348.37C117.452 348.111 116.397 347.962 115.321 347.923C114.233 347.9 113.201 347.919 112.225 347.981C111.236 348.059 110.396 348.123 109.704 348.175C108.955 348.234 108.43 348.148 108.127 347.918C107.745 347.628 107.705 347.284 108.008 346.886C108.093 346.774 108.213 346.665 108.37 346.558C108.527 346.451 108.793 346.365 109.17 346.299C109.642 346.206 110.293 346.11 111.122 346.012C111.934 345.901 112.851 345.819 113.871 345.766C114.876 345.7 115.912 345.709 116.979 345.792C118.031 345.863 119.046 346.031 120.024 346.297C120.974 346.568 121.8 346.969 122.5 347.502C123.455 348.228 123.99 349.061 124.104 350.002C124.19 350.947 123.864 351.904 123.125 352.876C122.665 353.481 122.013 354.141 121.168 354.855C120.324 355.57 119.395 356.296 118.382 357.033C117.341 357.774 116.319 358.492 115.314 359.185C116.09 359.222 117.047 359.12 118.184 358.88C119.294 358.643 120.508 358.335 121.826 357.955C123.133 357.592 124.451 357.212 125.782 356.817C127.096 356.41 128.347 356.054 129.533 355.749C130.691 355.449 131.7 355.261 132.561 355.187C133.421 355.112 134.034 355.214 134.401 355.493Z" fill="black"/>
<path d="M118.904 344.115C119.456 344.638 119.673 345.325 119.554 346.177C119.408 347.03 118.942 347.87 118.159 348.698C117.43 349.467 116.519 350.051 115.426 350.448C114.319 350.832 113.116 351.07 111.817 351.161C110.517 351.253 109.215 351.232 107.91 351.097C106.591 350.977 105.348 350.778 104.18 350.498C102.998 350.205 101.971 349.879 101.098 349.521C100.225 349.162 99.6001 348.804 99.2226 348.447C99.0193 348.254 98.8936 348.052 98.8454 347.841C98.7835 347.645 98.8489 347.445 99.0414 347.242C99.1652 347.111 99.3329 347.036 99.5446 347.016C99.5301 347.002 99.5156 346.989 99.501 346.975C99.1816 346.672 99.2007 346.332 99.5583 345.955C99.6821 345.824 99.9873 345.604 100.474 345.293C100.947 344.998 101.531 344.614 102.225 344.142C102.92 343.671 103.662 343.12 104.451 342.49C105.227 341.875 105.965 341.197 106.667 340.457C107.258 339.833 107.314 339.293 106.835 338.84C106.298 338.331 105.637 337.938 104.851 337.662C104.066 337.387 103.246 337.175 102.394 337.029C101.527 336.897 100.711 336.798 99.9451 336.734C99.1657 336.685 98.5066 336.639 97.9679 336.597C97.4291 336.555 97.0944 336.472 96.9637 336.348C96.8476 336.238 96.7803 336.106 96.762 335.951C96.7436 335.795 96.8101 335.638 96.9614 335.478C97.0989 335.333 97.4917 335.209 98.1397 335.107C98.7877 335.004 99.5782 334.94 100.511 334.915C101.444 334.89 102.422 334.934 103.443 335.048C104.465 335.162 105.426 335.369 106.325 335.67C107.224 335.971 107.957 336.39 108.524 336.926C108.959 337.339 109.235 337.848 109.35 338.453C109.437 339.059 109.28 339.792 108.879 340.652C108.464 341.498 107.712 342.494 106.626 343.641L106.11 344.186C107.936 343.683 109.701 343.317 111.407 343.087C113.098 342.843 114.603 342.796 115.923 342.944C117.228 343.078 118.222 343.469 118.904 344.115ZM101.122 347.271C101.222 347.31 101.365 347.363 101.551 347.429C102.507 347.756 103.562 348.039 104.714 348.277C105.852 348.501 107.024 348.66 108.229 348.754C109.419 348.835 110.565 348.833 111.666 348.746C112.767 348.66 113.766 348.463 114.664 348.156C115.561 347.848 116.284 347.404 116.834 346.824C117.013 346.635 117.115 346.455 117.138 346.285C117.147 346.101 117.05 345.912 116.847 345.72C116.557 345.445 116.007 345.269 115.199 345.191C114.376 345.129 113.401 345.141 112.271 345.228C111.127 345.302 109.921 345.441 108.654 345.645C107.386 345.849 106.14 346.088 104.917 346.361C103.679 346.621 102.569 346.892 101.586 347.173C101.432 347.22 101.277 347.252 101.122 347.271Z" fill="black"/>
<path d="M103.107 330.385C103.302 330.613 103.328 330.984 103.187 331.498C103.033 331.996 102.696 332.558 102.177 333.182C101.628 333.833 100.98 334.553 100.235 335.344C99.4892 336.135 98.746 336.897 98.0052 337.631C97.2643 338.366 96.602 339.007 96.0181 339.555C95.4343 340.104 95.0357 340.468 94.8223 340.65C94.0296 341.323 93.3392 341.7 92.7509 341.779C92.1345 341.857 91.658 341.697 91.3213 341.301C91.0883 341.027 90.9962 340.764 91.045 340.512C91.0786 340.274 91.3469 339.941 91.85 339.514C92.1853 339.229 92.6133 338.852 93.1338 338.384C93.6544 337.916 94.2142 337.401 94.8133 336.839C95.5343 336.174 96.3011 335.471 97.1136 334.728C97.9108 333.998 98.7069 333.283 99.5018 332.581C98.5814 332.733 97.547 332.89 96.3987 333.052C95.2374 333.199 94.0545 333.351 92.8498 333.508C91.6299 333.678 90.461 333.832 89.3432 333.968C88.2254 334.104 87.2443 334.215 86.4001 334.303C85.5558 334.39 84.9276 334.438 84.5154 334.447C83.9904 334.447 83.5763 334.392 83.2731 334.282C82.9569 334.157 82.7276 334.011 82.5852 333.843C82.391 333.614 82.3194 333.36 82.3706 333.081C82.4088 332.786 82.5803 332.509 82.8852 332.25C83.0681 332.094 83.3063 331.958 83.5996 331.84C83.8648 331.719 84.183 331.646 84.5541 331.62C85.5286 331.5 86.6811 331.374 88.0115 331.241C89.3419 331.108 90.7222 330.972 92.1524 330.834C93.5826 330.695 94.977 330.56 96.3356 330.429C97.6789 330.312 98.8584 330.202 99.8741 330.1C101.693 329.894 102.771 329.988 103.107 330.385Z" fill="black"/>
<path d="M91.6394 314.107C91.8527 314.422 91.9276 314.782 91.8642 315.187C91.7843 315.604 91.4877 315.986 90.9745 316.334C90.6103 316.581 90.0718 316.874 89.3588 317.212C88.6293 317.562 87.8195 317.918 86.9292 318.28C86.0389 318.642 85.1513 318.99 84.2664 319.324C83.3537 319.653 82.5237 319.926 81.7766 320.142C81.0294 320.359 80.4563 320.494 80.0573 320.547C79.7358 320.571 79.5026 320.548 79.3579 320.477C79.2018 320.39 79.0846 320.288 79.006 320.172C78.8489 319.94 78.7887 319.691 78.8254 319.425C78.8509 319.142 79.0789 318.854 79.5093 318.562C79.7576 318.394 80.2051 318.163 80.8518 317.87C81.4708 317.571 82.2115 317.238 83.074 316.87C83.9087 316.498 84.7795 316.125 85.6863 315.752C86.5653 315.373 87.4113 315.017 88.2241 314.683C89.0369 314.35 89.7114 314.062 90.2476 313.819C90.5574 313.705 90.8428 313.681 91.1041 313.746C91.3375 313.805 91.516 313.925 91.6394 314.107ZM76.2582 320.984C76.5163 321.365 76.6474 321.808 76.6513 322.312C76.644 322.801 76.3838 323.219 75.8706 323.567C75.4402 323.858 75.0253 323.995 74.6257 323.976C74.215 323.94 73.8562 323.821 73.5495 323.618C73.2151 323.41 72.9749 323.198 72.829 322.983C72.6831 322.768 72.57 322.494 72.4898 322.162C72.3817 321.824 72.3845 321.472 72.4981 321.105C72.5952 320.749 72.8755 320.414 73.339 320.1C73.6535 319.887 74.0079 319.804 74.4021 319.85C74.7798 319.908 75.1414 320.05 75.4871 320.275C75.8216 320.483 76.0786 320.719 76.2582 320.984Z" fill="black"/>
<path d="M84.5256 304.578C84.7973 305.09 84.7493 305.704 84.3817 306.42C84.014 307.135 83.3708 307.737 82.4519 308.224C81.4447 308.758 80.2966 309.197 79.0075 309.541C77.709 309.867 76.3601 310.14 74.9607 310.362C73.5437 310.592 72.1755 310.808 70.8562 311.01C70.5796 311.043 70.3462 311.009 70.1559 310.906C69.9385 310.795 69.7361 310.562 69.5487 310.209C69.2115 309.573 69.3521 309.091 69.9706 308.763C70.1119 308.688 70.4675 308.59 71.0372 308.469C71.6069 308.348 72.3149 308.211 73.1611 308.056C73.998 307.884 74.9015 307.688 75.8714 307.468C76.8237 307.258 77.7708 307.016 78.7126 306.743C79.6545 306.47 80.5064 306.177 81.2683 305.863C80.8181 305.74 80.19 305.665 79.3842 305.64C78.569 305.597 77.6602 305.569 76.6579 305.557C75.6379 305.555 74.6085 305.534 73.5698 305.497C72.5134 305.468 71.5277 305.402 70.6126 305.299C69.6706 305.187 68.8792 305.018 68.2386 304.792C67.5709 304.557 67.1341 304.245 66.928 303.857C66.6282 303.291 66.5519 302.72 66.6992 302.144C66.8195 301.56 67.2564 300.932 68.0098 300.261C68.7362 299.582 69.8768 298.83 71.4318 298.005C72.2623 297.565 72.9977 297.073 73.6378 296.53C74.2686 295.969 74.7065 295.386 74.9516 294.781C75.1695 294.168 75.1193 293.56 74.8008 292.96C74.323 292.058 73.7377 291.339 73.0449 290.8C72.3344 290.272 71.6402 289.859 70.9621 289.562C70.2569 289.257 69.6517 289.012 69.1462 288.827C68.6231 288.651 68.3101 288.466 68.207 288.272C67.9916 287.866 68.0959 287.55 68.5199 287.325C68.6967 287.232 69.0496 287.214 69.5789 287.273C70.0811 287.324 70.6926 287.452 71.4133 287.659C72.1069 287.857 72.8291 288.131 73.5801 288.479C74.3039 288.82 74.9805 289.242 75.6099 289.746C76.2299 290.232 76.7132 290.802 77.0598 291.456C77.7062 292.676 77.9969 293.8 77.932 294.831C77.8578 295.844 77.3712 296.826 76.4724 297.778C75.5642 298.712 74.1913 299.666 72.3536 300.641C71.3464 301.175 70.6458 301.625 70.252 301.992C69.8311 302.351 69.6208 302.723 69.621 303.108C70.1045 303.123 70.7798 303.116 71.6469 303.086C72.4964 303.066 73.4535 303.057 74.5182 303.058C75.5735 303.042 76.6517 303.048 77.7529 303.075C78.8269 303.094 79.8438 303.155 80.8036 303.257C81.7633 303.36 82.5812 303.515 83.2572 303.722C83.9154 303.939 84.3383 304.224 84.5256 304.578Z" fill="black"/>
<path d="M84.259 284.947C84.829 286.377 85.1079 287.483 85.0957 288.263C85.0835 289.042 84.8452 289.525 84.3807 289.71C84.0834 289.828 83.8049 289.832 83.5451 289.72C83.2778 289.59 83.085 289.376 82.9666 289.079C82.8407 288.763 82.7058 288.289 82.5618 287.657C82.4364 287.018 82.2589 286.411 82.0295 285.835C81.267 283.921 80.0748 282.577 78.4528 281.803C76.8309 281.028 74.7199 280.782 72.1198 281.064C69.5011 281.354 66.3172 282.117 62.5682 283.352C63.9236 283.458 65.3087 283.638 66.7233 283.892C68.112 284.136 69.43 284.472 70.6773 284.901C71.8986 285.318 72.9545 285.834 73.845 286.448C74.7355 287.062 75.3437 287.778 75.6694 288.595C75.9803 289.376 76.0147 290.029 75.7726 290.556C75.5231 291.065 74.9524 291.497 74.0606 291.852C73.2617 292.17 72.3275 292.284 71.258 292.194C70.1699 292.11 69.0226 291.879 67.8161 291.498C66.6096 291.118 65.4199 290.644 64.2471 290.078C63.0557 289.52 61.9665 288.92 60.9794 288.28C59.9664 287.629 59.1187 286.987 58.4361 286.355C57.7536 285.722 57.3162 285.165 57.1237 284.682C56.9312 284.199 56.9504 283.76 57.1812 283.367C57.412 282.974 57.9918 282.592 58.9208 282.222C61.0946 281.356 63.2423 280.586 65.3639 279.913C67.4594 279.229 69.4712 278.739 71.3991 278.445C73.327 278.15 75.1134 278.149 76.7583 278.441C78.4143 278.707 79.8804 279.361 81.1566 280.402C82.4328 281.444 83.4669 282.959 84.259 284.947ZM60.0369 284.942C61.0016 285.634 62.0517 286.324 63.1872 287.013C64.3227 287.702 65.4788 288.307 66.6554 288.828C67.8246 289.331 68.9588 289.665 70.0579 289.83C71.157 289.995 72.1524 289.9 73.0442 289.544C73.3229 289.433 73.3919 289.201 73.2513 288.848C73.1402 288.57 72.7748 288.274 72.155 287.961C71.5092 287.637 70.7019 287.313 69.733 286.988C68.7455 286.671 67.6893 286.371 66.5644 286.087C65.4135 285.792 64.2718 285.547 63.1393 285.353C62.0068 285.158 60.9727 285.021 60.0369 284.942Z" fill="black"/>
<path d="M67.541 255.867C67.664 256.617 67.4205 257.295 66.8106 257.902C66.1778 258.492 65.2989 258.879 64.1739 259.064C63.1278 259.235 62.0496 259.148 60.9392 258.804C59.8255 258.439 58.7238 257.9 57.6341 257.187C56.5444 256.474 55.5207 255.669 54.563 254.772C53.5855 253.878 52.7166 252.967 51.9563 252.038C51.1927 251.089 50.5719 250.208 50.094 249.394C49.6162 248.581 49.3351 247.918 49.251 247.404C49.2057 247.128 49.2277 246.891 49.317 246.694C49.3866 246.501 49.5595 246.381 49.8358 246.336C50.0135 246.307 50.1925 246.348 50.3731 246.46C50.3699 246.441 50.3666 246.421 50.3634 246.401C50.2922 245.967 50.5132 245.708 51.0263 245.624C51.204 245.595 51.5804 245.604 52.1557 245.651C52.7112 245.702 53.4081 245.75 54.2465 245.795C55.0848 245.84 56.0087 245.851 57.0182 245.827C58.0079 245.807 59.006 245.714 60.0126 245.549C60.8613 245.41 61.2322 245.015 61.1255 244.363C61.0057 243.633 60.7166 242.92 60.2582 242.225C59.7997 241.53 59.2754 240.866 58.6852 240.234C58.0753 239.604 57.485 239.032 56.9142 238.518C56.3238 238.006 55.8268 237.571 55.4233 237.212C55.0198 236.852 54.8036 236.584 54.7744 236.406C54.7485 236.248 54.7752 236.102 54.8545 235.967C54.9338 235.833 55.082 235.747 55.2991 235.712C55.4964 235.68 55.884 235.819 56.4619 236.129C57.0398 236.44 57.7077 236.867 58.4658 237.412C59.2239 237.956 59.9752 238.583 60.7197 239.292C61.4642 240.001 62.1034 240.747 62.6372 241.531C63.1711 242.315 63.5011 243.092 63.6273 243.862C63.7244 244.454 63.6357 245.026 63.3614 245.577C63.064 246.113 62.4955 246.601 61.6559 247.043C60.8131 247.465 59.6121 247.803 58.0529 248.059L57.3128 248.18C59.07 248.885 60.6971 249.662 62.1942 250.511C63.688 251.341 64.9154 252.213 65.8764 253.13C66.8341 254.027 67.389 254.939 67.541 255.867ZM51.4748 247.617C51.5304 247.71 51.6123 247.838 51.7204 248.003C52.2837 248.843 52.9521 249.706 53.7257 250.592C54.4961 251.459 55.3323 252.295 56.2344 253.1C57.1332 253.885 58.0471 254.576 58.976 255.173C59.9049 255.771 60.8195 256.219 61.7196 256.517C62.6197 256.816 63.4645 256.9 64.2539 256.771C64.5105 256.728 64.6998 256.647 64.8218 256.525C64.9405 256.384 64.9772 256.176 64.9319 255.899C64.8672 255.505 64.5364 255.032 63.9394 254.481C63.3227 253.934 62.5385 253.353 61.5866 252.739C60.6314 252.105 59.5875 251.486 58.4548 250.881C57.322 250.276 56.1858 249.713 55.0463 249.19C53.9035 248.648 52.8559 248.192 51.9033 247.821C51.7522 247.764 51.6094 247.697 51.4748 247.617Z" fill="black"/>
<path d="M71.5035 220.542C71.4201 222.08 71.2092 223.2 70.8706 223.902C70.5321 224.605 70.1132 224.943 69.6139 224.916C69.2944 224.899 69.0402 224.785 68.8513 224.574C68.6635 224.344 68.5783 224.069 68.5956 223.749C68.614 223.41 68.6905 222.923 68.825 222.289C68.9794 221.657 69.0735 221.031 69.107 220.412C69.2186 218.355 68.7009 216.634 67.5542 215.25C66.4074 213.866 64.5949 212.756 62.1165 211.921C59.6181 211.084 56.4083 210.44 52.4871 209.987C53.6728 210.652 54.8542 211.397 56.0312 212.222C57.1894 213.026 58.2445 213.884 59.1965 214.797C60.1296 215.689 60.8713 216.6 61.4217 217.532C61.9721 218.463 62.2235 219.368 62.1758 220.246C62.1303 221.085 61.8871 221.693 61.446 222.07C61.0061 222.426 60.3068 222.579 59.3482 222.527C58.4895 222.48 57.5938 222.191 56.6612 221.66C55.7086 221.128 54.7647 220.435 53.8295 219.584C52.8942 218.732 52.0132 217.803 51.1865 216.796C50.3398 215.789 49.6029 214.788 48.9759 213.792C48.33 212.776 47.83 211.837 47.4761 210.977C47.1222 210.117 46.9593 209.427 46.9874 208.907C47.0156 208.388 47.217 207.999 47.5916 207.738C47.9662 207.478 48.6528 207.375 49.6513 207.43C51.9879 207.556 54.2602 207.76 56.4683 208.04C58.6575 208.298 60.6888 208.699 62.5622 209.241C64.4356 209.783 66.0574 210.532 67.4277 211.488C68.819 212.425 69.8751 213.634 70.596 215.115C71.3169 216.596 71.6194 218.405 71.5035 220.542ZM49.5221 210.367C50.1071 211.4 50.7702 212.468 51.5117 213.569C52.2531 214.671 53.0483 215.706 53.8971 216.673C54.7471 217.62 55.6362 218.4 56.5645 219.011C57.4928 219.622 58.4362 219.954 59.3948 220.005C59.6943 220.022 59.8544 219.84 59.875 219.461C59.8912 219.161 59.6838 218.739 59.2526 218.195C58.8025 217.63 58.2059 216.997 57.4628 216.295C56.6997 215.593 55.8673 214.877 54.9655 214.147C54.0448 213.396 53.1114 212.695 52.1653 212.042C51.2192 211.39 50.3382 210.832 49.5221 210.367Z" fill="black"/>
<path d="M65.7252 199.786C65.5343 200.95 64.9398 201.795 63.9416 202.321C62.9435 202.846 61.7339 202.992 60.3128 202.759C59.7997 202.675 59.2683 202.517 58.7186 202.285C58.1523 202.03 57.6518 201.746 57.217 201.431C57.0562 201.547 56.8509 201.624 56.6011 201.665C56.3316 201.701 56.0093 201.689 55.6343 201.628C54.4699 201.437 53.4364 201.065 52.5341 200.511C51.6317 199.958 50.8786 199.298 50.2749 198.53C49.6514 197.759 49.207 196.946 48.9417 196.092C48.6797 195.218 48.6166 194.367 48.7525 193.538C48.9757 192.176 49.6503 191.152 50.7763 190.465C51.8825 189.774 53.4323 189.593 55.4257 189.92C56.4717 190.091 57.5116 190.424 58.5454 190.917C59.5823 191.391 60.5604 191.977 61.4796 192.675C62.4021 193.354 63.2014 194.103 63.8776 194.923C64.5571 195.723 65.0705 196.547 65.418 197.395C65.749 198.219 65.8514 199.016 65.7252 199.786ZM56.5307 199.312C56.708 199.22 56.925 199.194 57.1816 199.236C57.4776 199.285 57.7639 199.393 58.0406 199.56C58.3204 199.707 58.7072 199.882 59.201 200.084C59.6947 200.287 60.4153 200.466 61.3626 200.621C62.31 200.776 62.8451 200.479 62.9681 199.729C63.104 198.9 62.9045 198.077 62.3697 197.26C61.8151 196.439 61.0601 195.667 60.1047 194.943C59.1493 194.219 58.1037 193.612 56.9681 193.121C55.8159 192.608 54.7069 192.264 53.6412 192.09C52.9504 191.976 52.4458 192.025 52.1274 192.237C51.7893 192.445 51.5653 192.884 51.4552 193.555C51.342 194.246 51.4607 195.005 51.8115 195.833C52.1457 196.637 52.6671 197.351 53.3756 197.974C54.0842 198.597 54.9319 198.989 55.9187 199.151C56.1358 199.187 56.3398 199.24 56.5307 199.312Z" fill="black"/>
<path d="M69.2472 182.795C68.9315 183.932 68.2491 184.708 67.2 185.123C66.1509 185.537 64.9326 185.552 63.5451 185.166C63.044 185.027 62.5328 184.813 62.0114 184.523C61.4761 184.208 61.0093 183.871 60.611 183.511C60.4386 183.609 60.2261 183.664 59.9735 183.677C59.7015 183.684 59.3825 183.637 59.0164 183.535C57.8794 183.22 56.8922 182.738 56.055 182.09C55.2177 181.443 54.5405 180.705 54.0233 179.876C53.4868 179.042 53.1329 178.186 52.9615 177.309C52.7955 176.411 52.8248 175.558 53.0495 174.749C53.4187 173.419 54.2001 172.474 55.3937 171.913C56.5681 171.346 58.1285 171.333 60.0748 171.873C61.0962 172.157 62.094 172.6 63.0683 173.203C64.048 173.786 64.957 174.474 65.7953 175.268C66.639 176.041 67.3527 176.873 67.9362 177.761C68.5252 178.63 68.9465 179.505 69.2004 180.385C69.4403 181.24 69.4559 182.044 69.2472 182.795ZM60.1579 181.33C60.3441 181.258 60.5625 181.256 60.8131 181.325C61.1021 181.406 61.3751 181.544 61.6321 181.74C61.8944 181.916 62.26 182.132 62.729 182.387C63.1979 182.641 63.8949 182.897 64.8199 183.154C65.7449 183.411 66.3091 183.173 66.5124 182.441C66.7371 181.631 66.6278 180.792 66.1845 179.921C65.7219 179.046 65.0548 178.196 64.1833 177.373C63.3117 176.55 62.338 175.833 61.262 175.223C60.172 174.588 59.1068 174.127 58.0661 173.838C57.3917 173.65 56.8847 173.645 56.5454 173.82C56.1868 173.99 55.9165 174.403 55.7346 175.058C55.5473 175.733 55.5833 176.5 55.8424 177.361C56.0877 178.197 56.5289 178.963 57.1659 179.659C57.803 180.355 58.6033 180.836 59.5669 181.104C59.7789 181.163 59.9759 181.238 60.1579 181.33Z" fill="black"/>
<path d="M62.5695 154.863C61.5617 153.88 60.5056 152.91 59.4013 151.954C58.3044 150.978 57.1611 150.038 55.9714 149.134C55.6442 148.874 55.4136 148.589 55.2795 148.277C55.1342 147.939 55.1245 147.612 55.2503 147.296C55.3391 147.073 55.4968 146.921 55.7232 146.839C55.9571 146.738 56.2133 146.744 56.492 146.855C56.845 146.995 57.4026 147.379 58.1648 148.006C58.9344 148.614 59.9067 149.388 61.0815 150.33C62.2638 151.253 63.6467 152.267 65.2303 153.372C66.8028 154.45 68.5832 155.547 70.5717 156.663C72.5675 157.759 74.7545 158.781 77.1327 159.729C77.6529 159.936 78.0359 160.218 78.2815 160.574C78.5456 160.938 78.6148 161.277 78.489 161.593C78.4149 161.779 78.2981 161.937 78.1386 162.067C77.9791 162.197 77.6969 162.257 77.2921 162.247C76.9132 162.225 76.3467 162.107 75.5925 161.892C74.8197 161.671 73.8016 161.308 72.5382 160.805C71.5721 160.42 70.5445 159.946 69.4556 159.383C70.6572 160.852 71.6341 162.317 72.3862 163.78C73.1272 165.216 73.6192 166.521 73.8622 167.694C74.1126 168.849 74.1083 169.751 73.8492 170.402C73.5308 171.2 73.0023 171.743 72.2637 172.03C71.551 172.306 70.6744 172.237 69.6339 171.822C68.7235 171.459 67.8704 170.872 67.0745 170.06C66.2787 169.247 65.5569 168.303 64.9092 167.227C64.243 166.143 63.6621 165.008 63.1665 163.82C62.671 162.632 62.2776 161.485 61.9864 160.379C61.6841 159.246 61.5044 158.238 61.4475 157.355C61.372 156.463 61.4268 155.785 61.6119 155.321C61.6859 155.135 61.8176 154.994 62.0069 154.897C62.1962 154.8 62.3837 154.789 62.5695 154.863ZM63.2891 155.569C63.3673 155.751 63.4344 155.961 63.4905 156.199C63.5465 156.436 63.6044 156.696 63.6642 156.978C63.9145 158.025 64.2243 159.193 64.5937 160.481C64.952 161.743 65.3993 162.998 65.9358 164.245C66.4611 165.466 67.0958 166.548 67.8398 167.49C68.5839 168.433 69.4669 169.108 70.4887 169.515C70.9346 169.692 71.2464 169.558 71.4241 169.112C71.6684 168.499 71.6469 167.716 71.3596 166.762C71.0612 165.781 70.5472 164.694 69.8177 163.499C69.0696 162.297 68.1449 161.024 67.0438 159.681C65.9241 158.331 64.6725 156.96 63.2891 155.569Z" fill="black"/>
<path d="M79.5423 133.902C79.2061 134.326 78.7761 134.337 78.2523 133.933C78.1311 133.827 78.0356 133.629 77.9657 133.34C77.8793 133.04 77.9008 132.776 78.0301 132.55C78.3284 132.003 78.6804 131.324 79.0862 130.511C79.4866 129.671 79.9209 128.746 80.3893 127.734C79.6904 127.019 78.9725 126.242 78.2358 125.404C77.499 124.566 76.8039 123.72 76.1504 122.867C75.4804 122.002 74.9044 121.176 74.4224 120.39C73.9404 119.604 73.6186 118.903 73.457 118.286C73.3984 117.98 73.3865 117.731 73.4213 117.537C73.4395 117.332 73.4879 117.171 73.5665 117.055C73.7236 116.823 73.9464 116.709 74.2349 116.711C74.5345 116.697 74.8085 116.774 75.0568 116.942C75.1892 117.032 75.3048 117.146 75.4036 117.286C76.1061 118.246 77.007 119.376 78.1063 120.677C79.2056 121.978 80.4121 123.388 81.726 124.907C82.5103 123.216 83.278 121.513 84.0292 119.8C84.7804 118.086 85.4105 116.604 85.9195 115.354C86.0003 114.95 86.1879 114.727 86.4822 114.685C86.7878 114.626 87.0316 114.659 87.2137 114.782C87.4454 114.939 87.5743 115.123 87.6004 115.334C87.6377 115.529 87.6529 115.72 87.6459 115.909L87.6539 115.95C87.5618 116.371 87.3824 116.975 87.1155 117.76C86.8321 118.535 86.4979 119.42 86.1129 120.415C85.7114 121.399 85.2705 122.441 84.7904 123.542C84.3215 124.625 83.8417 125.689 83.3509 126.734C84.5495 128.102 85.7839 129.507 87.054 130.948C88.3188 132.361 89.5588 133.758 90.7739 135.138C91.2576 135.707 91.501 136.15 91.5041 136.466C91.5349 136.777 91.4718 137.048 91.3147 137.28C91.1351 137.545 90.8786 137.71 90.5453 137.773C90.2232 137.821 89.8008 137.571 89.2781 137.023L82.0398 129.469C81.5154 130.564 81.0281 131.514 80.5781 132.32C80.1392 133.11 79.7939 133.637 79.5423 133.902Z" fill="black"/>
<path d="M101.678 120.23C101.432 120.519 101.105 120.688 100.697 120.735C100.274 120.77 99.8268 120.586 99.3542 120.185C99.0189 119.9 98.5928 119.459 98.076 118.863C97.544 118.253 96.9845 117.568 96.3975 116.807C95.8106 116.046 95.2377 115.284 94.6789 114.521C94.1179 113.729 93.633 113.003 93.2244 112.341C92.8158 111.679 92.5325 111.163 92.3747 110.792C92.2649 110.489 92.2248 110.258 92.2544 110.1C92.2971 109.926 92.3637 109.786 92.4543 109.679C92.6356 109.466 92.8595 109.341 93.1262 109.305C93.4058 109.254 93.7438 109.397 94.1401 109.733C94.3688 109.928 94.711 110.297 95.1668 110.842C95.6204 111.358 96.1395 111.983 96.7241 112.716C97.3065 113.42 97.8988 114.159 98.501 114.933C99.1009 115.679 99.6703 116.399 100.209 117.093C100.748 117.787 101.206 118.36 101.584 118.811C101.776 119.079 101.876 119.348 101.883 119.617C101.889 119.858 101.82 120.062 101.678 120.23ZM90.9368 107.249C90.639 107.599 90.2475 107.844 89.7622 107.983C89.2898 108.106 88.8174 107.968 88.3448 107.566C87.9485 107.23 87.7061 106.866 87.6176 106.476C87.542 106.071 87.5609 105.693 87.6743 105.343C87.7854 104.965 87.9251 104.677 88.0935 104.479C88.2618 104.281 88.4953 104.099 88.7939 103.933C89.0902 103.738 89.4304 103.647 89.8144 103.658C90.1832 103.656 90.581 103.837 91.0078 104.199C91.2974 104.445 91.4724 104.765 91.5327 105.157C91.5778 105.536 91.5383 105.923 91.4143 106.316C91.3031 106.694 91.144 107.005 90.9368 107.249Z" fill="black"/>
<path d="M121.684 98.4808C121.889 98.7268 121.974 99.005 121.937 99.3153C121.9 99.6255 121.766 99.8907 121.533 100.111C121.272 100.358 120.972 100.477 120.632 100.468C120.293 100.459 119.952 100.273 119.608 99.91C118.714 98.9662 117.788 97.9013 116.829 96.7153C115.857 95.5147 114.921 94.308 114.02 93.0953C113.106 91.868 112.273 90.7278 111.524 89.6747C111.691 90.811 111.884 92.0612 112.101 93.4253C112.334 94.7755 112.544 96.1323 112.734 97.4956C112.923 98.8589 113.065 100.143 113.16 101.348C113.241 102.539 113.256 103.558 113.205 104.405C113.14 105.238 112.962 105.792 112.671 106.067C112.134 106.576 111.47 106.806 110.679 106.756C109.875 106.692 109.163 106.333 108.544 105.679C108.296 105.418 107.988 105.035 107.62 104.53C107.238 104.01 106.843 103.462 106.434 102.885C106.025 102.308 105.643 101.774 105.289 101.283C104.92 100.778 104.633 100.417 104.427 100.199C104.234 99.9958 104.048 99.8422 103.866 99.7382C103.686 99.606 103.538 99.5949 103.422 99.705C103.247 99.87 103.194 100.293 103.26 100.974C103.313 101.64 103.432 102.45 103.619 103.403C103.82 104.342 104.04 105.331 104.281 106.37C104.536 107.396 104.779 108.365 105.009 109.276C105.225 110.173 105.375 110.899 105.459 111.453C105.573 111.951 105.619 112.349 105.596 112.645C105.574 112.942 105.447 113.2 105.215 113.42C104.939 113.681 104.547 113.777 104.04 113.706C103.547 113.622 103.101 113.37 102.702 112.949C102.468 112.702 102.147 112.276 101.739 111.67C101.318 111.051 100.869 110.36 100.395 109.597C99.935 108.82 99.4815 108.065 99.0345 107.332C98.5883 106.57 98.2097 105.923 97.8987 105.391C97.5472 104.787 97.3761 104.316 97.3853 103.977C97.3945 103.637 97.5007 103.371 97.704 103.179C97.9799 102.918 98.294 102.813 98.6462 102.865C98.9993 102.889 99.3683 103.104 99.7535 103.51C99.8222 103.583 99.9643 103.82 100.18 104.222C100.382 104.61 100.63 105.09 100.926 105.664C101.222 106.21 101.525 106.791 101.834 107.408C102.157 108.011 102.467 108.557 102.765 109.046C102.576 108.206 102.36 107.309 102.117 106.354C101.888 105.386 101.667 104.425 101.452 103.471C101.224 102.503 101.05 101.593 100.932 100.741C100.8 99.8744 100.764 99.1237 100.823 98.4886C100.883 97.8536 101.072 97.3848 101.392 97.0822C101.769 96.7246 102.228 96.5107 102.767 96.4404C103.321 96.3564 103.886 96.4141 104.46 96.6136C105.035 96.8131 105.549 97.1524 106.003 97.6316C106.319 97.9655 106.708 98.4924 107.17 99.2123C107.618 99.9177 108.106 100.681 108.636 101.501C109.18 102.308 109.733 103.038 110.295 103.69C110.433 103.835 110.545 103.866 110.632 103.784C110.705 103.715 110.744 103.582 110.749 103.384C110.73 102.52 110.665 101.521 110.555 100.386C110.43 99.237 110.279 98.0445 110.1 96.8088C109.936 95.5594 109.778 94.3314 109.627 93.1248C109.462 91.9036 109.329 90.7895 109.229 89.7823C109.13 88.7469 109.089 87.8899 109.108 87.2113C109.141 86.519 109.259 86.0765 109.462 85.884C109.898 85.4713 110.349 85.2784 110.815 85.3052C111.281 85.332 111.789 85.6358 112.339 86.2166C112.779 86.6812 113.314 87.3182 113.943 88.1274C114.586 88.923 115.269 89.8045 115.993 90.7719C116.731 91.7257 117.462 92.7004 118.184 93.6961C118.908 94.6636 119.577 95.573 120.19 96.4243C120.79 97.2611 121.288 97.9466 121.684 98.4808Z" fill="black"/>
<path d="M125.334 81.0008C125.721 81.5103 125.943 82.1329 126 82.8685C126.045 83.5882 125.974 84.3707 125.787 85.2159C125.589 86.0453 125.316 86.893 124.97 87.7593C124.623 88.6256 124.241 89.4441 123.822 90.2148C123.403 90.9855 122.997 91.6582 122.605 92.2327C122.949 92.9505 123.303 93.5482 123.666 94.0259C123.896 94.3284 124.131 94.4889 124.371 94.5073C124.612 94.5258 124.883 94.42 125.185 94.19C125.854 93.6817 126.472 93.0237 127.039 92.216C127.605 91.4083 128.134 90.5168 128.623 89.5417C129.113 88.5665 129.553 87.5916 129.942 86.617C130.332 85.6425 130.676 84.7402 130.975 83.9103C131.289 83.0682 131.555 82.3765 131.771 81.8351C131.988 81.2937 132.16 80.9745 132.287 80.8777C132.478 80.7325 132.67 80.6872 132.862 80.742C133.059 80.7687 133.217 80.8617 133.338 81.0209C133.435 81.1483 133.424 81.5464 133.304 82.2151C133.2 82.8718 133.009 83.6951 132.732 84.6849C132.442 85.6588 132.085 86.7091 131.66 87.8359C131.236 88.9627 130.755 90.0818 130.218 91.1933C129.697 92.2927 129.134 93.2864 128.527 94.1744C127.937 95.0502 127.323 95.7302 126.687 96.2143C125.859 96.8437 124.978 97.0234 124.044 96.7535C123.11 96.4835 122.147 95.6958 121.155 94.3902C120.489 93.5145 119.929 92.5461 119.474 91.485C119.035 90.4118 118.706 89.3179 118.486 88.2033C118.271 87.0607 118.168 85.9834 118.177 84.9713C118.191 83.9312 118.337 83.0162 118.616 82.2264C118.882 81.4206 119.279 80.8181 119.804 80.4186C120.807 79.6561 121.807 79.3356 122.804 79.4572C123.801 79.5787 124.644 80.0933 125.334 81.0008ZM121.708 90.0125C121.972 89.3348 122.239 88.629 122.51 87.8952C122.782 87.1615 123.007 86.45 123.187 85.7608C123.366 85.0716 123.446 84.4331 123.426 83.8452C123.41 83.2293 123.245 82.7144 122.93 82.3004C122.482 81.7113 121.94 81.6588 121.303 82.143C120.905 82.4455 120.677 83.021 120.618 83.8694C120.564 84.6898 120.64 85.6493 120.847 86.748C121.054 87.8467 121.341 88.9349 121.708 90.0125Z" fill="black"/>
<path d="M140.255 87.4241C139.878 87.6509 139.437 87.7527 138.933 87.7293C138.446 87.6956 138.037 87.4045 137.707 86.8561C137.439 86.4106 137.334 85.9837 137.392 85.5754C137.449 85.1672 137.588 84.8154 137.807 84.5202C138.016 84.2078 138.232 83.9846 138.455 83.8506C138.677 83.7165 138.957 83.6184 139.293 83.5563C139.646 83.4838 140.003 83.5142 140.363 83.6475C140.713 83.7637 141.032 84.0617 141.321 84.5416C141.61 85.0214 141.641 85.5393 141.416 86.0952C141.19 86.6512 140.803 87.0941 140.255 87.4241Z" fill="black"/>
<path d="M215.785 63.3348C215.085 63.3348 214.505 63.0248 214.045 62.4048C213.605 61.7648 213.385 60.6348 213.385 59.0148C213.385 57.3148 213.415 55.6648 213.475 54.0648C213.535 52.4448 213.645 50.9948 213.805 49.7148C213.985 48.4348 214.225 47.4148 214.525 46.6548C214.825 45.8948 215.215 45.5148 215.695 45.5148C216.035 45.5148 216.335 45.7048 216.595 46.0848C216.855 46.4448 216.985 46.9248 216.985 47.5248C216.985 48.1448 216.925 48.9748 216.805 50.0148C216.685 51.0548 216.535 52.1748 216.355 53.3748C216.195 54.5548 216.055 55.7048 215.935 56.8248C215.815 57.9248 215.755 58.8548 215.755 59.6148C215.755 59.9348 215.765 60.1948 215.785 60.3948C215.825 60.5748 215.885 60.6648 215.965 60.6648C216.265 60.6648 216.585 60.4048 216.925 59.8848C217.285 59.3448 217.665 58.6448 218.065 57.7848C218.465 56.9048 218.885 55.9448 219.325 54.9048C219.765 53.8448 220.215 52.7948 220.675 51.7548C221.135 50.7148 221.605 49.7648 222.085 48.9048C222.565 48.0248 223.045 47.3248 223.525 46.8048C224.005 46.2648 224.475 45.9948 224.935 45.9948C225.475 45.9948 225.975 46.2548 226.435 46.7748C226.915 47.2748 227.155 47.9948 227.155 48.9348C227.155 49.2148 227.115 49.7048 227.035 50.4048C226.955 51.0848 226.855 51.8648 226.735 52.7448C226.615 53.6248 226.495 54.5048 226.375 55.3848C226.255 56.2448 226.155 57.0148 226.075 57.6948C225.995 58.3548 225.955 58.8248 225.955 59.1048C225.955 60.1448 226.055 60.6648 226.255 60.6648C226.815 60.6648 227.405 60.3148 228.025 59.6148C228.665 58.8948 229.305 57.9748 229.945 56.8548C230.605 55.7148 231.255 54.4848 231.895 53.1648C232.555 51.8248 233.185 50.5448 233.785 49.3248C234.065 48.6848 234.295 48.2548 234.475 48.0348C234.675 47.7948 234.875 47.6748 235.075 47.6748C235.355 47.6748 235.615 47.8248 235.855 48.1248C236.115 48.4248 236.245 48.8348 236.245 49.3548C236.245 49.5348 236.235 49.7148 236.215 49.8948C236.195 50.0548 236.145 50.2348 236.065 50.4348C235.385 52.2348 234.655 53.9048 233.875 55.4448C233.095 56.9648 232.295 58.2948 231.475 59.4348C230.675 60.5548 229.885 61.4348 229.105 62.0748C228.325 62.6948 227.605 63.0048 226.945 63.0048C225.805 63.0048 224.915 62.6848 224.275 62.0448C223.655 61.3848 223.345 60.5048 223.345 59.4048C223.345 58.9448 223.375 58.3448 223.435 57.6048C223.515 56.8648 223.605 56.0648 223.705 55.2048C223.825 54.3448 223.945 53.5148 224.065 52.7148C224.185 51.9148 224.285 51.2148 224.365 50.6148C224.465 50.0148 224.525 49.6048 224.545 49.3848C224.565 49.1048 224.535 48.9648 224.455 48.9648C224.375 48.9648 224.215 49.2248 223.975 49.7448C223.755 50.2448 223.485 50.8848 223.165 51.6648C222.865 52.4248 222.545 53.2148 222.205 54.0348C221.825 54.9348 221.385 55.9248 220.885 57.0048C220.405 58.0648 219.885 59.0748 219.325 60.0348C218.785 60.9948 218.215 61.7848 217.615 62.4048C217.015 63.0248 216.405 63.3348 215.785 63.3348Z" fill="black"/>
<path d="M250.6 52.1448C250.531 52.781 250.264 53.3857 249.799 53.9588C249.337 54.5121 248.747 55.0314 248.031 55.5167C247.316 55.9822 246.535 56.4103 245.688 56.801C244.841 57.1917 244 57.5227 243.166 57.7941C242.332 58.0655 241.574 58.2749 240.895 58.4222C240.651 59.1804 240.497 59.8577 240.432 60.4541C240.391 60.8319 240.451 61.1101 240.613 61.2886C240.775 61.4671 241.044 61.5769 241.422 61.618C242.257 61.7088 243.158 61.6559 244.125 61.4593C245.092 61.2627 246.089 60.9788 247.115 60.6076C248.141 60.2363 249.131 59.8309 250.084 59.3914C251.037 58.9519 251.907 58.5335 252.695 58.1364C253.502 57.7413 254.171 57.4217 254.7 57.1776C255.23 56.9334 255.574 56.8199 255.733 56.8372C255.972 56.8632 256.142 56.9622 256.244 57.1342C256.368 57.2885 256.419 57.4651 256.397 57.6639C256.38 57.823 256.098 58.1041 255.551 58.5074C255.024 58.9128 254.32 59.3794 253.438 59.9071C252.557 60.4149 251.576 60.9318 250.493 61.4577C249.409 61.9837 248.291 62.4656 247.137 62.9034C246.002 63.3433 244.91 63.6772 243.859 63.9049C242.828 64.1348 241.915 64.2065 241.12 64.12C240.086 64.0075 239.323 63.5322 238.831 62.6941C238.338 61.856 238.181 60.6217 238.358 58.9913C238.477 57.8978 238.736 56.8094 239.136 55.7263C239.555 54.6453 240.068 53.6248 240.676 52.6648C241.305 51.6871 241.971 50.8342 242.674 50.1059C243.399 49.3599 244.134 48.7961 244.88 48.4145C245.628 48.0129 246.33 47.8479 246.986 47.9192C248.238 48.0555 249.185 48.5105 249.825 49.2842C250.465 50.0579 250.723 51.0115 250.6 52.1448ZM241.771 56.1939C242.428 55.8831 243.108 55.5547 243.809 55.2085C244.511 54.8623 245.164 54.5008 245.768 54.1239C246.372 53.747 246.869 53.3384 247.259 52.898C247.671 52.4398 247.905 51.9523 247.961 51.4353C248.041 50.6997 247.684 50.2886 246.888 50.2021C246.391 50.148 245.83 50.4089 245.204 50.9846C244.6 51.5425 243.996 52.2916 243.39 53.2316C242.785 54.1717 242.245 55.1591 241.771 56.1939Z" fill="black"/>
<path d="M261.035 55.1739C260.585 55.0751 260.415 54.7815 260.522 54.2931C260.586 54.0002 260.747 53.6875 261.005 53.355C261.282 53.0269 261.594 52.6347 261.94 52.1785C262.286 51.7222 262.62 51.1814 262.942 50.556C263.283 49.9349 263.547 49.2044 263.732 48.3645C263.792 48.091 263.832 47.8133 263.853 47.5312C263.898 47.2339 263.949 46.9583 264.005 46.7044C264.233 45.6692 264.496 45.0309 264.795 44.7895C265.098 44.5286 265.465 44.4454 265.894 44.54C266.285 44.626 266.578 44.8749 266.774 45.2866C266.97 45.6984 266.963 46.3828 266.752 47.3399C266.494 48.5119 266.103 49.593 265.578 50.5832C265.057 51.554 264.493 52.3925 263.887 53.0987C263.281 53.8049 262.712 54.3452 262.179 54.7193C261.67 55.0783 261.289 55.2298 261.035 55.1739Z" fill="black"/>
<path d="M272.665 71.2937C272.361 71.1915 272.147 70.9821 272.022 70.6655C271.896 70.3488 271.907 69.9726 272.054 69.5366C272.162 69.2144 272.407 68.7061 272.789 68.0116C273.196 67.3046 273.654 66.4776 274.163 65.5305C274.691 64.5899 275.204 63.6017 275.7 62.5661C276.203 61.5115 276.624 60.482 276.963 59.4775C277.129 58.9847 277.373 58.6661 277.696 58.5217C278.044 58.3647 278.38 58.3405 278.702 58.449C279.005 58.5512 279.169 58.8174 279.193 59.2475C279.217 59.6777 278.99 60.4454 278.512 61.5506C280.035 59.9112 281.516 58.6795 282.954 57.8557C284.418 57.0192 285.757 56.5208 286.972 56.3603C288.193 56.1808 289.221 56.2316 290.055 56.5126C290.604 56.6978 290.964 56.9456 291.134 57.2561C291.329 57.5539 291.382 57.8356 291.292 58.1009C291.171 58.461 290.923 58.6942 290.55 58.8005C290.202 58.8943 289.623 58.9525 288.813 58.9751C287.871 59.0164 286.975 59.1368 286.127 59.3364C285.305 59.5235 284.465 59.8528 283.61 60.3244C282.774 60.8023 281.883 61.473 280.938 62.3364C279.999 63.1809 278.977 64.2717 277.872 65.609C276.768 66.9462 275.519 68.5834 274.128 70.5205C273.874 70.8992 273.623 71.1418 273.376 71.2486C273.148 71.3617 272.911 71.3767 272.665 71.2937Z" fill="black"/>
<path d="M304.017 69.5646C303.748 70.1454 303.302 70.6332 302.678 71.028C302.063 71.4046 301.339 71.7084 300.505 71.9395C299.679 72.1525 298.802 72.3088 297.875 72.4086C296.947 72.5083 296.045 72.5536 295.168 72.5444C294.29 72.5352 293.506 72.4919 292.815 72.4144C292.342 73.0551 291.98 73.6478 291.728 74.1923C291.568 74.5372 291.536 74.82 291.633 75.0408C291.729 75.2616 291.949 75.4518 292.294 75.6113C293.057 75.964 293.927 76.2016 294.906 76.324C295.885 76.4465 296.92 76.4956 298.011 76.4715C299.102 76.4473 300.17 76.3791 301.213 76.267C302.257 76.1548 303.215 76.0362 304.088 75.9113C304.98 75.7948 305.715 75.7053 306.295 75.643C306.875 75.5807 307.237 75.5831 307.382 75.6503C307.6 75.7511 307.73 75.8993 307.772 76.0949C307.84 76.2807 307.832 76.4644 307.748 76.6459C307.681 76.7911 307.324 76.9675 306.677 77.175C306.048 77.391 305.231 77.6081 304.227 77.8265C303.231 78.0267 302.135 78.2031 300.941 78.3557C299.747 78.5083 298.533 78.6077 297.299 78.6541C296.084 78.7089 294.942 78.6764 293.873 78.5567C292.823 78.4454 291.935 78.2217 291.209 77.8858C290.265 77.4492 289.694 76.7551 289.495 75.8036C289.296 74.8522 289.541 73.6323 290.229 72.1438C290.691 71.1455 291.284 70.1969 292.009 69.298C292.751 68.4074 293.564 67.6043 294.446 66.8885C295.354 66.163 296.258 65.5673 297.156 65.1016C298.082 64.6261 298.958 64.3266 299.787 64.2031C300.624 64.0613 301.342 64.129 301.941 64.4062C303.084 64.9352 303.836 65.6686 304.195 66.6062C304.555 67.5438 304.495 68.5299 304.017 69.5646ZM294.356 70.5824C295.079 70.4979 295.827 70.4036 296.603 70.2995C297.378 70.1955 298.112 70.0614 298.805 69.8972C299.498 69.733 300.1 69.5044 300.61 69.2116C301.147 68.9089 301.524 68.5216 301.742 68.0497C302.053 67.3781 301.846 66.8743 301.119 66.5384C300.666 66.3285 300.05 66.3964 299.273 66.7421C298.523 67.078 297.711 67.5948 296.837 68.2925C295.964 68.9901 295.137 69.7534 294.356 70.5824Z" fill="black"/>
<path d="M313.955 92.0462C313.605 91.7799 313.413 91.4707 313.379 91.1185C313.334 90.7822 313.607 90.2239 314.2 89.4437C314.745 88.7273 315.58 87.8927 316.707 86.9399C317.845 85.9713 319.168 84.9419 320.675 83.8516C322.182 82.7614 323.781 81.6657 325.472 80.5646C327.175 79.4477 328.878 78.3807 330.581 77.3637C332.312 76.3429 333.922 75.4313 335.411 74.629C335.957 74.3405 336.408 74.1934 336.764 74.1877C337.12 74.182 337.449 74.2942 337.751 74.5241C337.958 74.6815 338.085 74.8783 338.132 75.1146C338.206 75.3471 338.141 75.5987 337.935 75.8693C337.862 75.9649 337.523 76.1967 336.916 76.5648C336.326 76.9449 335.529 77.4318 334.525 78.0253C333.537 78.6309 332.43 79.3097 331.205 80.0618C329.981 80.8139 328.705 81.6156 327.38 82.467C326.054 83.3185 324.746 84.196 323.457 85.0997C322.179 85.9874 320.993 86.8697 319.899 87.7467C318.806 88.6236 317.884 89.4556 317.135 90.2428C317.868 90.0715 318.754 89.8153 319.792 89.474C320.83 89.1327 321.943 88.7599 323.129 88.3556C324.316 87.9513 325.505 87.561 326.695 87.1847C327.886 86.8084 329.014 86.4977 330.079 86.2526C331.145 86.0075 332.068 85.8675 332.848 85.8326C333.656 85.7938 334.244 85.9136 334.61 86.192C335.215 86.6519 335.555 87.2122 335.631 87.8727C335.735 88.5293 335.466 89.2796 334.824 90.1235C334.461 90.6011 333.93 91.1017 333.231 91.6252C332.547 92.1608 331.807 92.704 331.012 93.2548C330.216 93.8057 329.469 94.3428 328.769 94.8663C328.086 95.4019 327.563 95.9085 327.2 96.3862C326.703 97.039 326.702 97.553 327.196 97.9282C327.96 98.5091 328.851 98.9229 329.87 99.1695C330.904 99.4283 331.959 99.5771 333.035 99.6161C334.123 99.6391 335.155 99.6198 336.131 99.5581C337.12 99.4806 337.96 99.416 338.652 99.3645C339.401 99.3053 339.926 99.3908 340.229 99.6207C340.611 99.9112 340.651 100.255 340.348 100.654C340.263 100.765 340.143 100.874 339.986 100.981C339.829 101.088 339.563 101.174 339.186 101.24C338.714 101.333 338.063 101.429 337.234 101.527C336.422 101.638 335.505 101.72 334.485 101.774C333.48 101.839 332.444 101.83 331.377 101.747C330.325 101.677 329.31 101.508 328.332 101.242C327.382 100.971 326.556 100.57 325.856 100.038C324.9 99.3113 324.366 98.4778 324.252 97.5371C324.166 96.5925 324.492 95.6346 325.231 94.6634C325.691 94.0583 326.343 93.3986 327.188 92.684C328.032 91.9695 328.961 91.2435 329.974 90.506C331.015 89.7648 332.037 89.0474 333.042 88.3539C332.266 88.3169 331.309 88.4187 330.172 88.6593C329.062 88.8961 327.848 89.2042 326.53 89.5837C325.223 89.9472 323.905 90.3267 322.574 90.7221C321.259 91.1295 320.009 91.4855 318.823 91.7898C317.665 92.0903 316.656 92.2777 315.795 92.3521C314.935 92.4266 314.322 92.3246 313.955 92.0462Z" fill="black"/>
<path d="M329.452 103.428C328.901 102.905 328.684 102.218 328.802 101.366C328.949 100.513 329.414 99.6729 330.198 98.8453C330.927 98.0757 331.838 97.4923 332.931 97.0948C334.038 96.7111 335.241 96.4734 336.54 96.3816C337.839 96.2899 339.141 96.3112 340.447 96.4456C341.766 96.5655 343.009 96.7652 344.176 97.0448C345.359 97.3382 346.386 97.6641 347.259 98.0224C348.131 98.3807 348.757 98.7387 349.134 99.0963C349.337 99.2889 349.463 99.4906 349.511 99.7015C349.573 99.8979 349.508 100.098 349.315 100.301C349.191 100.432 349.024 100.507 348.812 100.527C348.827 100.541 348.841 100.554 348.856 100.568C349.175 100.871 349.156 101.211 348.798 101.588C348.675 101.719 348.369 101.939 347.883 102.25C347.41 102.545 346.826 102.929 346.131 103.401C345.437 103.872 344.695 104.423 343.905 105.052C343.13 105.668 342.391 106.346 341.69 107.086C341.098 107.71 341.042 108.25 341.521 108.703C342.059 109.212 342.72 109.605 343.506 109.88C344.291 110.156 345.11 110.368 345.963 110.514C346.83 110.646 347.646 110.744 348.412 110.809C349.191 110.858 349.85 110.904 350.389 110.946C350.928 110.988 351.262 111.071 351.393 111.195C351.509 111.305 351.576 111.437 351.595 111.592C351.613 111.748 351.547 111.905 351.395 112.065C351.258 112.21 350.865 112.334 350.217 112.436C349.569 112.539 348.778 112.602 347.845 112.628C346.912 112.653 345.935 112.609 344.913 112.495C343.892 112.381 342.931 112.174 342.032 111.873C341.132 111.572 340.399 111.153 339.833 110.617C339.397 110.204 339.122 109.695 339.007 109.09C338.919 108.484 339.076 107.751 339.477 106.891C339.893 106.045 340.644 105.049 341.731 103.902L342.247 103.357C340.421 103.859 338.655 104.226 336.95 104.456C335.259 104.7 333.753 104.747 332.434 104.599C331.129 104.465 330.135 104.074 329.452 103.428ZM347.235 100.272C347.135 100.233 346.992 100.18 346.806 100.114C345.849 99.7865 344.795 99.5039 343.642 99.2663C342.505 99.0425 341.333 98.8832 340.128 98.7885C338.937 98.7076 337.792 98.7103 336.69 98.7968C335.589 98.8832 334.59 99.08 333.693 99.3873C332.796 99.6945 332.072 100.139 331.522 100.719C331.343 100.908 331.242 101.088 331.218 101.258C331.209 101.442 331.306 101.631 331.51 101.823C331.8 102.098 332.35 102.274 333.158 102.351C333.98 102.414 334.956 102.402 336.085 102.315C337.229 102.241 338.435 102.102 339.703 101.898C340.971 101.694 342.216 101.455 343.44 101.182C344.678 100.922 345.788 100.651 346.771 100.37C346.925 100.323 347.08 100.291 347.235 100.272Z" fill="black"/>
<path d="M345.249 117.156C345.055 116.928 345.028 116.557 345.169 116.043C345.323 115.545 345.66 114.983 346.179 114.359C346.729 113.708 347.376 112.988 348.122 112.197C348.867 111.406 349.61 110.644 350.351 109.91C351.092 109.175 351.754 108.534 352.338 107.986C352.922 107.437 353.321 107.073 353.534 106.891C354.327 106.218 355.017 105.841 355.605 105.762C356.222 105.684 356.698 105.844 357.035 106.24C357.268 106.514 357.36 106.777 357.311 107.029C357.278 107.267 357.009 107.6 356.506 108.027C356.171 108.312 355.743 108.689 355.222 109.157C354.702 109.626 354.142 110.14 353.543 110.702C352.822 111.367 352.055 112.07 351.243 112.813C350.445 113.543 349.649 114.258 348.854 114.96C349.775 114.808 350.809 114.651 351.958 114.489C353.119 114.342 354.302 114.19 355.506 114.033C356.726 113.863 357.895 113.709 359.013 113.573C360.131 113.437 361.112 113.326 361.956 113.238C362.8 113.151 363.429 113.103 363.841 113.094C364.366 113.094 364.78 113.149 365.083 113.259C365.399 113.384 365.629 113.53 365.771 113.698C365.965 113.927 366.037 114.181 365.986 114.46C365.947 114.755 365.776 115.032 365.471 115.291C365.288 115.447 365.05 115.583 364.757 115.701C364.491 115.822 364.173 115.895 363.802 115.921C362.828 116.041 361.675 116.167 360.345 116.3C359.014 116.433 357.634 116.569 356.204 116.707C354.774 116.846 353.379 116.981 352.021 117.112C350.677 117.229 349.498 117.339 348.482 117.441C346.663 117.647 345.586 117.553 345.249 117.156Z" fill="black"/>
<path d="M356.717 133.433C356.504 133.118 356.429 132.758 356.492 132.353C356.572 131.936 356.869 131.554 357.382 131.206C357.746 130.959 358.285 130.666 358.998 130.328C359.727 129.978 360.537 129.622 361.427 129.26C362.318 128.898 363.205 128.55 364.09 128.216C365.003 127.887 365.833 127.614 366.58 127.398C367.327 127.181 367.9 127.046 368.299 126.993C368.621 126.969 368.854 126.992 368.999 127.063C369.155 127.15 369.272 127.252 369.35 127.368C369.508 127.6 369.568 127.849 369.531 128.115C369.506 128.398 369.278 128.686 368.847 128.978C368.599 129.146 368.151 129.377 367.505 129.67C366.886 129.969 366.145 130.302 365.282 130.67C364.448 131.042 363.577 131.415 362.67 131.788C361.791 132.167 360.945 132.523 360.132 132.857C359.32 133.19 358.645 133.479 358.109 133.721C357.799 133.835 357.514 133.859 357.252 133.795C357.019 133.735 356.84 133.615 356.717 133.433ZM372.098 126.556C371.84 126.175 371.709 125.732 371.705 125.228C371.712 124.739 371.973 124.321 372.486 123.973C372.916 123.682 373.331 123.545 373.731 123.564C374.141 123.6 374.5 123.719 374.807 123.922C375.141 124.13 375.382 124.342 375.527 124.557C375.673 124.772 375.786 125.046 375.867 125.378C375.975 125.716 375.972 126.068 375.858 126.435C375.761 126.791 375.481 127.126 375.017 127.44C374.703 127.653 374.349 127.736 373.954 127.69C373.577 127.632 373.215 127.49 372.869 127.265C372.535 127.057 372.278 126.821 372.098 126.556Z" fill="black"/>
<path d="M363.831 142.963C363.559 142.451 363.607 141.837 363.975 141.121C364.342 140.406 364.986 139.804 365.905 139.317C366.912 138.783 368.06 138.344 369.349 138C370.647 137.674 371.996 137.401 373.396 137.179C374.813 136.949 376.181 136.733 377.5 136.531C377.777 136.498 378.01 136.532 378.201 136.635C378.418 136.746 378.62 136.979 378.808 137.332C379.145 137.968 379.004 138.45 378.386 138.778C378.245 138.853 377.889 138.951 377.319 139.072C376.75 139.193 376.042 139.331 375.195 139.485C374.358 139.657 373.455 139.853 372.485 140.073C371.533 140.284 370.586 140.525 369.644 140.798C368.702 141.071 367.85 141.364 367.088 141.678C367.538 141.801 368.166 141.876 368.972 141.901C369.787 141.944 370.696 141.972 371.699 141.984C372.719 141.986 373.748 142.007 374.787 142.044C375.843 142.073 376.829 142.139 377.744 142.242C378.686 142.354 379.477 142.523 380.118 142.749C380.786 142.984 381.222 143.296 381.428 143.684C381.728 144.25 381.805 144.821 381.657 145.397C381.537 145.981 381.1 146.609 380.347 147.28C379.62 147.959 378.48 148.711 376.925 149.536C376.094 149.976 375.359 150.468 374.719 151.011C374.088 151.572 373.65 152.155 373.405 152.76C373.187 153.374 373.237 153.981 373.556 154.581C374.033 155.483 374.619 156.202 375.312 156.741C376.022 157.269 376.716 157.682 377.394 157.979C378.099 158.284 378.705 158.53 379.21 158.714C379.733 158.89 380.046 159.075 380.149 159.269C380.365 159.675 380.261 159.991 379.836 160.216C379.66 160.31 379.307 160.327 378.778 160.268C378.275 160.217 377.664 160.089 376.943 159.882C376.25 159.684 375.527 159.41 374.776 159.062C374.053 158.721 373.376 158.299 372.747 157.795C372.127 157.309 371.643 156.739 371.297 156.085C370.65 154.865 370.36 153.741 370.424 152.71C370.499 151.697 370.985 150.715 371.884 149.763C372.792 148.829 374.165 147.875 376.003 146.9C377.01 146.366 377.711 145.916 378.104 145.549C378.525 145.19 378.736 144.818 378.735 144.433C378.252 144.418 377.577 144.425 376.71 144.455C375.86 144.475 374.903 144.484 373.838 144.483C372.783 144.499 371.705 144.493 370.604 144.466C369.53 144.447 368.513 144.386 367.553 144.284C366.593 144.181 365.775 144.026 365.099 143.819C364.441 143.602 364.018 143.317 363.831 142.963Z" fill="black"/>
<path d="M364.097 162.593C363.527 161.163 363.248 160.057 363.26 159.278C363.273 158.498 363.511 158.015 363.975 157.83C364.273 157.712 364.551 157.708 364.811 157.82C365.078 157.95 365.271 158.164 365.39 158.461C365.515 158.777 365.65 159.251 365.794 159.883C365.92 160.522 366.097 161.129 366.327 161.705C367.089 163.619 368.281 164.963 369.903 165.738C371.525 166.512 373.636 166.758 376.236 166.476C378.855 166.186 382.039 165.423 385.788 164.188C384.433 164.082 383.048 163.902 381.633 163.648C380.244 163.404 378.926 163.068 377.679 162.639C376.458 162.222 375.402 161.706 374.511 161.092C373.621 160.478 373.013 159.762 372.687 158.945C372.376 158.164 372.342 157.511 372.584 156.984C372.833 156.475 373.404 156.043 374.296 155.688C375.095 155.37 376.029 155.256 377.098 155.346C378.186 155.43 379.334 155.661 380.54 156.042C381.747 156.422 382.936 156.896 384.109 157.462C385.301 158.02 386.39 158.62 387.377 159.26C388.39 159.911 389.238 160.553 389.92 161.185C390.603 161.818 391.04 162.375 391.233 162.858C391.425 163.341 391.406 163.78 391.175 164.173C390.944 164.566 390.364 164.948 389.435 165.318C387.262 166.184 385.114 166.954 382.992 167.627C380.897 168.311 378.885 168.801 376.957 169.095C375.029 169.39 373.243 169.391 371.598 169.099C369.942 168.833 368.476 168.179 367.2 167.138C365.923 166.096 364.889 164.581 364.097 162.593ZM388.319 162.598C387.355 161.906 386.305 161.216 385.169 160.527C384.033 159.838 382.877 159.233 381.701 158.712C380.532 158.209 379.397 157.875 378.298 157.71C377.199 157.545 376.204 157.64 375.312 157.996C375.033 158.107 374.964 158.339 375.105 158.692C375.216 158.971 375.581 159.266 376.201 159.579C376.847 159.903 377.654 160.227 378.623 160.552C379.611 160.869 380.667 161.169 381.792 161.453C382.943 161.748 384.084 161.993 385.217 162.187C386.349 162.382 387.384 162.519 388.319 162.598Z" fill="black"/>
<path d="M380.815 191.672C380.692 190.922 380.936 190.244 381.546 189.637C382.178 189.047 383.057 188.66 384.182 188.475C385.228 188.304 386.307 188.391 387.417 188.735C388.531 189.1 389.632 189.639 390.722 190.352C391.812 191.065 392.836 191.87 393.793 192.767C394.771 193.661 395.64 194.572 396.4 195.501C397.164 196.45 397.784 197.331 398.262 198.145C398.74 198.958 399.021 199.622 399.105 200.135C399.15 200.411 399.128 200.648 399.039 200.845C398.97 201.039 398.797 201.158 398.52 201.203C398.343 201.233 398.164 201.191 397.983 201.079C397.986 201.098 397.99 201.118 397.993 201.138C398.064 201.572 397.843 201.831 397.33 201.915C397.152 201.944 396.776 201.935 396.201 201.888C395.645 201.837 394.948 201.789 394.11 201.744C393.271 201.699 392.348 201.688 391.338 201.712C390.348 201.732 389.35 201.825 388.344 201.99C387.495 202.129 387.124 202.525 387.231 203.176C387.35 203.906 387.64 204.619 388.098 205.314C388.557 206.009 389.081 206.673 389.671 207.305C390.281 207.935 390.871 208.507 391.442 209.022C392.032 209.533 392.529 209.968 392.933 210.328C393.336 210.687 393.553 210.956 393.582 211.133C393.608 211.291 393.581 211.437 393.502 211.572C393.422 211.707 393.274 211.792 393.057 211.827C392.86 211.86 392.472 211.72 391.894 211.41C391.316 211.099 390.648 210.672 389.89 210.127C389.132 209.583 388.381 208.956 387.637 208.247C386.892 207.538 386.253 206.792 385.719 206.008C385.185 205.224 384.855 204.447 384.729 203.677C384.632 203.085 384.72 202.513 384.995 201.962C385.292 201.426 385.861 200.938 386.7 200.496C387.543 200.074 388.744 199.736 390.303 199.48L391.043 199.359C389.286 198.654 387.659 197.877 386.162 197.028C384.668 196.198 383.441 195.326 382.48 194.409C381.522 193.512 380.967 192.6 380.815 191.672ZM396.881 199.922C396.826 199.829 396.744 199.701 396.636 199.536C396.073 198.696 395.404 197.833 394.63 196.947C393.86 196.08 393.024 195.244 392.122 194.439C391.223 193.655 390.309 192.963 389.38 192.366C388.451 191.768 387.537 191.32 386.637 191.022C385.737 190.724 384.892 190.639 384.102 190.769C383.846 190.811 383.656 190.892 383.534 191.014C383.416 191.155 383.379 191.363 383.424 191.64C383.489 192.034 383.82 192.507 384.417 193.058C385.033 193.605 385.818 194.186 386.77 194.8C387.725 195.434 388.769 196.053 389.901 196.658C391.034 197.263 392.17 197.826 393.31 198.349C394.453 198.891 395.5 199.348 396.453 199.718C396.604 199.775 396.747 199.842 396.881 199.922Z" fill="black"/>
<path d="M376.853 226.999C376.936 225.461 377.147 224.341 377.486 223.639C377.824 222.936 378.243 222.598 378.742 222.625C379.062 222.642 379.316 222.756 379.505 222.967C379.693 223.197 379.778 223.472 379.761 223.792C379.742 224.131 379.666 224.618 379.531 225.252C379.377 225.884 379.283 226.51 379.249 227.129C379.138 229.186 379.655 230.907 380.802 232.291C381.949 233.675 383.761 234.785 386.24 235.62C388.738 236.457 391.948 237.101 395.869 237.554C394.683 236.889 393.502 236.144 392.325 235.319C391.167 234.515 390.112 233.657 389.16 232.744C388.227 231.852 387.485 230.941 386.935 230.009C386.384 229.078 386.133 228.173 386.18 227.295C386.226 226.456 386.469 225.848 386.91 225.471C387.35 225.115 388.049 224.962 389.008 225.014C389.867 225.061 390.762 225.35 391.695 225.881C392.648 226.413 393.591 227.106 394.527 227.957C395.462 228.809 396.343 229.738 397.17 230.745C398.016 231.752 398.753 232.753 399.38 233.749C400.026 234.765 400.526 235.704 400.88 236.564C401.234 237.424 401.397 238.114 401.369 238.634C401.341 239.153 401.139 239.542 400.765 239.803C400.39 240.063 399.703 240.166 398.705 240.111C396.368 239.985 394.096 239.781 391.888 239.502C389.699 239.243 387.667 238.842 385.794 238.3C383.921 237.758 382.299 237.009 380.928 236.053C379.537 235.116 378.481 233.907 377.76 232.426C377.039 230.945 376.737 229.136 376.853 226.999ZM398.834 237.174C398.249 236.141 397.586 235.074 396.845 233.972C396.103 232.87 395.308 231.835 394.459 230.868C393.609 229.921 392.72 229.141 391.792 228.53C390.863 227.919 389.92 227.588 388.961 227.536C388.662 227.519 388.502 227.701 388.481 228.08C388.465 228.38 388.672 228.802 389.104 229.346C389.554 229.911 390.15 230.544 390.893 231.246C391.656 231.948 392.489 232.664 393.391 233.394C394.311 234.145 395.245 234.846 396.191 235.499C397.137 236.151 398.018 236.709 398.834 237.174Z" fill="black"/>
<path d="M382.631 247.752C382.822 246.588 383.416 245.743 384.415 245.217C385.413 244.692 386.622 244.546 388.043 244.779C388.557 244.863 389.088 245.021 389.638 245.253C390.204 245.508 390.704 245.793 391.139 246.107C391.3 245.992 391.505 245.914 391.755 245.874C392.025 245.837 392.347 245.849 392.722 245.91C393.886 246.101 394.92 246.473 395.822 247.027C396.725 247.58 397.478 248.241 398.081 249.008C398.705 249.779 399.149 250.592 399.414 251.446C399.677 252.32 399.74 253.171 399.604 254C399.38 255.362 398.706 256.387 397.58 257.073C396.474 257.764 394.924 257.945 392.93 257.618C391.884 257.447 390.845 257.114 389.811 256.621C388.774 256.147 387.796 255.561 386.877 254.863C385.954 254.185 385.155 253.435 384.479 252.615C383.799 251.815 383.286 250.991 382.938 250.143C382.607 249.319 382.505 248.522 382.631 247.752ZM391.825 248.226C391.648 248.318 391.431 248.344 391.175 248.302C390.879 248.253 390.592 248.145 390.316 247.978C390.036 247.831 389.649 247.656 389.155 247.454C388.661 247.251 387.941 247.072 386.994 246.917C386.046 246.762 385.511 247.059 385.388 247.809C385.252 248.638 385.452 249.461 385.987 250.278C386.541 251.099 387.296 251.871 388.252 252.595C389.207 253.319 390.252 253.927 391.388 254.417C392.54 254.93 393.649 255.274 394.715 255.449C395.406 255.562 395.91 255.513 396.229 255.302C396.567 255.093 396.791 254.654 396.901 253.983C397.014 253.292 396.895 252.533 396.545 251.705C396.211 250.901 395.689 250.187 394.981 249.564C394.272 248.941 393.424 248.549 392.437 248.387C392.22 248.351 392.016 248.298 391.825 248.226Z" fill="black"/>
<path d="M379.109 264.746C379.425 263.609 380.107 262.833 381.156 262.418C382.206 262.004 383.424 261.989 384.811 262.375C385.312 262.514 385.824 262.728 386.345 263.018C386.88 263.333 387.347 263.67 387.745 264.03C387.918 263.932 388.13 263.877 388.383 263.864C388.655 263.857 388.974 263.904 389.34 264.006C390.477 264.321 391.464 264.803 392.301 265.451C393.139 266.098 393.816 266.836 394.333 267.665C394.87 268.499 395.224 269.355 395.395 270.232C395.561 271.13 395.532 271.983 395.307 272.792C394.938 274.122 394.156 275.067 392.963 275.628C391.788 276.195 390.228 276.208 388.282 275.668C387.26 275.384 386.262 274.941 385.288 274.338C384.308 273.755 383.399 273.067 382.561 272.273C381.717 271.5 381.004 270.668 380.42 269.78C379.831 268.911 379.41 268.036 379.156 267.156C378.916 266.301 378.901 265.497 379.109 264.746ZM388.199 266.211C388.012 266.283 387.794 266.285 387.543 266.216C387.254 266.135 386.981 265.997 386.724 265.801C386.462 265.625 386.096 265.409 385.627 265.154C385.159 264.9 384.462 264.644 383.537 264.387C382.612 264.13 382.047 264.368 381.844 265.1C381.619 265.91 381.729 266.749 382.172 267.62C382.635 268.495 383.302 269.345 384.173 270.168C385.045 270.991 386.018 271.708 387.094 272.318C388.184 272.953 389.25 273.414 390.29 273.703C390.965 273.891 391.472 273.896 391.811 273.721C392.17 273.551 392.44 273.138 392.622 272.483C392.809 271.808 392.773 271.041 392.514 270.18C392.269 269.344 391.828 268.578 391.191 267.882C390.553 267.186 389.753 266.705 388.79 266.437C388.578 266.378 388.381 266.303 388.199 266.211Z" fill="black"/>
<path d="M385.787 292.677C386.795 293.66 387.851 294.63 388.955 295.586C390.052 296.562 391.195 297.502 392.385 298.406C392.712 298.666 392.943 298.951 393.077 299.263C393.222 299.601 393.232 299.928 393.106 300.244C393.017 300.467 392.859 300.619 392.633 300.701C392.399 300.802 392.143 300.796 391.864 300.685C391.511 300.545 390.954 300.161 390.191 299.535C389.422 298.926 388.45 298.152 387.275 297.21C386.092 296.287 384.709 295.273 383.126 294.168C381.553 293.09 379.773 291.993 377.785 290.877C375.789 289.781 373.602 288.759 371.223 287.811C370.703 287.604 370.32 287.322 370.075 286.966C369.811 286.602 369.741 286.263 369.867 285.947C369.941 285.761 370.058 285.603 370.218 285.473C370.377 285.343 370.659 285.283 371.064 285.293C371.443 285.315 372.009 285.433 372.764 285.648C373.536 285.869 374.555 286.232 375.818 286.735C376.784 287.12 377.812 287.594 378.901 288.157C377.699 286.688 376.722 285.223 375.97 283.76C375.229 282.324 374.737 281.019 374.494 279.846C374.244 278.691 374.248 277.789 374.507 277.139C374.825 276.34 375.354 275.797 376.093 275.51C376.805 275.234 377.682 275.303 378.722 275.718C379.633 276.081 380.486 276.668 381.282 277.48C382.078 278.293 382.799 279.237 383.447 280.313C384.113 281.397 384.694 282.532 385.19 283.72C385.685 284.908 386.079 286.055 386.37 287.161C386.672 288.294 386.852 289.302 386.909 290.185C386.984 291.077 386.929 291.755 386.744 292.219C386.67 292.405 386.539 292.546 386.349 292.643C386.16 292.74 385.973 292.751 385.787 292.677ZM385.067 291.971C384.989 291.789 384.922 291.579 384.866 291.341C384.81 291.104 384.752 290.844 384.692 290.562C384.442 289.515 384.132 288.347 383.762 287.059C383.404 285.797 382.957 284.542 382.42 283.295C381.895 282.074 381.26 280.992 380.516 280.05C379.772 279.107 378.889 278.432 377.867 278.025C377.422 277.848 377.11 277.982 376.932 278.428C376.688 279.041 376.709 279.824 376.997 280.779C377.295 281.759 377.809 282.846 378.539 284.041C379.287 285.243 380.211 286.516 381.312 287.859C382.432 289.209 383.684 290.58 385.067 291.971Z" fill="black"/>
<path d="M368.814 313.637C369.15 313.212 369.58 313.202 370.104 313.605C370.225 313.711 370.321 313.909 370.391 314.198C370.477 314.498 370.455 314.762 370.326 314.988C370.028 315.535 369.676 316.214 369.27 317.027C368.87 317.867 368.435 318.792 367.967 319.804C368.666 320.519 369.384 321.296 370.12 322.134C370.857 322.972 371.552 323.818 372.206 324.671C372.876 325.536 373.452 326.362 373.934 327.148C374.416 327.934 374.738 328.635 374.899 329.252C374.958 329.558 374.97 329.808 374.935 330.001C374.917 330.207 374.868 330.367 374.79 330.483C374.633 330.715 374.41 330.829 374.121 330.827C373.822 330.841 373.548 330.764 373.299 330.596C373.167 330.506 373.051 330.392 372.953 330.252C372.25 329.293 371.349 328.162 370.25 326.861C369.151 325.56 367.944 324.15 366.63 322.631C365.846 324.322 365.078 326.025 364.327 327.738C363.576 329.452 362.946 330.934 362.437 332.184C362.356 332.588 362.168 332.811 361.874 332.853C361.568 332.912 361.325 332.879 361.143 332.756C360.911 332.599 360.782 332.415 360.756 332.204C360.718 332.009 360.703 331.818 360.71 331.629L360.702 331.588C360.794 331.167 360.974 330.563 361.241 329.778C361.524 329.003 361.858 328.119 362.243 327.123C362.645 326.139 363.086 325.097 363.566 323.996C364.035 322.913 364.514 321.849 365.005 320.804C363.807 319.436 362.572 318.031 361.302 316.59C360.037 315.177 358.797 313.78 357.582 312.401C357.099 311.831 356.855 311.388 356.852 311.072C356.821 310.761 356.884 310.49 357.042 310.258C357.221 309.993 357.478 309.829 357.811 309.765C358.133 309.717 358.555 309.967 359.078 310.515L366.316 318.069C366.841 316.974 367.328 316.024 367.778 315.218C368.217 314.428 368.562 313.901 368.814 313.637Z" fill="black"/>
<path d="M346.679 327.309C346.925 327.02 347.252 326.851 347.659 326.804C348.082 326.77 348.53 326.953 349.002 327.354C349.338 327.639 349.764 328.08 350.281 328.676C350.813 329.286 351.372 329.971 351.959 330.732C352.546 331.493 353.119 332.255 353.678 333.018C354.239 333.81 354.724 334.536 355.132 335.198C355.541 335.86 355.824 336.376 355.982 336.747C356.092 337.05 356.132 337.281 356.102 337.439C356.06 337.613 355.993 337.753 355.902 337.86C355.721 338.073 355.497 338.198 355.23 338.234C354.951 338.285 354.613 338.142 354.217 337.806C353.988 337.611 353.646 337.242 353.19 336.697C352.736 336.181 352.217 335.556 351.633 334.824C351.05 334.119 350.458 333.38 349.856 332.606C349.256 331.86 348.686 331.14 348.147 330.446C347.609 329.752 347.15 329.179 346.773 328.728C346.581 328.46 346.481 328.191 346.473 327.922C346.468 327.681 346.536 327.477 346.679 327.309ZM357.42 340.29C357.718 339.94 358.109 339.695 358.595 339.556C359.067 339.433 359.539 339.572 360.012 339.973C360.408 340.31 360.651 340.673 360.739 341.063C360.815 341.468 360.796 341.846 360.682 342.196C360.571 342.574 360.432 342.862 360.263 343.06C360.095 343.258 359.861 343.44 359.563 343.606C359.266 343.801 358.926 343.892 358.542 343.881C358.174 343.883 357.776 343.702 357.349 343.34C357.059 343.094 356.884 342.774 356.824 342.382C356.779 342.003 356.818 341.616 356.942 341.223C357.054 340.845 357.213 340.534 357.42 340.29Z" fill="black"/>
<path d="M326.673 349.06C326.467 348.814 326.383 348.536 326.419 348.226C326.456 347.916 326.59 347.65 326.823 347.43C327.084 347.183 327.384 347.064 327.724 347.073C328.063 347.082 328.405 347.268 328.748 347.631C329.642 348.575 330.569 349.64 331.527 350.826C332.499 352.026 333.435 353.233 334.336 354.446C335.251 355.673 336.083 356.813 336.832 357.866C336.665 356.73 336.473 355.48 336.255 354.116C336.023 352.765 335.812 351.409 335.622 350.045C335.433 348.682 335.291 347.398 335.196 346.193C335.115 345.002 335.1 343.983 335.152 343.136C335.217 342.303 335.394 341.749 335.685 341.474C336.222 340.965 336.886 340.735 337.677 340.785C338.482 340.849 339.193 341.208 339.812 341.862C340.06 342.123 340.368 342.506 340.736 343.011C341.118 343.531 341.514 344.079 341.922 344.656C342.331 345.233 342.713 345.767 343.067 346.258C343.436 346.763 343.723 347.124 343.929 347.342C344.122 347.545 344.309 347.699 344.49 347.803C344.67 347.935 344.818 347.946 344.935 347.836C345.109 347.671 345.163 347.248 345.096 346.567C345.044 345.901 344.924 345.091 344.738 344.138C344.537 343.199 344.316 342.21 344.075 341.171C343.82 340.145 343.578 339.176 343.348 338.265C343.131 337.368 342.981 336.642 342.897 336.088C342.783 335.59 342.738 335.192 342.76 334.896C342.782 334.6 342.909 334.341 343.142 334.121C343.417 333.86 343.809 333.764 344.316 333.835C344.809 333.919 345.255 334.171 345.654 334.592C345.888 334.839 346.209 335.265 346.617 335.871C347.039 336.49 347.487 337.182 347.961 337.944C348.421 338.721 348.875 339.476 349.322 340.209C349.768 340.971 350.147 341.618 350.457 342.15C350.809 342.754 350.98 343.225 350.971 343.564C350.962 343.904 350.855 344.17 350.652 344.362C350.376 344.623 350.062 344.728 349.71 344.676C349.357 344.652 348.988 344.437 348.603 344.031C348.534 343.958 348.392 343.721 348.176 343.319C347.975 342.931 347.726 342.451 347.43 341.877C347.134 341.331 346.831 340.75 346.523 340.133C346.199 339.53 345.889 338.984 345.591 338.495C345.78 339.335 345.996 340.232 346.239 341.187C346.468 342.155 346.689 343.116 346.904 344.07C347.132 345.038 347.306 345.948 347.424 346.8C347.556 347.667 347.593 348.417 347.533 349.052C347.473 349.687 347.284 350.156 346.964 350.459C346.587 350.816 346.128 351.03 345.589 351.101C345.035 351.185 344.47 351.127 343.896 350.927C343.321 350.728 342.807 350.389 342.353 349.909C342.037 349.575 341.648 349.049 341.186 348.329C340.739 347.623 340.25 346.86 339.72 346.04C339.176 345.233 338.623 344.503 338.061 343.851C337.923 343.706 337.811 343.675 337.724 343.757C337.651 343.826 337.612 343.959 337.607 344.157C337.626 345.021 337.691 346.02 337.802 347.155C337.926 348.304 338.078 349.497 338.256 350.732C338.421 351.982 338.578 353.21 338.73 354.416C338.895 355.637 339.027 356.752 339.127 357.759C339.226 358.794 339.267 359.651 339.248 360.33C339.216 361.022 339.097 361.464 338.894 361.657C338.459 362.07 338.008 362.263 337.542 362.236C337.075 362.209 336.567 361.905 336.017 361.324C335.577 360.86 335.042 360.223 334.414 359.414C333.77 358.618 333.087 357.737 332.363 356.769C331.625 355.815 330.895 354.841 330.172 353.845C329.448 352.877 328.78 351.968 328.166 351.117C327.566 350.28 327.068 349.594 326.673 349.06Z" fill="black"/>
<path d="M323.023 366.539C322.636 366.03 322.413 365.407 322.357 364.672C322.312 363.952 322.383 363.169 322.569 362.324C322.768 361.495 323.041 360.647 323.387 359.781C323.733 358.914 324.116 358.096 324.535 357.325C324.954 356.555 325.36 355.882 325.752 355.307C325.407 354.59 325.054 353.992 324.69 353.514C324.46 353.212 324.225 353.051 323.985 353.033C323.745 353.014 323.474 353.12 323.171 353.35C322.503 353.858 321.885 354.516 321.318 355.324C320.751 356.132 320.223 357.023 319.733 357.998C319.244 358.974 318.804 359.948 318.414 360.923C318.025 361.898 317.68 362.8 317.382 363.63C317.067 364.472 316.802 365.164 316.585 365.705C316.369 366.246 316.197 366.565 316.069 366.662C315.878 366.808 315.687 366.853 315.494 366.798C315.298 366.771 315.14 366.678 315.019 366.519C314.922 366.392 314.933 365.994 315.053 365.325C315.157 364.668 315.347 363.845 315.625 362.855C315.914 361.881 316.272 360.831 316.696 359.704C317.121 358.577 317.602 357.458 318.139 356.347C318.66 355.247 319.223 354.254 319.829 353.366C320.42 352.49 321.033 351.81 321.67 351.326C322.498 350.696 323.379 350.517 324.313 350.787C325.246 351.056 326.21 351.844 327.202 353.15C327.868 354.026 328.428 354.994 328.883 356.055C329.322 357.128 329.651 358.222 329.87 359.337C330.086 360.479 330.189 361.557 330.179 362.569C330.166 363.609 330.02 364.524 329.741 365.314C329.474 366.119 329.078 366.722 328.553 367.121C327.55 367.884 326.55 368.204 325.553 368.083C324.556 367.961 323.713 367.447 323.023 366.539ZM326.648 357.528C326.385 358.205 326.117 358.911 325.846 359.645C325.575 360.379 325.35 361.09 325.17 361.779C324.99 362.468 324.911 363.107 324.93 363.695C324.946 364.311 325.112 364.826 325.426 365.24C325.874 365.829 326.417 365.881 327.054 365.397C327.452 365.094 327.68 364.519 327.738 363.671C327.793 362.85 327.717 361.891 327.51 360.792C327.303 359.693 327.015 358.605 326.648 357.528Z" fill="black"/>
<path d="M308.102 360.115C308.479 359.888 308.919 359.786 309.424 359.81C309.911 359.843 310.319 360.135 310.649 360.683C310.917 361.128 311.022 361.555 310.965 361.964C310.907 362.372 310.768 362.724 310.549 363.019C310.34 363.331 310.124 363.554 309.902 363.689C309.679 363.823 309.399 363.921 309.063 363.983C308.71 364.055 308.353 364.025 307.993 363.892C307.643 363.775 307.324 363.477 307.035 362.997C306.746 362.518 306.715 362 306.941 361.444C307.166 360.888 307.553 360.445 308.102 360.115Z" fill="black"/>
<path d="M224 107.181L241.486 85L252.848 110.804L275.277 93.7245L279.925 121.524L305.821 110.582L303.46 138.678L331.275 134.463L321.979 161.154L350.015 164.038L334.374 187.549L360.787 197.309L339.833 216.163L363 232.207L337.989 245.22L356.434 266.587L328.988 272.946L341.604 298.232L313.42 297.566L319.323 325.145L292.246 317.529L291.065 345.773L266.718 331.577L258.602 358.638L238.535 338.823L224 363L209.466 338.823L189.398 358.638L181.282 331.577L156.935 345.773L155.754 317.529L128.677 325.145L134.58 297.566L106.396 298.232L119.012 272.946L91.5663 266.587L110.011 245.22L85 232.207L108.167 216.163L87.2134 197.309L113.626 187.549L97.9851 164.038L126.021 161.154L116.725 134.463L144.54 138.678L142.179 110.582L168.075 121.524L172.723 93.7245L195.152 110.804L206.514 85L224 107.181Z" fill="#FF4910"/>
</svg>
