<svg width="378" height="376" viewBox="0 0 378 376" fill="none" xmlns="http://www.w3.org/2000/svg">
<path d="M188.884 30L212.584 0L227.984 34.9L258.384 11.8L264.684 49.4L299.784 34.6L296.584 72.6L334.284 66.9L321.684 103L359.684 106.9L338.484 138.7L374.284 151.9L345.884 177.4L377.284 199.1L343.384 216.7L368.384 245.6L331.184 254.2L348.284 288.4L310.084 287.5L318.084 324.8L281.384 314.5L279.784 352.7L246.784 333.5L235.784 370.1L208.584 343.3L188.884 376L169.184 343.3L141.984 370.1L130.984 333.5L97.9839 352.7L96.3839 314.5L59.6839 324.8L67.6839 287.5L29.4839 288.4L46.5839 254.2L9.38389 245.6L34.3839 216.7L0.483887 199.1L31.8839 177.4L3.48389 151.9L39.2839 138.7L18.0839 106.9L56.0839 103L43.4839 66.9L81.1839 72.6L77.9839 34.6L113.084 49.4L119.384 11.8L149.784 34.9L165.184 0L188.884 30Z" fill="#FF4910"/>
</svg>
