<svg width="370" height="409" viewBox="0 0 370 409" fill="none" xmlns="http://www.w3.org/2000/svg">
<path d="M369.134 164.307C369.634 163.807 369.934 163.207 369.934 162.507C369.934 161.807 369.634 161.207 369.134 160.707L366.634 158.207C351.634 143.507 335.234 130.907 317.634 120.407C335.234 109.907 351.634 97.307 366.634 82.607L369.134 80.107C369.634 79.607 369.934 79.007 369.934 78.307C369.934 77.607 369.634 77.007 369.134 76.507L366.634 74.007C317.434 25.807 252.334 -0.493 183.534 0.00700025C114.634 0.507 50.0336 27.607 1.43359 76.507C0.433594 77.507 0.433594 79.007 1.43359 80.007C17.0336 95.707 34.3336 109.207 52.9336 120.307C34.3336 131.407 17.0336 144.807 1.43359 160.607C0.433594 161.607 0.433594 163.107 1.43359 164.107C17.0336 179.807 34.3336 193.307 52.9336 204.407C34.3336 215.507 17.0336 228.907 1.43359 244.707C0.433594 245.707 0.433594 247.207 1.43359 248.207C17.0336 263.907 34.3336 277.407 52.9336 288.507C34.3336 299.607 17.0336 313.007 1.43359 328.807C0.433594 329.807 0.433594 331.307 1.43359 332.307C50.0336 381.207 114.634 408.307 183.534 408.807C184.134 408.807 184.734 408.807 185.334 408.807C253.534 408.807 317.834 382.607 366.634 334.807L369.134 332.307C369.634 331.807 369.934 331.207 369.934 330.507C369.934 329.807 369.634 329.207 369.134 328.707L366.634 326.207C351.634 311.507 335.234 298.907 317.634 288.407C335.234 277.907 351.634 265.307 366.634 250.607L369.134 248.107C369.634 247.607 369.934 247.007 369.934 246.307C369.934 245.607 369.634 245.007 369.134 244.507L366.634 242.007C351.634 227.307 335.234 214.707 317.634 204.207C335.234 193.707 351.634 181.107 366.634 166.407L369.134 164.307ZM6.6336 78.407C54.0336 31.607 116.734 5.607 183.434 5.207C184.034 5.207 184.634 5.207 185.234 5.207C252.134 5.207 315.234 30.907 363.034 77.807L363.734 78.507L363.034 79.207C347.634 94.307 330.734 107.107 312.534 117.707C273.534 95.607 229.334 84.007 183.334 84.407C138.634 84.707 95.6336 96.307 57.7336 117.707C39.4336 106.907 22.2336 93.807 6.6336 78.407ZM307.534 120.507C269.934 141.207 227.534 152.007 183.534 151.707C140.734 151.407 99.5336 140.607 63.0336 120.507C99.5336 100.407 140.734 89.607 183.534 89.307C184.134 89.307 184.734 89.307 185.334 89.307C228.634 89.207 270.434 100.107 307.534 120.507ZM363.034 329.907L363.734 330.607L363.034 331.307C314.734 378.607 251.034 404.307 183.434 403.907C116.734 403.407 54.0336 377.507 6.6336 330.707C22.1336 315.407 39.3336 302.307 57.8336 291.607C95.7336 313.107 138.734 324.607 183.434 324.907C184.034 324.907 184.634 324.907 185.234 324.907C230.534 324.907 274.134 313.307 312.534 291.607C330.734 302.007 347.734 314.807 363.034 329.907ZM62.9336 288.607C99.4336 268.507 140.634 257.707 183.434 257.407C184.034 257.407 184.634 257.407 185.234 257.407C228.634 257.407 270.434 268.207 307.434 288.607C269.834 309.307 227.434 320.107 183.434 319.807C140.634 319.507 99.4336 308.607 62.9336 288.607ZM363.034 245.807L363.734 246.507L363.034 247.207C347.634 262.307 330.734 275.107 312.534 285.707C274.034 263.907 230.534 252.407 185.234 252.407C184.634 252.407 184.034 252.407 183.434 252.407C138.734 252.707 95.7336 264.307 57.8336 285.707C39.4336 275.007 22.2336 261.907 6.6336 246.507C22.1336 231.207 39.3336 218.107 57.8336 207.407C95.7336 228.907 138.734 240.407 183.434 240.707C184.034 240.707 184.634 240.707 185.234 240.707C230.534 240.707 274.134 229.107 312.534 207.407C330.734 217.907 347.734 230.807 363.034 245.807ZM62.9336 204.507C99.4336 184.407 140.634 173.607 183.434 173.307C184.034 173.307 184.634 173.307 185.234 173.307C228.634 173.307 270.434 184.107 307.434 204.507C269.834 225.207 227.434 236.007 183.434 235.707C140.634 235.407 99.4336 224.607 62.9336 204.507ZM363.034 163.207C347.634 178.307 330.734 191.107 312.534 201.707C273.534 179.707 229.334 168.107 183.434 168.407C138.734 168.707 95.7336 180.307 57.8336 201.707C39.4336 190.907 22.2336 177.807 6.6336 162.507C22.1336 147.207 39.3336 134.107 57.8336 123.407C95.7336 144.907 138.734 156.407 183.434 156.707C184.034 156.707 184.634 156.707 185.234 156.707C230.534 156.707 274.134 145.107 312.534 123.407C330.634 133.907 347.634 146.807 363.034 161.907L363.734 162.607L363.034 163.207Z" fill="#3300FF"/>
</svg>
