<svg width="458" height="456" viewBox="0 0 458 456" fill="none" xmlns="http://www.w3.org/2000/svg">
<path d="M412.021 283.373L411.297 283.476L410.6 283.695C374.013 295.173 332.24 291.846 298.799 273.801C332.976 274.737 366.869 262.382 396.286 242.771L397.027 242.277L397.658 241.647C398.419 240.885 399.046 240.163 399.533 239.582C399.77 239.3 400.001 239.017 400.175 238.807C400.363 238.578 400.502 238.41 400.627 238.265C400.691 238.19 400.744 238.13 400.788 238.082L400.924 238C417.6 227.994 429.635 213.642 438.235 197.518L438.291 197.413L438.344 197.307C443.699 186.597 448.233 173.297 448.664 160.076C449.102 146.655 445.266 132.651 433.091 122.398L431.119 120.738L428.566 120.373C418.219 118.895 407.774 123.337 401.805 132.29L401.71 132.433L401.62 132.579C383.127 162.752 363.416 186.889 334.104 201.811C333.702 201.835 333.178 201.883 332.59 201.99C331.465 202.195 329.898 202.654 328.35 203.73C322.934 206.678 317.17 208.957 311.166 210.72C318.818 203.462 325.608 195.3 331.721 186.365L331.833 186.202L331.937 186.034C355.735 147.751 368.885 103.093 355.947 57.8101L355.931 57.7531L355.914 57.6964C349.474 36.2308 332.535 11.8584 305.19 9.32703C296.631 8.41566 290.053 12.9696 286.476 18.8618C283.05 24.5045 282.046 31.6566 283.508 38.2349L283.518 38.2813L283.529 38.3276C290.43 67.9039 294.079 93.3674 288.487 121.424C285.447 135.067 280.844 147.968 274.472 159.521C274.754 152.967 274.644 146.44 274.292 139.999C274.247 136.718 273.432 133.755 272.803 131.618C272.627 131.02 272.462 130.473 272.307 129.959C271.812 128.322 271.421 127.027 271.119 125.518L271.106 125.451L271.091 125.385C265.362 98.8193 253.604 70.6713 235.634 48.7084C217.633 26.7062 192.982 10.4894 161.861 9.29741C155.931 8.77578 147.894 8.70229 140.432 11.0836C132.496 13.6164 124.676 19.184 121.64 29.8101L121.5 30.3002L121.416 30.803C119.542 42.0509 127.299 50.0127 132.671 54.3104L133.042 54.607L133.442 54.863C158.25 70.7402 177.971 84.9553 193.9 107.415C202.566 120.173 208.714 133.138 212.526 146.661C203.99 137.483 194.148 129.512 183.031 122.63L182.978 122.597L182.924 122.565C162.25 110.16 141.036 101.551 117.409 99.3472C98.4756 96.3655 78.6169 94.0213 58.4477 100.744L58.1968 100.828L57.9512 100.926C47.4575 105.124 35.2628 111.393 25.8294 120.397C16.2331 129.558 9.04661 142.053 10.3224 158L10.5088 160.33L11.8053 162.275C18.2537 171.948 28.0666 173.868 36.3121 173.393C42.434 173.039 49.0819 171.252 54.1084 169.9C55.202 169.606 56.2189 169.333 57.1369 169.099L57.16 169.096L57.1952 169.09L57.2303 169.084L57.2655 169.078L57.3007 169.072L57.3358 169.066L57.371 169.06L57.4061 169.055L57.4413 169.049L57.4764 169.043L57.5116 169.037L57.5467 169.031L57.5819 169.025L57.6171 169.019L57.6522 169.014L57.6874 169.008L57.7225 169.002L57.7577 168.996L57.7928 168.99L57.828 168.984L57.8632 168.978L57.8983 168.973L57.9335 168.967L57.9686 168.961L58.0038 168.955L58.0389 168.949L58.0741 168.943L58.1092 168.937L58.1444 168.932L58.1796 168.926L58.2147 168.92L58.2499 168.914L58.285 168.908L58.3202 168.902L58.3553 168.896L58.3905 168.891L58.4257 168.885L58.4608 168.879L58.496 168.873L58.5311 168.867L58.5663 168.861L58.6014 168.855L58.6366 168.85L58.6717 168.844L58.7069 168.838L58.7421 168.832L58.7772 168.826L58.8124 168.82L58.8475 168.814L58.8827 168.809L58.9178 168.803L58.953 168.797L58.9882 168.791L59.0233 168.785L59.0585 168.779L59.0936 168.773L59.1288 168.768L59.1639 168.762L59.1991 168.756L59.2342 168.75L59.2694 168.744L59.3046 168.738L59.3397 168.732L59.3749 168.727L59.41 168.721L59.4452 168.715L59.4803 168.709L59.5155 168.703L59.5507 168.697L59.5858 168.691L59.621 168.685L59.6561 168.68L59.6913 168.674L59.7264 168.668L59.7616 168.662L59.7967 168.656L59.8319 168.65L59.8671 168.644L59.9022 168.639L59.9374 168.633L59.9725 168.627L60.0077 168.621L60.0428 168.615L60.078 168.609L60.1132 168.603L60.1483 168.598L60.1835 168.592L60.2186 168.586L60.2538 168.58L60.2889 168.574L60.3241 168.568L60.3592 168.562L60.3944 168.557L60.4296 168.551L60.4647 168.545L60.4999 168.539L60.535 168.533L60.5702 168.527L60.6053 168.521L60.6405 168.516L60.6757 168.51L60.7108 168.504L60.746 168.498L60.7811 168.492L60.8163 168.486L60.8514 168.48L60.8866 168.475L60.9217 168.469L60.9569 168.463L60.9921 168.457L61.0272 168.451L61.0624 168.445L61.0975 168.439L61.1327 168.434L61.1678 168.428L61.203 168.422L61.2382 168.416L61.2733 168.41L61.3085 168.404L61.3436 168.398L61.3788 168.393L61.4139 168.387L61.4491 168.381L61.4842 168.375L61.5194 168.369L61.5546 168.363L61.5897 168.357L61.6249 168.352L61.66 168.346L61.6952 168.34L61.7303 168.334L61.7655 168.328L61.8007 168.322L61.8358 168.316L61.871 168.31L61.9061 168.305L61.9413 168.299L61.9764 168.293L62.0116 168.287L62.0467 168.281L62.0819 168.275L62.1171 168.269L62.1522 168.264L62.1874 168.258L62.2225 168.252L62.2577 168.246L62.2928 168.24L62.328 168.234L62.3632 168.228L62.3983 168.223L62.4335 168.217L62.4686 168.211L62.5038 168.205L62.5389 168.199L62.5741 168.193L62.6092 168.187L62.6444 168.182L62.6796 168.176L62.7147 168.17L62.7499 168.164L62.785 168.158L62.8202 168.152L62.8553 168.146L62.8905 168.141L62.9257 168.135L62.9608 168.129L62.996 168.123L63.0311 168.117L63.0663 168.111L63.1014 168.105L63.1366 168.1L63.1717 168.094L63.2069 168.088L63.2421 168.082L63.2772 168.076L63.3124 168.07L63.3475 168.064L63.3827 168.059L63.4178 168.053L63.453 168.047L63.4882 168.041L63.5233 168.035L63.5585 168.029L63.5936 168.023L63.6288 168.018L63.6639 168.012L63.6991 168.006L63.7342 168L63.7694 167.994L63.8046 167.988L63.8397 167.982L63.8749 167.977L63.91 167.971L63.9452 167.965L63.9803 167.959L64.0155 167.953L64.0507 167.947L64.0858 167.941L64.121 167.935L64.1561 167.93L64.1913 167.924L64.2264 167.918L64.2616 167.912L64.2967 167.906L64.3319 167.9L64.3671 167.894L64.4022 167.889L64.4374 167.883L64.4725 167.877L64.5077 167.871L64.5428 167.865L64.578 167.859L64.6132 167.853L64.6483 167.848L64.6835 167.842L64.7186 167.836L64.7538 167.83L64.7889 167.824L64.8241 167.818L64.8592 167.812L64.8944 167.807L64.9296 167.801L64.9647 167.795L64.9999 167.789L65.035 167.783L65.0702 167.777L65.1053 167.771L65.1405 167.766L65.1757 167.76L65.2108 167.754L65.246 167.748L65.2811 167.742L65.3163 167.736L65.3514 167.73L65.3866 167.725L65.4217 167.719L65.4569 167.713L65.4921 167.707L65.5272 167.701L65.5624 167.695L65.5975 167.689L65.6327 167.684L65.6678 167.678L65.703 167.672L65.7382 167.666L65.7733 167.66L65.8085 167.654L65.8436 167.648L65.8788 167.643L65.9139 167.637L65.9491 167.631L65.9842 167.625L66.0194 167.619L66.0546 167.613L66.0897 167.607L66.1249 167.602L66.16 167.596L66.1952 167.59L66.2303 167.584L66.2655 167.578L66.3007 167.572L66.3358 167.566L66.371 167.56L66.4061 167.555L66.4413 167.549L66.4764 167.543L66.5116 167.537L66.5467 167.531L66.5819 167.525L66.6171 167.519L66.6522 167.514L66.6874 167.508L66.7225 167.502L66.7577 167.496L66.7928 167.49L66.828 167.484L66.8632 167.478L66.8983 167.473L66.9335 167.467L66.9686 167.461L67.0038 167.455L67.0389 167.449L67.0741 167.443L67.1092 167.437L67.1444 167.432L67.1796 167.426L67.2147 167.42L67.2499 167.414L67.285 167.408L67.3202 167.402L67.3553 167.396L67.3905 167.391L67.4257 167.385L67.4608 167.379L67.496 167.373L67.5311 167.367L67.5663 167.361L67.6014 167.355L67.6366 167.35L67.6717 167.344L67.7069 167.338L67.7421 167.332L67.7772 167.326L67.8124 167.32L67.8475 167.314L67.8827 167.309L67.9178 167.303L67.953 167.297L67.9882 167.291L68.0233 167.285L68.0585 167.279L68.0936 167.273L68.1288 167.268L68.1639 167.262L68.1991 167.256L68.2342 167.25L68.2694 167.244L68.3046 167.238L68.3397 167.232L68.3749 167.227L68.41 167.221L68.4452 167.215L68.4803 167.209L68.5155 167.203L68.5507 167.197L68.5858 167.191L68.621 167.185L68.6561 167.18L68.6913 167.174L68.7264 167.168L68.7616 167.162L68.7967 167.156L68.8319 167.15L68.8671 167.144L68.9022 167.139L68.9374 167.133L68.9725 167.127L69.0077 167.121L69.0428 167.115L69.078 167.109L69.1132 167.103L69.1483 167.098L69.1835 167.092L69.2186 167.086L69.2538 167.08L69.2889 167.074L69.3241 167.068L69.3592 167.062L69.3944 167.057L69.4296 167.051L69.4647 167.045L69.4999 167.039L69.535 167.033L69.5702 167.027L69.6053 167.021L69.6405 167.016L69.6757 167.01L69.7108 167.004L69.746 166.998L69.7811 166.992L69.8163 166.986L69.8514 166.98L69.8866 166.975L69.9217 166.969L69.9569 166.963L69.9921 166.957L70.0272 166.951L70.0624 166.945L70.0975 166.939L70.1327 166.934L70.1678 166.928L70.203 166.922L70.2382 166.916L70.2733 166.91L70.3085 166.904L70.3436 166.898L70.3788 166.893L70.4139 166.887L70.4491 166.881L70.4842 166.875L70.5194 166.869L70.5546 166.863L70.5897 166.857L70.6249 166.852L70.66 166.846L70.6952 166.84L70.7303 166.834L70.7655 166.828L70.8007 166.822L70.8358 166.816L70.871 166.81L70.9061 166.805L70.9413 166.799L70.9764 166.793L71.0116 166.787L71.0467 166.781L71.0819 166.775L71.1171 166.769L71.1522 166.764L71.1874 166.758L71.2225 166.752L71.2577 166.746L71.2928 166.74L71.328 166.734L71.3632 166.728L71.3983 166.723L71.4335 166.717L71.4686 166.711L71.5038 166.705L71.5389 166.699L71.5741 166.693L71.6092 166.687L71.6444 166.682L71.6796 166.676L71.7147 166.67L71.7499 166.664L71.785 166.658L71.8202 166.652L71.8553 166.646L71.8905 166.641L71.9257 166.635L71.9608 166.629L71.996 166.623L72.0311 166.617L72.0663 166.611L72.1014 166.605L72.1366 166.6L72.1717 166.594L72.2069 166.588L72.2421 166.582L72.2772 166.576L72.3124 166.57L72.3475 166.564L72.3827 166.559L72.4178 166.553L72.453 166.547L72.4882 166.541L72.5233 166.535L72.5585 166.529L72.5936 166.523L72.6288 166.518L72.6639 166.512L72.6991 166.506L72.7342 166.5L72.7694 166.494L72.8046 166.488L72.8397 166.482L72.8749 166.477L72.91 166.471L72.9452 166.465L72.9803 166.459L73.0155 166.453L73.0507 166.447L73.0858 166.441L73.121 166.435L73.1561 166.43L73.1913 166.424L73.2264 166.418L73.2616 166.412L73.2967 166.406L73.3319 166.4L73.3671 166.394L73.4022 166.389L73.4374 166.383L73.4725 166.377L73.5077 166.371L73.5428 166.365L73.578 166.359L73.6132 166.353L73.6483 166.348L73.6835 166.342L73.7186 166.336L73.7538 166.33L73.7889 166.324L73.8241 166.318L73.8592 166.312L73.8944 166.307L73.9296 166.301L73.9647 166.295L73.9999 166.289L74.035 166.283L74.0702 166.277L74.1053 166.271L74.1405 166.266L74.1757 166.26L74.2108 166.254L74.246 166.248L74.2811 166.242L74.3163 166.236L74.3514 166.23L74.3866 166.225L74.4217 166.219L74.4569 166.213L74.4921 166.207L74.5272 166.201L74.5624 166.195L74.5975 166.189L74.6327 166.184L74.6678 166.178L74.6684 166.178C94.1652 163.408 113.805 165.234 133.692 170.899C142.459 173.698 150.897 177.346 158.935 181.775C105.743 179.88 53.3611 207.519 22.8611 253.206C15.0206 264.441 9.62684 278.794 9.05106 293.044C8.46814 307.471 12.8663 322.431 25.4649 333.14L27.6907 335.032L30.6034 335.256C40.7589 336.037 48.24 331.125 53.467 325.582C57.8935 320.887 61.4155 314.96 64.0828 310.471C64.3806 309.969 64.6677 309.486 64.9443 309.025C79.9506 285.614 99.4823 266.934 123.562 253.749C123.953 253.724 124.447 253.675 124.997 253.575C126.067 253.38 127.534 252.956 129.006 251.991C134.992 249.042 140.637 246.839 146.813 244.858C137.995 253.205 130.308 262.777 123.641 273.545L123.551 273.691L123.467 273.84C101.883 311.868 88.5804 358.695 104.774 403.189C108.208 413.943 115.225 426.062 124.796 434.617C134.529 443.319 148.18 449.264 163.369 443.741L163.607 443.654L163.839 443.555C171.557 440.247 174.079 433.132 174.624 427.678C175.148 422.436 174.139 417.062 173.024 413.081C169.081 395.303 166.361 379.412 167.278 363.811L167.294 363.547V363.283C167.294 355.319 167.303 348.909 168.194 341.646C169.568 334.163 171.384 327.83 173.462 320.58C174.237 317.874 175.049 315.04 175.889 311.971C176.025 311.623 176.269 311.17 176.782 310.4C176.931 310.176 177.086 309.95 177.273 309.677L177.297 309.643C177.468 309.394 177.674 309.094 177.876 308.79C178.162 308.361 178.516 307.815 178.873 307.188C179.929 305.652 180.383 304.102 180.586 302.986C180.673 302.509 180.721 302.073 180.749 301.711C181.586 300.343 182.402 298.996 183.204 297.673C181.217 351.145 208.191 404.031 254.301 434.771L254.438 434.862L254.577 434.947C268.896 443.759 284.908 448.506 302.327 446.224C303.009 446.157 303.77 446.092 304.59 446.022C308.805 445.66 314.606 445.162 319.504 443.615C322.674 442.614 326.162 441 329.126 438.204C332.136 435.365 334.202 431.681 335.079 427.259C336.463 421.8 336.052 416.646 334.038 411.991C332.07 407.441 328.843 403.991 325.664 401.355C322.49 398.723 318.912 396.539 315.755 394.712C314.644 394.069 313.611 393.484 312.636 392.931C310.662 391.813 308.922 390.827 307.243 389.764C286.295 375.462 270.377 359.483 258.201 338.973C253.445 329.441 249.619 320.839 245.79 311.29C245.56 310.529 245.34 309.764 245.131 308.994C281.128 346.43 331.805 362.352 382.026 358.253L382.108 358.246L382.189 358.238C404.562 356.001 423.758 345.829 438.279 327.958L438.63 327.525L438.926 327.053C439.279 326.487 439.682 325.861 440.119 325.183C442.247 321.88 445.16 317.356 446.856 312.791C449.149 306.617 449.851 298.894 444.782 291.29L444.288 290.549L443.658 289.919L443.652 289.913L443.646 289.907L443.64 289.901L443.634 289.895L443.628 289.889L443.622 289.883L443.617 289.878L443.611 289.872L443.605 289.866L443.599 289.86L443.593 289.854L443.587 289.848L443.581 289.842L443.576 289.837L443.57 289.831L443.564 289.825L443.558 289.819L443.552 289.813L443.546 289.807L443.54 289.801L443.535 289.796L443.529 289.79L443.523 289.784L443.517 289.778L443.511 289.772L443.505 289.766L443.499 289.76L443.494 289.755L443.488 289.749L443.482 289.743L443.476 289.737L443.47 289.731L443.464 289.725L443.458 289.719L443.453 289.714L443.447 289.708L443.441 289.702L443.435 289.696L443.429 289.69L443.423 289.684L443.417 289.678L443.412 289.673L443.406 289.667L443.4 289.661L443.394 289.655L443.388 289.649L443.382 289.643L443.376 289.637L443.371 289.632L443.365 289.626L443.359 289.62L443.353 289.614L443.347 289.608L443.341 289.602L443.335 289.596L443.33 289.59L443.324 289.585L443.318 289.579L443.312 289.573L443.306 289.567L443.3 289.561L443.294 289.555L443.289 289.549L443.283 289.544L443.277 289.538L443.271 289.532L443.265 289.526L443.259 289.52L443.253 289.514L443.247 289.508L443.242 289.503L443.236 289.497L443.23 289.491L443.224 289.485L443.218 289.479L443.212 289.473L443.206 289.467L443.201 289.462L443.195 289.456L443.189 289.45L443.183 289.444L443.177 289.438L443.171 289.432L443.165 289.426L443.16 289.421L443.154 289.415L443.148 289.409L443.142 289.403L443.136 289.397L443.13 289.391L443.124 289.385L443.119 289.38L443.113 289.374L443.107 289.368L443.101 289.362L443.095 289.356L443.089 289.35L443.083 289.344L443.078 289.339L443.072 289.333L443.066 289.327L443.06 289.321L443.054 289.315L443.048 289.309L443.042 289.303L443.037 289.298L443.031 289.292L443.025 289.286L443.019 289.28L443.013 289.274L443.007 289.268L443.001 289.262L442.996 289.257L442.99 289.251L442.984 289.245L442.978 289.239L442.972 289.233L442.966 289.227L442.96 289.221L442.955 289.215L442.949 289.21L442.943 289.204L442.937 289.198L442.931 289.192L442.925 289.186L442.919 289.18L442.914 289.174L442.908 289.169L442.902 289.163L442.896 289.157L442.89 289.151L442.884 289.145L442.878 289.139L442.872 289.133L442.867 289.128L442.861 289.122L442.855 289.116L442.849 289.11L442.843 289.104L442.837 289.098L442.831 289.092L442.826 289.087L442.82 289.081L442.814 289.075L442.808 289.069L442.802 289.063L442.796 289.057L442.79 289.051L442.785 289.046L442.779 289.04L442.773 289.034L442.767 289.028L442.761 289.022L442.755 289.016L442.749 289.01L442.744 289.005L442.738 288.999L442.732 288.993L442.726 288.987L442.72 288.981L442.714 288.975L442.708 288.969L442.703 288.964L442.697 288.958L442.691 288.952L442.685 288.946L442.679 288.94L442.673 288.934L442.667 288.928L442.662 288.923L442.656 288.917L442.65 288.911L442.644 288.905L442.638 288.899L442.632 288.893L442.626 288.887L442.621 288.882L442.615 288.876L442.609 288.87L442.603 288.864L442.597 288.858L442.591 288.852L442.585 288.846L442.58 288.84L442.574 288.835L442.568 288.829L442.562 288.823L442.556 288.817L442.55 288.811L442.544 288.805L442.539 288.799L442.533 288.794L442.527 288.788L442.521 288.782L442.515 288.776L442.509 288.77L442.503 288.764L442.497 288.758L442.492 288.753L442.486 288.747L442.48 288.741L442.474 288.735L442.468 288.729L442.462 288.723L442.456 288.717L442.451 288.712L442.445 288.706L442.439 288.7L442.433 288.694L442.427 288.688L442.421 288.682L442.415 288.676L442.41 288.671L442.404 288.665L442.398 288.659L442.392 288.653L442.386 288.647L442.38 288.641L442.374 288.635L442.369 288.63L442.363 288.624L442.357 288.618L442.351 288.612L442.345 288.606L442.339 288.6L442.333 288.594L442.328 288.589L442.322 288.583L442.316 288.577L442.31 288.571L442.304 288.565L442.298 288.559L442.292 288.553L442.287 288.548L442.281 288.542L442.275 288.536L442.269 288.53L442.263 288.524L442.257 288.518L442.251 288.512L442.246 288.507L442.24 288.501L442.234 288.495L442.228 288.489L442.222 288.483L442.216 288.477L442.21 288.471L442.205 288.465L442.199 288.46L442.193 288.454L442.187 288.448L442.181 288.442L442.175 288.436L442.169 288.43L442.164 288.424L442.158 288.419L442.152 288.413L442.146 288.407L442.14 288.401L442.134 288.395L442.128 288.389L442.122 288.383L442.117 288.378L442.111 288.372L442.105 288.366L442.099 288.36L442.093 288.354L442.087 288.348L442.081 288.342L442.076 288.337L442.07 288.331L442.064 288.325L442.058 288.319L442.052 288.313L442.046 288.307L442.04 288.301L442.035 288.296L442.029 288.29L442.023 288.284L442.017 288.278L442.011 288.272L442.005 288.266L441.999 288.26L441.994 288.255L441.988 288.249L441.982 288.243L441.976 288.237L441.97 288.231L441.964 288.225L441.958 288.219L441.953 288.214L441.947 288.208L441.941 288.202L441.935 288.196L441.929 288.19L441.923 288.184L441.917 288.178L441.912 288.173L441.906 288.167L441.9 288.161L441.894 288.155L441.888 288.149L441.882 288.143L441.876 288.137L441.871 288.132L441.865 288.126L441.859 288.12L441.853 288.114L441.847 288.108L441.841 288.102L441.835 288.096L441.83 288.09L441.824 288.085L441.818 288.079L441.812 288.073L441.806 288.067L441.8 288.061L441.794 288.055L441.789 288.049L441.783 288.044L441.777 288.038L441.771 288.032L441.765 288.026L441.759 288.02L441.753 288.014L441.747 288.008L441.742 288.003L441.736 287.997L441.73 287.991L441.724 287.985L441.718 287.979L441.712 287.973L441.706 287.967L441.701 287.962L441.695 287.956L441.689 287.95L441.683 287.944L441.677 287.938L441.671 287.932L441.665 287.926L441.66 287.921L441.654 287.915L441.648 287.909L441.642 287.903L441.636 287.897L441.63 287.891L441.624 287.885L441.619 287.88L441.613 287.874L441.607 287.868L441.601 287.862L441.595 287.856L441.589 287.85L441.583 287.844L441.578 287.839L441.572 287.833L441.566 287.827L441.56 287.821L441.554 287.815L441.548 287.809L441.542 287.803L441.537 287.798L441.531 287.792L441.525 287.786L441.519 287.78L441.513 287.774L441.507 287.768L441.501 287.762L441.496 287.757L441.49 287.751L441.484 287.745L441.478 287.739L441.472 287.733L441.466 287.727L441.46 287.721L441.455 287.715L441.449 287.71L441.443 287.704L441.437 287.698L441.431 287.692L441.425 287.686L441.419 287.68L441.414 287.674L441.408 287.669L441.402 287.663L441.396 287.657L441.39 287.651L441.384 287.645L441.378 287.639L441.372 287.633L441.367 287.628L441.361 287.622L441.355 287.616L441.349 287.61L441.343 287.604L441.337 287.598L441.331 287.592L441.326 287.587L441.32 287.581L441.314 287.575L441.308 287.569L441.302 287.563L441.296 287.557L441.29 287.551L441.285 287.546L441.279 287.54L441.273 287.534L441.267 287.528L441.261 287.522L441.255 287.516L441.249 287.51L441.244 287.505L441.238 287.499L441.232 287.493L441.226 287.487L441.22 287.481L441.214 287.475L441.208 287.469L441.203 287.464L441.197 287.458L441.191 287.452L441.185 287.446L441.179 287.44L441.173 287.434L441.167 287.428L441.162 287.423L441.156 287.417L441.15 287.411L441.144 287.405L441.138 287.399L441.132 287.393L441.126 287.387L441.121 287.382L441.115 287.376L441.109 287.37L441.103 287.364L441.097 287.358L441.091 287.352L441.085 287.346L441.08 287.34L441.074 287.335L441.068 287.329L441.062 287.323L441.056 287.317L441.05 287.311L441.044 287.305L441.039 287.299L441.033 287.294L441.027 287.288L441.021 287.282L441.015 287.276L441.009 287.27L441.003 287.264L440.997 287.258L440.992 287.253L440.986 287.247L440.98 287.241L440.974 287.235L440.968 287.229L440.962 287.223L440.956 287.217L440.951 287.212L440.945 287.206L440.939 287.2L440.933 287.194L440.927 287.188L440.921 287.182L440.915 287.176L440.91 287.171L440.904 287.165L440.898 287.159L440.892 287.153L440.886 287.147L440.88 287.141L440.874 287.135L440.869 287.13L440.863 287.124L440.857 287.118L440.851 287.112L440.845 287.106L440.839 287.1L440.833 287.094L440.828 287.089L440.822 287.083L440.816 287.077L440.81 287.071L440.804 287.065L440.798 287.059L440.792 287.053L440.787 287.048L440.781 287.042L440.775 287.036L440.769 287.03L440.763 287.024L440.757 287.018L440.751 287.012L440.746 287.007L440.74 287.001L440.734 286.995L440.728 286.989L440.722 286.983L440.716 286.977L440.71 286.971L440.705 286.965L440.699 286.96L440.693 286.954L440.687 286.948L440.681 286.942L440.675 286.936L440.669 286.93L440.664 286.924L440.658 286.919L439.805 286.066L438.759 285.468C429.713 280.299 420.135 281.975 414.332 282.99C413.475 283.14 412.7 283.276 412.021 283.373Z" fill="#DE7CBD" stroke="black" stroke-width="18"/>
</svg>
