<svg width="239" height="185" viewBox="0 0 239 185" fill="none" xmlns="http://www.w3.org/2000/svg">
<path d="M96 2.90359C92.5333 4.77025 88.4 8.37025 86 11.7036C82.5333 16.7703 82 18.9036 81.4667 28.1036C81.0667 37.8369 81.3333 39.5703 85.2 47.3036C92.6667 62.3703 108.267 72.9036 129.467 76.9036C135.6 78.1036 140.8 79.1703 141.067 79.3036C141.733 79.8369 135.6 96.9036 132.667 102.637C122 123.57 100.267 141.97 82.6667 144.77C77.3333 145.704 77.0667 145.57 78 142.77C79.7333 137.17 79.0667 121.837 76.8 114.904C74.1333 107.17 66.1333 98.1036 59.3333 95.1703C38.6667 86.6369 26.4 107.97 39.3333 130.104C43.7333 137.57 53.2 145.97 59.4667 147.837C62.2667 148.77 65.4667 149.704 66.4 150.104C70.4 151.304 56.5333 169.037 46.4 175.437C33.4667 183.57 22.4 182.504 11.7333 171.837C5.46667 165.57 0 163.304 0 167.17C0 170.904 10.2667 179.704 18.1333 182.637C36.4 189.437 58.8 179.437 70.6667 158.904C75.2 151.17 75.6 150.904 82.8 149.437C93.2 147.304 107.333 140.237 116.933 132.237C130.133 121.17 142.667 101.57 146.8 85.1703C148.4 78.9036 148.667 78.6369 153.2 78.6369C160.267 78.5036 180 73.9703 189.333 70.2369C208.8 62.3703 226.267 47.5703 234.4 32.5036C236.667 27.9703 238.667 23.8369 238.667 23.4369C238.667 23.0369 237.2 22.6369 235.467 22.6369C233.067 22.6369 231.2 24.5036 227.2 31.4369C220.933 42.1036 207.2 55.4369 195.733 61.7036C185.067 67.7036 169.6 72.7703 158.267 73.9703L149.467 74.9036L150.267 65.1703C152.133 39.7036 138.8 10.1036 122 2.50359C114.4 -0.963079 103.333 -0.829746 96 2.90359ZM118.267 6.77025C127.467 11.1703 136.533 25.0369 140.667 40.9036C142.933 49.3036 143.333 72.6369 141.467 73.9703C139.2 75.3036 122 71.0369 114.667 67.3036C101.067 60.3703 89.6 46.5036 87.4667 34.2369C86.1333 26.9036 89.6 16.2369 94.9333 11.0369C102.667 3.57025 109.067 2.37025 118.267 6.77025ZM59.7333 101.304C62.8 103.437 66.5333 107.837 68.1333 110.904C71.4667 117.437 72.9333 132.637 71.0667 139.97C70 143.97 69.2 144.637 66 144.37C56.8 143.704 45.4667 131.17 42.8 118.77C40.5333 107.97 44.6667 97.3036 51.3333 97.3036C52.9333 97.3036 56.8 99.0369 59.7333 101.304Z" fill="black"/>
</svg>
