<svg width="526" height="175" viewBox="0 0 526 175" fill="none" xmlns="http://www.w3.org/2000/svg">
<path d="M245.834 1.36609C213.567 4.83276 177.567 20.1661 112.5 58.0327C66.7669 84.6994 53.1669 90.5661 38.1002 90.5661C24.1002 90.5661 11.5669 82.0327 8.50023 70.2994C5.83356 60.4327 4.63356 58.2994 2.10023 58.8327C-1.36644 59.6327 -0.433108 69.2327 4.10023 77.4994C13.7002 95.3661 33.4336 100.033 60.3669 91.0994C72.2336 87.0994 97.3002 74.4327 121.167 60.4327C187.967 21.2327 216.767 9.36609 253.167 5.89942C284.234 2.96609 317.034 19.0994 336.767 47.0994C342.5 55.4994 343.034 56.6994 341.167 57.8994C310.5 76.2994 289.034 99.4994 277.567 126.433C274.1 134.833 273.3 138.299 273.3 147.233C273.167 160.299 276.1 166.966 283.967 171.633C288.5 174.299 290.634 174.566 299.3 174.166C326.767 172.833 350.9 148.433 358.634 114.299C362.234 98.5661 360.1 77.3661 353.3 61.0994C351.967 58.1661 365.167 52.9661 383.434 49.0994C401.567 45.3661 431.3 46.0327 447.834 50.5661C468.1 56.0327 488.5 66.2994 500.5 76.9661L506.5 82.2994L493.3 81.6327C482.367 80.9661 480.234 81.0994 480.767 82.6994C481.167 83.8994 484.634 84.8327 491.3 85.4994C496.767 86.0327 503.7 86.9661 506.9 87.7661C509.967 88.5661 515.034 89.8994 518.1 90.5661C527.567 92.9661 527.567 92.4327 521.167 73.3661C517.967 63.7661 515.7 55.8994 516.1 55.8994C516.5 55.8994 516.1 54.9661 515.167 53.8994C513.434 51.7661 507.167 51.0994 507.167 52.9661C507.167 53.4994 509.3 60.2994 511.834 67.8994C514.367 75.4994 516.5 82.0327 516.5 82.2994C516.5 82.6994 513.034 79.6327 508.767 75.6327C490.234 57.8994 463.967 46.5661 432.5 42.6994C408.767 39.6327 384.367 42.0327 362.1 49.3661C355.167 51.6327 349.434 53.2327 349.3 52.9661C331.834 27.2327 315.567 13.7661 292.5 5.89942C283.834 2.96609 263.7 -0.367242 257.834 0.0327578C256.767 0.166091 251.3 0.699424 245.834 1.36609ZM349.7 73.3661C354.367 87.8994 354.234 106.033 349.3 120.566C344.367 134.833 339.167 143.766 329.434 154.166C307.567 177.499 280.5 175.366 280.5 150.433C280.5 130.699 294.1 104.833 314.9 84.9661C325.434 74.9661 342.767 62.2994 345.167 63.0994C345.834 63.2327 347.834 67.8994 349.7 73.3661Z" fill="black"/>
</svg>
