<svg width="212" height="214" viewBox="0 0 212 214" fill="none" xmlns="http://www.w3.org/2000/svg">
<path d="M115.133 1.0156C114.333 2.34893 109.133 24.4823 109 26.8823C109 27.5489 110.6 27.8156 112.6 27.5489C115.933 27.1489 116.333 26.3489 118.6 16.4823C122.067 1.0156 122.067 0.615601 118.733 0.0822678C117.267 -0.184399 115.533 0.215601 115.133 1.0156Z" fill="black"/>
<path d="M49 8.48218C49 9.01551 51.8 14.0822 55.2667 19.9488C60.2 27.9488 62.3333 30.4822 64.6 30.4822C66.2 30.4822 67.8 30.0822 68.0667 29.4155C68.4667 28.8822 65.9333 23.9488 62.4667 18.4822C57.5333 10.4822 55.5333 8.34884 52.6 8.08218C50.6 7.81551 49 8.08218 49 8.48218Z" fill="black"/>
<path d="M158.6 37.1489C152.467 41.4156 147.533 45.4156 147.533 46.0823C147.533 46.6156 149 47.2823 150.6 47.5489C153.8 47.8156 174.333 33.9489 175.4 30.7489C176.6 26.8823 169 29.8156 158.6 37.1489Z" fill="black"/>
<path d="M87.7999 59.2823C75.6666 62.4823 67.3999 70.349 62.1999 83.4156C59.6666 89.8156 59.1333 93.6823 59.1333 106.482C58.9999 120.082 59.3999 122.616 62.3333 128.482C70.0666 144.216 84.8666 153.416 103 153.416C132.467 153.682 152.6 135.816 149.8 112.082C147.267 90.2156 126.333 76.749 104.867 82.8823C92.7333 86.4823 85.9333 95.549 85.9333 108.082C85.9333 114.082 86.5999 116.749 89.3999 121.016C97.2666 132.882 112.067 134.749 120.333 125.016C125.8 118.482 124.2 107.816 117.8 107.816C113.4 107.816 113 108.882 115.4 113.149C117.133 116.216 117.267 117.549 115.933 120.349C114.467 123.549 113.667 123.816 106.467 123.816C99.3999 123.816 98.4666 123.416 96.1999 120.216C93.1333 115.549 92.1999 105.016 94.3333 99.8156C98.0666 90.8823 111 83.949 120.067 85.949C126.6 87.2823 133.933 92.6156 137.933 98.6156C143.133 106.482 143.933 119.816 139.667 128.349C133.4 141.416 119.533 149.149 102.467 149.149C86.8666 149.149 76.3333 142.082 69.5333 127.149C63.5333 113.816 64.3333 95.949 71.5333 80.349C78.0666 66.2156 86.8666 61.949 107.4 62.6156C122.067 63.149 125.667 61.2823 114.333 58.8823C104.333 56.8823 96.3333 57.0156 87.7999 59.2823Z" fill="black"/>
<path d="M5 68.3489C5 71.2823 5.8 71.4156 23.4 72.4823C36.0667 73.1489 38.3333 73.0156 38.3333 71.2823C38.3333 68.3489 37.6667 68.2156 20.7333 67.1489C6.73333 66.3489 5 66.4823 5 68.3489Z" fill="black"/>
<path d="M192.6 71.9489C191.267 72.7489 185.667 74.2156 180.067 75.1489C169.533 77.0156 167.8 77.8156 169.8 79.8156C172.6 82.6156 201 75.9489 201 72.3489C201 70.0823 196.067 69.9489 192.6 71.9489Z" fill="black"/>
<path d="M177 132.482C175.8 133.949 176.2 134.749 179.4 136.349C187.133 140.349 203.8 146.482 207 146.482C211 146.482 212.733 144.082 209.4 143.016C206.467 142.082 189.933 135.549 183.4 132.616C179.267 130.882 178.333 130.882 177 132.482Z" fill="black"/>
<path d="M147 169.149C145.933 170.749 149 173.416 161.267 182.082C168.867 187.282 170.733 188.082 173.267 186.882C176.067 185.682 175.8 185.416 169.533 181.149C165.933 178.616 160.6 174.616 157.533 172.216C151.933 167.682 148.467 166.749 147 169.149Z" fill="black"/>
<path d="M59.8 196.616C56.3334 208.082 55.8 211.149 57.2667 211.949C59.6667 213.549 60.4667 213.416 61.9334 211.416C63.8 209.149 71.5334 184.082 70.6 183.149C70.2 182.749 68.6 182.482 67 182.482C64.4667 182.482 63.5334 184.349 59.8 196.616Z" fill="black"/>
<path d="M110.867 187.149C109.8 189.682 112.333 202.216 115.133 208.882C116.6 212.349 117.667 213.282 119.933 212.882C123.4 212.349 123.4 212.482 119.4 197.149C117.133 189.016 115.667 185.682 113.933 185.416C112.733 185.149 111.267 185.949 110.867 187.149Z" fill="black"/>
<path d="M25.6759 135.459C22.7426 136.792 16.2092 138.926 11.0092 140.259C0.742564 142.926 -1.9241 144.392 1.2759 145.592C5.54256 147.326 38.3426 137.059 38.3426 134.126C38.3426 132.126 31.4092 132.926 25.6759 135.459Z" fill="black"/>
</svg>
