<svg width="236" height="235" viewBox="0 0 236 235" fill="none" xmlns="http://www.w3.org/2000/svg">
<path d="M123.823 4.66676C119.023 10.1334 112.757 22.0001 113.957 23.2001C116.09 25.3334 120.757 23.8668 121.557 20.8001C121.957 19.0668 125.023 14.0001 128.357 9.46676C131.69 5.06676 134.357 1.06676 134.357 0.666761C134.357 0.266761 132.89 9.43592e-05 131.157 9.43592e-05C129.157 9.43592e-05 126.357 1.73343 123.823 4.66676Z" fill="black"/>
<path d="M142.49 25.3333C137.29 29.8667 133.023 34.1333 133.023 34.8C133.023 35.4667 134.357 36 136.09 36C139.157 36 156.357 22 156.357 19.4667C156.357 15.7333 151.157 18 142.49 25.3333Z" fill="black"/>
<path d="M74.2234 41.4667C71.4234 44.2667 71.29 45.0667 72.09 62.5333C72.6234 72.5333 73.4234 84.9333 73.8234 90.1333L74.7567 99.7333L55.0234 109.467C33.5567 120.133 26.3567 125.6 26.3567 131.067C26.3567 137.467 33.1567 140 59.4234 143.733C69.1567 145.2 77.4234 146.533 77.5567 146.8C77.8234 147.067 79.1567 155.333 80.3567 165.2C83.1567 187.2 85.5567 197.067 89.29 200.933C98.6234 210.8 107.557 203.067 125.29 170L132.357 156.667L143.69 159.6C158.89 163.733 176.223 166.667 184.49 166.667C192.49 166.667 196.09 163.867 194.757 158.667C193.823 154.533 178.89 133.467 167.69 120.133L159.423 110.267L165.423 97.4667C174.89 77.4667 176.89 66.6667 171.69 62C167.29 58 158.623 60.2667 140.223 69.8667L123.957 78.5333L106.89 61.2C85.4234 39.4667 79.69 36 74.2234 41.4667ZM103.69 67.2C113.557 77.2 122.223 85.3333 123.023 85.3333C123.823 85.3333 128.757 82.6667 133.957 79.4667C152.49 67.8667 163.69 63.2 166.223 65.7333C169.023 68.5333 167.69 74 159.69 92.5333L151.823 111.2L156.757 117.067C177.823 142.4 188.357 157.467 187.157 160.8C185.957 164 174.357 162.667 151.023 156.533C140.757 153.867 131.157 151.6 129.69 151.467C127.557 151.333 125.023 155.2 117.023 170.4C107.557 188.667 99.8234 200 96.89 200C93.4234 200 88.3567 178.267 86.89 156.667C86.3567 149.6 85.29 143.467 84.49 143.067C83.69 142.533 76.2234 141.467 67.69 140.533C47.69 138.4 38.6234 136.267 35.4234 133.067C32.89 130.533 32.89 130.267 35.1567 127.867C38.3567 124.267 55.5567 114.533 70.2234 107.733L82.6234 102.133L81.8234 95.3333C80.3567 83.6 79.29 53.8667 80.2234 50.1333C81.4234 45.2 82.6234 46 103.69 67.2Z" fill="black"/>
<path d="M13.0234 45.6001C13.0234 49.7335 37.4234 59.6001 41.1568 57.2001C42.7568 56.1335 42.6234 55.6001 40.4901 54.0001C39.0234 52.9335 37.0234 52.0001 36.0901 52.0001C35.0234 52.0001 30.7568 50.1335 26.3568 48.0001C17.9568 43.7335 13.0234 42.9335 13.0234 45.6001Z" fill="black"/>
<path d="M0.356722 69.3334C-0.576611 70.9334 -0.843278 70.8 15.0234 75.3334C27.5567 78.8 34.3567 79.6 34.3567 77.3334C34.3567 76.5334 34.2234 76 33.9567 76C33.8234 76 27.4234 74.1334 19.6901 72C4.62339 67.7334 1.69006 67.3334 0.356722 69.3334Z" fill="black"/>
<path d="M200.49 106.534C199.957 107.334 199.823 108.534 200.223 109.2C201.29 110.8 230.757 114 233.823 112.8C238.09 111.2 233.823 109.334 222.89 108C217.157 107.334 209.823 106.4 206.89 106C203.29 105.334 201.023 105.6 200.49 106.534Z" fill="black"/>
<path d="M193.023 132.533C193.023 134.667 215.557 145.333 220.223 145.333C225.69 145.333 224.357 142.8 217.423 139.867C213.823 138.4 208.09 135.733 204.623 134C197.423 130.267 193.023 129.733 193.023 132.533Z" fill="black"/>
<path d="M27.2901 170.267C18.2234 176.8 16.2234 180 21.1567 180C24.3567 180 39.9567 168.133 39.2901 166.133C38.3567 163.333 35.8234 164.133 27.2901 170.267Z" fill="black"/>
<path d="M43.2901 192C38.6234 196.133 34.0901 203.733 35.1567 205.6C36.4901 207.733 41.0234 206.533 42.4901 203.6C43.2901 202 46.0901 198.533 48.6234 195.733C56.0901 188 51.4234 184.8 43.2901 192Z" fill="black"/>
<path d="M149.823 203.867C148.09 206.533 161.69 221.333 165.823 221.333C169.29 221.333 169.423 218.267 166.09 215.467C164.357 213.867 161.157 210.4 159.023 207.6C155.557 202.933 151.423 201.2 149.823 203.867Z" fill="black"/>
<path d="M125.957 208.8C124.49 210.267 124.89 222.133 126.49 228.8C127.823 233.733 128.49 234.667 131.157 234.667C134.757 234.667 134.757 235.067 132.623 220C131.423 212 130.357 208.533 128.89 208.267C127.823 208.133 126.49 208.267 125.957 208.8Z" fill="black"/>
</svg>
