<svg width="438" height="438" viewBox="0 0 438 438" fill="none" xmlns="http://www.w3.org/2000/svg">
<path d="M374.5 166.5C363.599 166.5 335.77 169.894 306.816 175.409C287.14 179.157 266.045 184.046 248.805 189.86C254.723 172.637 259.693 151.37 263.501 131.521C269.129 102.189 272.6 73.8571 272.6 62.9C272.6 33.1294 248.471 9 218.7 9C188.929 9 164.8 33.1294 164.8 62.9C164.8 73.906 168.27 102.262 173.899 131.596C177.703 151.424 182.667 172.66 188.58 189.855C171.342 184.043 150.254 179.156 130.584 175.409C101.63 169.894 73.8013 166.5 62.9 166.5C33.1294 166.5 9 190.629 9 220.4C9 250.171 33.1294 274.3 62.9 274.3C73.5402 274.3 100.386 271.059 128.608 265.771C148.414 262.059 169.741 257.189 187.247 251.393C181.561 268.902 176.781 290.039 173.139 309.644C167.964 337.5 164.8 363.866 164.8 374.4C164.8 404.171 188.929 428.3 218.7 428.3C248.471 428.3 272.6 404.171 272.6 374.4C272.6 363.861 269.41 337.49 264.223 309.64C260.57 290.028 255.786 268.887 250.117 251.381C267.63 257.182 288.972 262.057 308.792 265.771C337.014 271.059 363.86 274.3 374.5 274.3C404.271 274.3 428.4 250.171 428.4 220.4C428.4 190.629 404.271 166.5 374.5 166.5Z" fill="#3300FF" stroke="black" stroke-width="18"/>
</svg>
