<svg width="556" height="556" viewBox="0 0 556 556" fill="none" xmlns="http://www.w3.org/2000/svg">
<path d="M313.281 162.626L313.28 162.622L286.98 66.622L278.3 34.9378L269.62 66.622L243.32 162.622L243.319 162.626C237.886 182.491 229.22 201.15 217.835 217.939C201.075 229.275 182.452 237.897 162.626 243.319L162.622 243.32L66.622 269.62L34.9378 278.3L66.622 286.981L162.622 313.281L162.626 313.282C182.49 318.715 201.15 327.38 217.938 338.765C229.274 355.524 237.896 374.148 243.319 393.974L243.32 393.978L269.62 489.978L278.3 521.662L286.98 489.978L313.28 393.978L313.281 393.974C318.707 374.134 327.358 355.496 338.722 338.724C355.495 327.359 374.133 318.708 393.974 313.282L393.978 313.281L489.978 286.981L521.662 278.3L489.978 269.62L393.978 243.32L393.974 243.319C374.134 237.893 355.495 229.242 338.723 217.877C327.358 201.105 318.707 182.466 313.281 162.626Z" fill="#FFCE00" stroke="black" stroke-width="18"/>
</svg>
