<svg width="708" height="708" viewBox="0 0 708 708" fill="none" xmlns="http://www.w3.org/2000/svg">
<g clip-path="url(#clip0_434_33)">
<mask id="mask0_434_33" style="mask-type:luminance" maskUnits="userSpaceOnUse" x="522" y="-213" width="398" height="398">
<path d="M580.888 -154.502C503.369 -76.9832 503.369 48.7 580.888 126.219C658.407 203.738 784.09 203.738 861.609 126.219C939.128 48.7 939.128 -76.9832 861.609 -154.502C784.09 -232.021 658.407 -232.021 580.888 -154.502Z" fill="white"/>
</mask>
<g mask="url(#mask0_434_33)">
<path d="M973.756 -121.834C974.039 -68.9428 959.826 -16.2634 933.734 29.7693C920.653 52.8917 904.531 74.3877 885.863 93.1967C881.267 97.7929 876.6 102.318 871.721 106.632C867.054 110.733 860.902 116.461 854.75 111.582C849.305 107.268 848.669 99.8436 849.164 93.4089C849.73 86.3378 850.79 79.196 851.356 72.125C851.922 64.9125 852.205 57.7 852.346 50.4875C852.487 43.4164 852.912 35.7797 851.71 28.7793C850.72 23.2639 847.891 18.1727 842.517 15.91C837.426 13.7887 831.486 14.3543 826.537 16.6171C820.385 19.3748 815.93 24.6781 812.253 30.1935C808.152 36.4161 804.616 42.9215 800.939 49.4268C793.727 62.2962 786.868 75.2362 780.221 88.3884C753.563 141.209 731.219 196.081 707.955 250.457C684.62 305.187 660.437 359.635 630.173 410.971C626.425 417.264 622.607 423.628 618.647 429.85C617.162 432.184 622.041 432.82 623.173 430.982C654.993 380.353 680.307 326.188 703.995 271.529C727.754 216.658 750.028 161.15 776.049 107.268C782.484 94.0453 789.131 80.8931 796.06 67.8823C799.596 61.2355 803.273 54.5887 807.02 48.0126C810.768 41.4365 814.374 34.4362 818.9 28.3551C823.001 22.6982 829.224 17.3242 836.719 18.3141C844.285 19.2334 846.76 26.5166 847.255 33.0927C848.457 48.0126 847.396 63.4982 845.911 78.4182C844.78 89.7319 840.254 105.571 850.72 114.056C861.185 122.542 872.145 111.864 879.782 104.935C898.944 87.3278 915.774 67.1045 929.845 45.1135C958.2 0.777883 975.312 -50.8409 978.282 -103.45C978.635 -109.743 978.777 -116.107 978.777 -122.471C978.706 -124.804 973.827 -124.168 973.756 -121.834Z" fill="black"/>
</g>
<mask id="mask1_434_33" style="mask-type:luminance" maskUnits="userSpaceOnUse" x="522" y="-213" width="398" height="398">
<path d="M580.888 -154.502C503.369 -76.9832 503.369 48.7 580.888 126.219C658.407 203.738 784.09 203.738 861.609 126.219C939.128 48.7 939.128 -76.9832 861.609 -154.502C784.09 -232.021 658.407 -232.021 580.888 -154.502Z" fill="white"/>
</mask>
<g mask="url(#mask1_434_33)">
<path d="M971.422 -78.9126C954.31 -34.9305 936.633 10.1829 906.157 46.8817C902.48 51.2658 898.59 55.5792 894.631 59.6804C892.721 61.5896 890.812 64.2059 888.479 65.5494C885.65 67.105 883.6 65.0544 882.256 62.7209C876.953 53.4578 876.175 42.2148 875.044 31.7497C872.64 9.97077 866.205 -11.1717 854.962 -30.1929C850.649 -37.4761 844.214 -47.4463 834.527 -42.143C830.213 -39.8095 826.89 -35.6376 823.566 -32.0314C819.536 -27.5766 815.647 -23.1218 811.899 -18.5256C797.191 -0.423716 784.463 19.3753 773.22 39.8107C750.452 81.2471 733.764 125.653 716.369 169.494C698.833 213.618 680.448 257.741 654.144 297.48C650.962 302.359 647.638 307.097 644.173 311.835C643.537 312.754 643.113 314.027 643.184 315.087C643.113 315.441 643.183 317.067 643.891 316.219C671.68 278.106 691.408 235.043 709.157 191.556C727.259 147.291 743.381 102.177 765.018 59.4682C775.907 37.9722 788.07 17.1833 802.424 -2.26218C809.424 -11.6667 816.92 -20.8591 824.91 -29.4151C828.233 -33.0213 831.981 -37.4761 837.072 -38.6075C842.163 -39.7388 846.265 -36.3447 849.234 -32.5264C855.74 -23.8997 860.407 -13.4345 864.296 -3.46427C868.326 7.07162 871.225 18.1732 872.71 29.4162C874.195 39.8107 874.407 50.488 877.943 60.5289C879.004 63.7109 881.125 70.6405 885.226 71.0648C887.347 71.2062 888.903 69.5092 890.388 68.1657C892.439 66.115 894.419 64.1351 896.469 62.0845C928.996 27.8606 948.441 -16.1922 965.624 -59.5378C967.816 -65.124 969.938 -70.6394 972.13 -76.2255C972.412 -76.9327 973.19 -78.9833 972.695 -79.6197C971.917 -80.2561 971.635 -79.6904 971.422 -78.9126Z" fill="black"/>
</g>
<mask id="mask2_434_33" style="mask-type:luminance" maskUnits="userSpaceOnUse" x="522" y="-213" width="398" height="398">
<path d="M580.888 -154.502C503.369 -76.9832 503.369 48.7 580.888 126.219C658.407 203.738 784.09 203.738 861.609 126.219C939.128 48.7 939.128 -76.9832 861.609 -154.502C784.09 -232.021 658.407 -232.021 580.888 -154.502Z" fill="white"/>
</mask>
<g mask="url(#mask2_434_33)">
<path d="M926.734 -67.1751C926.31 -48.5075 920.653 -29.9813 910.117 -14.4956C907.571 -10.8187 904.46 -7.0003 899.581 -9.33375C895.763 -11.0308 893.5 -15.2734 891.732 -18.8797C887.348 -27.6478 883.883 -36.9109 880.065 -45.9619C876.246 -54.73 872.074 -63.4274 866.347 -70.9934C861.397 -77.4988 854.821 -84.9235 845.77 -82.8021C838.345 -81.0344 832.476 -75.1654 827.456 -69.7207C820.385 -62.0839 813.667 -54.0936 807.091 -45.9619C780.575 -12.94 758.301 23.3346 737.724 60.3163C716.794 97.9344 697.278 136.401 676.913 174.302C656.053 213.122 634.84 251.73 613.203 290.055C610.516 294.864 607.829 299.672 605.071 304.41C604.505 305.399 606.132 304.904 606.414 304.763C607.404 304.339 608.465 303.42 608.96 302.5C630.88 263.892 652.306 225.072 673.377 186.04C694.025 147.856 713.753 109.177 734.471 71.0643C754.907 33.5169 776.686 -3.39404 802.566 -37.3352C809.071 -45.8204 815.859 -54.1643 822.86 -62.1546C826.112 -65.8316 829.365 -69.65 832.83 -73.1148C835.517 -75.8018 838.699 -78.5595 842.517 -79.5494C852.205 -82.0243 859.771 -71.4884 864.438 -64.5588C869.812 -56.6392 873.701 -47.8004 877.378 -38.8908C881.055 -30.1227 884.166 -20.6475 889.186 -12.5157C891.025 -9.40446 893.783 -6.08105 897.53 -5.44466C901.137 -4.80826 904.672 -6.64673 907.43 -8.83877C913.864 -14.1421 918.178 -22.6981 921.501 -30.1227C925.249 -38.2544 927.936 -47.0225 929.35 -55.9321C930.057 -60.4576 930.481 -64.983 930.623 -69.6499C930.906 -70.6399 926.734 -68.5893 926.734 -67.1751Z" fill="black"/>
</g>
<mask id="mask3_434_33" style="mask-type:luminance" maskUnits="userSpaceOnUse" x="522" y="-213" width="398" height="398">
<path d="M580.888 -154.502C503.369 -76.9832 503.369 48.7 580.888 126.219C658.407 203.738 784.09 203.738 861.609 126.219C939.128 48.7 939.128 -76.9832 861.609 -154.502C784.09 -232.021 658.407 -232.021 580.888 -154.502Z" fill="white"/>
</mask>
<g mask="url(#mask3_434_33)">
<path d="M903.187 -149.553C902.621 -140.502 900.641 -131.592 897.459 -123.036C895.833 -118.723 893.924 -114.551 891.59 -110.52C890.53 -108.753 889.398 -106.914 887.843 -105.5C885.439 -103.379 883.459 -104.51 881.337 -106.349C877.66 -109.601 874.266 -113.278 870.802 -116.884C867.195 -120.491 863.518 -124.168 859.912 -127.774C853.972 -133.714 848.033 -142.057 838.77 -141.987C831.345 -141.916 825.405 -137.249 820.173 -132.582C812.395 -125.794 805.465 -118.016 799.101 -109.955C786.444 -93.9035 775.413 -76.3672 764.806 -58.831C743.593 -23.8999 724.925 12.4454 706.611 49.0028C687.732 86.6916 668.993 124.38 650.184 162.14C631.375 199.899 612.566 237.659 593.757 275.418C591.353 280.227 589.019 284.964 586.615 289.773C586.05 291.045 590.787 291.823 591.424 290.621C610.374 252.579 629.395 214.466 648.346 176.423C667.225 138.593 686.035 100.692 704.914 62.8621C723.299 25.9511 741.825 -10.8184 762.685 -46.3859C773.009 -64.0636 783.827 -81.5291 795.778 -98.2875C801.647 -106.561 807.869 -114.622 814.869 -122.046C818.405 -125.865 822.082 -129.4 826.042 -132.794C829.082 -135.411 832.476 -138.098 836.295 -139.512C841.315 -141.28 844.639 -138.098 848.033 -134.704C851.78 -130.956 855.528 -127.208 859.346 -123.39C862.953 -119.784 866.63 -116.107 870.236 -112.5C873.206 -109.531 876.176 -105.712 879.994 -103.732C882.822 -102.177 886.429 -101.682 889.54 -102.813C893.358 -104.227 895.409 -107.975 897.247 -111.369C901.349 -119.006 904.46 -127.208 906.369 -135.764C907.288 -140.219 907.925 -144.674 908.207 -149.199C908.278 -150.401 903.258 -150.755 903.187 -149.553Z" fill="black"/>
</g>
<mask id="mask4_434_33" style="mask-type:luminance" maskUnits="userSpaceOnUse" x="522" y="-213" width="398" height="398">
<path d="M580.888 -154.502C503.369 -76.9832 503.369 48.7 580.888 126.219C658.407 203.738 784.09 203.738 861.609 126.219C939.128 48.7 939.128 -76.9832 861.609 -154.502C784.09 -232.021 658.407 -232.021 580.888 -154.502Z" fill="white"/>
</mask>
<g mask="url(#mask4_434_33)">
<path d="M878.297 -195.231C876.741 -186.888 875.185 -177.554 868.892 -171.402C862.882 -165.533 855.316 -165.179 847.962 -168.715C841.739 -171.685 835.729 -176.14 828.587 -175.927C820.314 -175.574 812.465 -170.271 806.101 -165.462C791.535 -154.573 780.433 -139.794 770.251 -124.945C759.927 -109.813 750.452 -94.1152 741.754 -77.9225C724.289 -45.6077 709.793 -11.8787 695.792 22.0625C681.297 56.9228 667.225 91.9246 651.457 126.219C635.476 161.15 618.364 195.516 600.262 229.315C598 233.558 595.666 237.73 593.474 241.902C591.989 244.518 594.605 246.003 596.02 243.316C614.687 209.375 632.153 174.798 648.487 139.796C664.468 105.43 679.034 70.4993 693.53 35.4975C707.743 1.06138 722.026 -33.304 739.067 -66.4673C747.482 -82.8015 756.604 -98.8528 766.645 -114.268C776.827 -129.966 787.858 -145.946 802.212 -158.179C805.818 -161.22 809.566 -163.977 813.667 -166.382C817.486 -168.644 821.516 -170.836 826.042 -171.261C833.608 -172.038 839.901 -167.018 846.406 -164.048C852.982 -161.007 859.841 -160.795 866.064 -164.897C872.781 -169.21 876.741 -176.281 879.075 -183.706C880.347 -187.807 881.196 -192.05 881.903 -196.292C882.044 -197.282 881.691 -198.201 880.559 -198.06C879.287 -197.777 878.509 -196.292 878.297 -195.231Z" fill="black"/>
</g>
<mask id="mask5_434_33" style="mask-type:luminance" maskUnits="userSpaceOnUse" x="522" y="-213" width="398" height="398">
<path d="M580.888 -154.502C503.369 -76.9832 503.369 48.7 580.888 126.219C658.407 203.738 784.09 203.738 861.609 126.219C939.128 48.7 939.128 -76.9832 861.609 -154.502C784.09 -232.021 658.407 -232.021 580.888 -154.502Z" fill="white"/>
</mask>
<g mask="url(#mask5_434_33)">
<path d="M841.81 -201.879C828.304 -207.748 812.819 -206.121 799.667 -200.323C783.474 -193.181 770.463 -180.312 758.867 -167.16C735.249 -140.29 717.713 -108.753 703.359 -76.1551C688.58 -42.5675 676.842 -7.7778 664.397 26.729C651.245 63.3571 637.81 99.8438 623.951 136.189C610.091 172.534 596.02 208.809 581.666 244.942C579.827 249.468 578.059 253.922 576.221 258.448C575.938 259.155 575.726 260.923 576.716 261.206C577.776 261.559 578.554 259.933 578.766 259.296C593.05 223.8 606.98 188.232 620.627 152.523C634.204 117.027 647.497 81.2469 660.437 45.538C672.882 11.3141 684.479 -23.3342 698.126 -57.0632C711.42 -89.7315 727.117 -121.693 748.543 -149.765C767.352 -174.372 795.424 -205.98 830.072 -200.182C833.608 -199.616 836.931 -198.555 840.184 -197.141C841.81 -196.363 843.578 -201.101 841.81 -201.879Z" fill="black"/>
</g>
<mask id="mask6_434_33" style="mask-type:luminance" maskUnits="userSpaceOnUse" x="155" y="155" width="398" height="398">
<path d="M213.192 213.193C135.673 290.712 135.673 416.395 213.192 493.914C290.711 571.433 416.395 571.433 493.914 493.914C571.433 416.395 571.433 290.712 493.914 213.193C416.395 135.674 290.711 135.674 213.192 213.193Z" fill="white"/>
</mask>
<g mask="url(#mask6_434_33)">
<path d="M488.611 519.158C500.985 509.329 513.359 499.076 522.764 486.277C527.219 480.125 530.966 473.266 533.158 465.983C535.068 459.69 537.613 449.225 530.471 445.053C527.219 443.214 523.4 443.639 519.935 444.275C515.834 445.124 511.874 446.396 508.056 448.235C504.308 450.003 500.631 452.124 497.308 454.74C493.702 457.498 490.732 460.751 487.479 463.862C482.317 468.882 474.751 474.751 467.044 471.569C459.69 468.458 460.043 458.771 461.67 452.336C465.912 436.214 476.59 422.85 482.6 407.364C485.004 401.142 487.479 392.444 481.61 387.282C475.812 382.191 465.983 384.1 459.195 385.797C451.275 387.777 443.851 391.384 437.345 396.333C432.678 399.869 427.87 404.111 422.143 405.879C416.061 407.718 411.182 403.404 411.182 397.182C411.112 389.616 415.425 382.615 418.253 375.827C421.294 368.685 424.122 360.907 423.698 352.988C423.345 346.27 420.728 339.411 415.708 334.815C410.192 329.724 402.909 329.229 395.98 331.209C391.949 332.411 388.06 334.179 384.171 335.664C379.716 337.431 375.332 339.27 370.877 341.038C366.705 342.664 362.604 344.502 358.362 346.058C355.038 347.26 351.22 348.391 347.826 346.836C340.542 343.654 340.896 333.684 343.724 327.744C347.26 320.249 353.341 314.167 357.654 307.026C361.614 300.237 364.655 292.53 364.372 284.61C364.089 277.398 361.261 269.903 355.321 265.377C350.159 261.488 343.512 260.357 337.219 261.417C323.077 263.68 312.753 273.58 300.732 280.368C294.934 283.62 288.287 286.025 281.428 285.105C277.822 284.61 273.792 282.843 272.095 279.449C270.327 275.984 271.882 271.317 272.872 267.781C275.064 259.508 278.741 251.73 283.55 244.659C287.651 238.719 293.025 233.911 297.409 228.113C300.803 223.587 303.985 218.001 302.924 212.132C301.652 204.637 293.732 200.818 286.802 200.677C270.044 200.323 259.225 214.536 246.992 223.516C240.77 228.042 233.557 231.295 225.708 230.092C219.132 229.032 213.97 224.153 213.263 217.506C212.556 211.283 215.172 204.99 218.284 199.899C222.597 192.757 228.607 186.605 234.618 180.878C241.265 174.372 248.406 168.362 255.548 162.352C256.467 161.574 256.609 160.018 255.69 159.24C254.629 158.321 253.215 158.887 252.296 159.665C244.942 165.887 237.658 172.039 230.799 178.757C224.86 184.555 218.92 190.636 214.607 197.778C208.384 207.819 204.283 223.799 216.233 231.507C222.243 235.396 229.739 235.537 236.527 233.699C244.659 231.507 251.306 225.85 257.528 220.334C263.397 215.173 269.195 209.798 276.62 206.899C283.125 204.354 292.954 203.717 297.268 210.576C300.449 215.738 297.197 221.536 294.015 225.85C289.843 231.577 284.469 236.386 280.297 242.113C275.418 248.972 271.6 256.609 269.195 264.67C267.145 271.67 264.599 280.438 271.246 285.812C276.832 290.267 284.752 290.409 291.399 288.712C298.187 287.015 304.268 283.338 310.066 279.519C320.248 272.731 332.906 262.619 346.058 266.013C353.2 267.923 357.796 274.216 359.281 281.216C360.907 289.207 358.432 297.197 354.472 304.127C347.755 316.077 330.572 330.572 339.623 345.704C343.654 352.422 351.29 352.846 358.079 350.583C362.251 349.24 366.21 347.401 370.241 345.775C374.696 344.007 379.08 342.169 383.535 340.401C387.565 338.775 391.596 337.007 395.697 335.593C399.232 334.461 403.121 333.684 406.798 334.815C413.445 336.795 417.334 343.512 418.678 349.947C420.304 357.655 417.9 365.433 415.001 372.574C412.172 379.646 408.142 386.504 406.94 394.071C405.95 400.293 407.718 407.435 414.223 409.839C419.738 411.96 425.678 409.273 430.345 406.445C436.214 402.839 441.234 397.96 447.386 394.636C454.316 390.818 462.801 388.131 470.791 388.202C474.539 388.272 478.711 389.333 480.125 393.293C481.327 396.616 480.408 400.364 479.347 403.546C476.66 411.465 472.559 418.819 468.599 426.032C464.64 433.244 460.751 440.527 458.276 448.376C456.154 455.165 454.669 463.296 458.488 469.802C462.236 476.236 470.014 477.509 476.731 475.6C485.146 473.266 490.732 466.125 496.884 460.397C503.106 454.599 510.884 450.498 519.228 448.518C522.622 447.669 527.36 446.75 529.552 450.356C531.603 453.68 530.613 458.347 529.764 461.882C526.087 477.297 515.693 489.671 504.379 500.278C498.722 505.511 492.712 510.531 486.631 515.339C485.782 516.046 484.863 517.249 485.641 518.451C486.136 519.794 487.762 519.865 488.611 519.158Z" fill="black"/>
</g>
<mask id="mask7_434_33" style="mask-type:luminance" maskUnits="userSpaceOnUse" x="155" y="155" width="398" height="398">
<path d="M213.192 213.193C135.673 290.712 135.673 416.395 213.192 493.914C290.711 571.433 416.395 571.433 493.914 493.914C571.433 416.395 571.433 290.712 493.914 213.193C416.395 135.674 290.711 135.674 213.192 213.193Z" fill="white"/>
</mask>
<g mask="url(#mask7_434_33)">
<path d="M501.48 483.803C493.206 490.237 484.65 496.955 474.822 500.844C465.771 504.38 456.013 504.945 446.891 501.339C438.689 498.086 431.971 491.51 430.415 482.601C428.718 472.701 433.032 462.731 437.133 453.963C441.8 443.922 447.245 433.952 447.952 422.638C447.952 421.648 445.618 422.709 445.335 422.85C436.426 427.093 427.163 430.558 417.617 433.033C408.354 435.507 398.383 437.558 388.838 437.912C384.524 438.124 379.716 437.699 376.039 435.154C372.079 432.325 371.584 427.588 372.928 423.274C375.827 414.011 383.322 406.94 386.716 397.889C389.474 390.606 389.474 381.838 383.251 376.323C377.382 371.161 368.756 371.019 361.543 372.009C353.624 373.141 346.34 376.323 338.562 378.161C331.35 379.858 323.006 380.707 316.5 376.464C309.642 372.009 307.944 363.665 309.147 356.099C310.49 347.402 315.228 340.119 319.541 332.694C323.572 325.694 328.238 317.208 326.895 308.794C326.329 304.976 324.137 301.369 319.965 300.874C315.652 300.379 310.773 302.571 306.884 304.198C290.691 310.915 273.65 324.421 255.053 319.118C250.74 317.916 245.861 315.582 244.446 310.915C243.244 306.885 244.8 302.642 246.143 298.894C249.891 288.641 253.709 278.459 257.457 268.347C258.801 264.741 261.629 259.791 259.861 255.761C258.164 251.943 253.002 251.023 249.255 250.953C240.982 250.74 233.062 254.276 225.779 257.741C218.566 261.135 210.929 264.812 202.727 263.963C193.535 263.115 187.948 255.832 186.11 247.205C185.12 242.679 184.908 237.942 184.767 233.275C184.767 232.144 180.241 233.841 180.241 234.972C180.382 243.74 180.736 254.135 187.171 260.852C192.757 266.721 201.03 267.357 208.596 265.731C216.869 263.963 224.082 259.862 231.718 256.609C235.607 254.983 239.709 253.569 243.951 253.427C247.982 253.215 254.134 253.852 255.548 258.377C256.184 260.428 255.548 262.62 254.841 264.6C253.922 267.216 252.932 269.903 251.871 272.519C249.891 277.752 247.982 282.914 246.073 288.217C244.234 293.167 242.184 298.187 240.487 303.278C239.355 306.814 238.507 311.057 240.345 314.592C242.466 318.552 247.133 320.532 251.235 321.663C255.124 322.724 259.154 322.936 263.185 322.583C272.094 321.875 280.579 318.481 288.57 314.592C293.095 312.329 297.55 309.996 302.146 307.804C304.48 306.743 306.742 305.753 309.147 304.905C311.48 303.986 314.238 302.925 316.642 303.491C321.38 304.551 322.652 310.491 322.299 314.663C321.945 319.118 320.46 323.29 318.551 327.32C314.874 335.24 309.359 342.311 306.318 350.584C303.773 357.655 302.57 366.211 306.46 373.07C314.874 387.848 335.38 381.343 347.967 377.1C355.674 374.484 364.796 372.716 372.715 375.403C380.989 378.161 384.807 385.939 383.393 394.283C381.766 403.97 374.766 411.395 370.382 419.88C368.402 423.699 366.422 428.224 367.624 432.538C368.756 436.639 372.503 438.972 376.463 439.962C380.777 441.023 385.231 440.811 389.545 440.316C394.424 439.821 399.303 439.043 404.04 438.124C413.586 436.215 422.991 433.598 432.042 430.204C436.638 428.436 441.093 426.527 445.547 424.477C444.628 424.547 443.85 424.618 442.931 424.689C442.153 435.507 437.133 445.195 432.607 454.811C428.223 464.145 423.486 474.54 425.324 485.005C426.951 494.268 434.163 500.915 442.648 504.168C452.124 507.703 462.094 506.925 471.498 503.743C483.519 499.501 493.843 491.722 503.813 484.015C504.379 483.591 505.086 483.025 504.167 482.671C503.954 482.318 502.116 483.308 501.48 483.803Z" fill="black"/>
</g>
<mask id="mask8_434_33" style="mask-type:luminance" maskUnits="userSpaceOnUse" x="155" y="155" width="398" height="398">
<path d="M213.192 213.193C135.673 290.712 135.673 416.395 213.192 493.914C290.711 571.433 416.395 571.433 493.914 493.914C571.433 416.395 571.433 290.712 493.914 213.193C416.395 135.674 290.711 135.674 213.192 213.193Z" fill="white"/>
</mask>
<g mask="url(#mask8_434_33)">
<path d="M454.033 531.815C445.406 533.936 436.285 532.451 428.648 528.067C420.728 523.542 415.142 515.834 412.526 507.137C411.112 502.612 410.546 497.945 410.758 493.207C410.97 488.469 412.385 484.085 413.092 479.418C413.799 475.034 413.375 470.792 410.97 466.973C408.778 463.509 405.243 461.104 401.637 459.62C393.222 456.296 384.312 457.003 375.686 458.983C367.837 460.751 359.139 463.367 351.078 461.246C341.886 458.842 336.866 449.72 336.088 440.74C335.169 430.77 339.199 421.082 343.724 412.455C345.492 409.132 348.391 405.102 347.331 401.071C346.058 395.98 339.906 394.919 335.451 394.707C325.976 394.141 316.925 397.677 307.591 397.96C298.823 398.243 289.702 395.485 287.156 386.151C284.964 378.302 287.722 369.605 290.126 362.109C291.399 358.15 293.025 353.978 292.106 349.664C291.116 344.997 287.227 341.957 282.843 340.543C273.509 337.573 264.034 343.23 254.841 343.937C245.932 344.644 236.456 342.523 229.951 336.017C226.981 333.047 224.789 329.441 223.728 325.411C222.597 321.309 223.163 317.208 224.223 313.178C225.991 306.177 228.749 298.046 222.88 292.177C217.577 286.732 209.233 288.288 202.657 289.914C195.515 291.682 188.656 293.732 181.443 290.762C174.867 288.005 169.493 282.348 167.019 275.63C165.816 272.307 165.392 268.771 165.816 265.377C166.17 262.761 161.362 261.488 161.008 264.104C158.957 279.449 171.261 294.156 186.323 296.349C194.101 297.48 201.455 294.227 209.091 292.954C211.99 292.459 215.597 292.106 218.142 293.803C221.183 295.854 221.819 299.601 221.395 302.995C220.971 306.814 219.557 310.491 218.779 314.238C217.93 318.34 217.859 322.37 218.991 326.33C221.324 334.886 228.254 341.816 236.315 345.21C245.154 348.816 255.124 348.887 264.316 346.624C269.054 345.422 274.004 343.442 278.954 343.866C283.691 344.22 287.651 347.19 287.51 352.281C287.439 356.594 285.247 360.907 284.115 365.009C282.913 369.181 281.994 373.352 281.711 377.595C281.075 386.01 284.115 394.141 291.681 398.596C299.955 403.475 310.208 402.273 319.188 400.647C323.855 399.798 328.592 398.738 333.471 398.667C335.734 398.667 338.138 398.667 340.33 399.445C343.088 400.364 343.159 402.415 342.31 404.819C341.532 406.869 340.33 408.779 339.27 410.688C338.068 413.021 336.936 415.425 335.876 417.759C333.896 422.426 332.269 427.305 331.633 432.325C330.431 441.588 332.623 451.558 339.128 458.488C345.422 465.064 354.26 466.691 362.887 465.701C371.443 464.781 379.858 461.317 388.484 461.175C396.333 461.104 407.081 463.509 408.637 472.701C409.415 477.439 407.506 482.176 406.798 486.843C406.021 491.439 405.879 496.106 406.586 500.773C407.93 510.036 412.102 518.734 418.678 525.31C425.112 531.603 433.739 535.563 442.719 536.623C447.174 537.118 451.558 536.836 455.872 535.775C458.7 535.068 456.72 531.108 454.033 531.815Z" fill="black"/>
</g>
<mask id="mask9_434_33" style="mask-type:luminance" maskUnits="userSpaceOnUse" x="155" y="155" width="398" height="398">
<path d="M213.192 213.193C135.673 290.712 135.673 416.395 213.192 493.914C290.711 571.433 416.395 571.433 493.914 493.914C571.433 416.395 571.433 290.712 493.914 213.193C416.395 135.674 290.711 135.674 213.192 213.193Z" fill="white"/>
</mask>
<g mask="url(#mask9_434_33)">
<path d="M418.324 547.019C403.263 544.826 390.393 531.816 388.625 516.613C387.706 509.188 389.969 501.552 388.06 494.268C385.868 485.854 377.595 482.248 369.604 482.035C360.907 481.823 352.563 485.076 343.866 484.44C337.431 483.945 331.42 481.47 326.259 477.722C316.076 470.227 309.005 457.782 309.429 445.054C309.571 441.942 310.066 438.902 311.056 435.932C312.258 432.184 313.955 428.507 313.036 424.477C311.056 415.709 300.379 414.224 293.025 413.658C288.923 413.375 284.681 413.092 280.792 411.608C277.327 410.264 274.286 408.072 271.811 405.456C266.932 400.294 264.033 393.152 264.599 386.081C265.023 379.576 269.407 371.939 265.589 365.716C261.629 359.211 252.507 360.696 246.285 361.969C237.8 363.666 229.314 364.939 220.9 362.322C213.263 359.918 206.192 353.978 204.424 345.847C203.01 339.341 205.343 332.624 206.828 326.33C208.101 320.532 209.02 313.956 204.919 309.006C199.474 302.572 189.858 303.279 182.504 304.976C174.301 306.814 165.25 310.067 157.543 305.188C154.502 303.279 152.098 300.309 151.815 296.632C151.745 295.854 147.643 297.976 147.785 299.248C148.421 307.097 156.836 311.128 163.907 310.986C172.675 310.845 180.948 306.39 189.787 307.026C193.818 307.239 197.919 308.511 200.747 311.623C202.939 313.956 204 316.997 204.071 320.179C204.283 326.613 201.666 332.907 200.606 339.2C199.333 346.554 200.889 353.483 206.263 358.857C212.273 364.868 220.617 367.131 228.89 367.06C233.062 366.989 237.305 366.423 241.406 365.575C245.224 364.726 249.113 363.949 253.002 364.161C256.609 364.373 259.932 365.716 261.841 368.898C263.609 371.939 263.185 375.616 262.548 378.939C261.841 382.475 260.71 386.01 260.639 389.617C260.568 393.081 261.275 396.617 262.478 399.799C265.023 406.304 270.185 411.749 276.62 414.507C284.539 417.901 293.52 415.567 301.368 419.032C305.187 420.729 308.793 423.911 309.217 428.295C309.642 432.255 307.662 436.073 306.601 439.821C303.136 452.054 307.52 465.489 315.864 474.823C319.965 479.49 325.198 483.167 331.067 485.5C337.997 488.187 344.926 487.904 352.139 486.773C360.836 485.43 371.018 483.308 378.655 488.965C385.373 493.985 384.948 502.329 384.524 509.825C384.1 517.461 384.807 524.674 388.484 531.604C392.09 538.18 397.676 543.624 404.394 546.948C407.576 548.574 411.041 549.635 414.647 550.13C415.566 550.2 416.698 549.211 417.405 548.645C417.617 548.574 419.102 547.089 418.324 547.019Z" fill="black"/>
</g>
<mask id="mask10_434_33" style="mask-type:luminance" maskUnits="userSpaceOnUse" x="155" y="155" width="398" height="398">
<path d="M213.192 213.193C135.673 290.712 135.673 416.395 213.192 493.914C290.711 571.433 416.395 571.433 493.914 493.914C571.433 416.395 571.433 290.712 493.914 213.193C416.395 135.674 290.711 135.674 213.192 213.193Z" fill="white"/>
</mask>
<g mask="url(#mask10_434_33)">
<path d="M395.484 557.554C387.848 555.292 379.999 552.675 373.352 548.15C367.129 543.907 363.24 537.897 362.321 530.331C361.473 523.825 362.109 516.966 358.856 511.027C355.321 504.521 348.038 501.764 341.108 500.774C333.613 499.642 325.976 499.784 318.48 498.228C311.056 496.743 303.773 494.127 297.621 489.531C292.53 485.712 288.499 480.409 286.449 474.399C284.327 468.035 284.61 461.812 287.297 455.731C288.711 452.478 290.125 449.226 289.913 445.619C289.701 442.437 288.428 439.609 286.378 437.275C282.064 432.396 275.135 429.992 268.983 428.79C261.983 427.447 254.629 427.588 247.911 424.689C244.941 423.416 242.042 421.507 240.345 418.679C238.648 415.709 238.79 412.315 239.567 409.133C241.335 402.415 245.224 395.839 242.537 388.768C241.264 385.374 238.507 383.04 234.971 382.475C231.223 381.838 227.405 382.828 223.799 383.323C216.304 384.455 208.313 385.657 200.747 384.03C193.959 382.475 186.959 378.303 184.554 371.515C182.221 364.938 184.767 358.009 186.534 351.574C188.373 344.786 189.433 336.796 185.686 330.502C182.009 324.421 175.009 323.078 168.432 324.563C162.068 326.118 156.199 330.007 149.411 329.3C146.441 329.017 143.472 327.745 142.552 324.704C141.704 322.017 136.825 323.078 137.673 325.906C139.936 333.26 148.28 334.533 154.997 333.472C161.22 332.482 166.877 328.381 173.311 328.31C181.231 328.31 183.635 336.371 183.211 343.018C182.787 350.089 179.463 356.665 178.898 363.736C178.261 371.02 181.09 377.808 186.888 382.333C192.898 387.071 200.323 389.121 207.889 389.192C215.809 389.334 223.304 387.354 231.082 386.788C234.618 386.505 237.446 387.778 238.365 391.384C239.284 394.99 238.365 398.597 237.163 402.062C234.83 408.496 232.496 415.497 236.668 421.79C240.769 427.871 248.689 430.275 255.548 431.477C262.407 432.679 269.266 432.75 275.7 435.508C281.287 437.983 286.59 442.579 284.822 449.296C283.903 452.761 281.923 455.731 281.075 459.125C280.226 462.236 280.014 465.418 280.297 468.671C280.933 475.247 283.762 481.47 287.863 486.561C297.479 498.582 313.319 502.824 327.956 504.168C335.097 504.804 343.158 504.521 349.593 508.269C355.745 511.875 356.664 518.876 357.018 525.452C357.23 528.775 357.442 532.098 358.149 535.351C358.998 539.028 360.765 542.493 363.099 545.392C368.119 551.544 375.332 555.362 382.544 558.191C386.292 559.676 390.04 560.878 393.929 561.938C396.686 562.575 398.596 558.403 395.484 557.554Z" fill="black"/>
</g>
<mask id="mask11_434_33" style="mask-type:luminance" maskUnits="userSpaceOnUse" x="155" y="155" width="398" height="398">
<path d="M213.192 213.193C135.673 290.712 135.673 416.395 213.192 493.914C290.711 571.433 416.395 571.433 493.914 493.914C571.433 416.395 571.433 290.712 493.914 213.193C416.395 135.674 290.711 135.674 213.192 213.193Z" fill="white"/>
</mask>
<g mask="url(#mask11_434_33)">
<path d="M365.574 564.413C360.766 565.686 356.523 562.009 354.048 558.261C350.937 553.453 350.512 547.796 349.876 542.21C349.24 536.199 348.179 530.048 344.078 525.381C339.906 520.643 333.613 518.31 327.532 517.32C315.157 515.269 301.864 519.087 289.984 513.855C279.66 509.329 272.236 498.935 271.104 487.763C269.973 476.873 276.337 464.994 269.549 454.953C265.872 449.579 259.579 446.538 253.427 444.912C246.851 443.144 240.062 442.72 233.486 440.811C227.9 439.184 222.526 436.215 219.203 431.336C217.647 429.073 216.657 426.386 216.657 423.557C216.657 421.012 217.364 418.466 218.001 415.991C219.273 410.617 219.768 404.89 214.889 401.142C209.515 397.041 202.798 397.677 196.505 397.889C190.211 398.101 183.989 396.97 178.898 393.152C173.948 389.333 171.827 383.818 171.473 377.666C171.12 371.939 171.968 365.999 170.13 360.483C168.715 356.099 165.745 351.574 161.22 349.735C159.099 348.887 156.836 348.887 154.715 349.453C153.583 349.735 152.452 350.725 152.169 351.857C151.886 352.847 152.452 353.554 153.442 353.271C158.179 351.927 162.139 355.604 164.402 359.423C167.301 364.302 167.23 369.888 167.301 375.474C167.372 381.343 167.725 387.495 171.332 392.515C174.796 397.394 180.595 400.364 186.393 401.496C192.757 402.627 199.262 400.789 205.556 402.132C208.596 402.768 211.566 404.183 213.475 406.799C215.102 408.991 215.172 411.749 214.819 414.365C214.041 419.668 211.707 424.689 213.334 430.133C214.96 435.437 219.344 439.538 224.153 442.084C235.82 448.377 250.669 445.548 261.629 453.821C266.65 457.569 268.983 463.014 268.842 469.236C268.7 474.893 267.286 480.409 267.074 485.995C266.72 497.096 272.448 508.057 281.499 514.421C286.449 517.815 291.964 519.653 297.904 520.219C304.338 520.855 310.773 520.36 317.208 520.431C323.642 520.502 330.289 521.492 335.805 524.744C341.462 527.997 344.219 533.442 345.351 539.664C346.341 545.321 346.128 551.473 348.179 556.918C349.947 561.372 353.058 565.898 357.654 567.666C359.776 568.514 362.109 568.585 364.372 568.019C365.503 567.736 366.635 566.746 366.917 565.615C367.2 564.767 366.635 564.059 365.574 564.413Z" fill="black"/>
</g>
<mask id="mask12_434_33" style="mask-type:luminance" maskUnits="userSpaceOnUse" x="155" y="155" width="398" height="398">
<path d="M213.192 213.193C135.673 290.712 135.673 416.395 213.192 493.914C290.711 571.433 416.395 571.433 493.914 493.914C571.433 416.395 571.433 290.712 493.914 213.193C416.395 135.674 290.711 135.674 213.192 213.193Z" fill="white"/>
</mask>
<g mask="url(#mask12_434_33)">
<path d="M323.855 559.746C326.4 551.403 321.026 543.342 314.379 538.816C305.965 533.088 295.075 533.23 285.317 532.664C275.701 532.099 263.609 530.331 258.306 521.068C253.144 511.946 257.316 500.986 258.659 491.44C259.366 486.49 259.508 481.399 257.669 476.732C255.972 472.348 252.72 468.53 248.336 466.691C243.739 464.782 238.79 465.913 234.264 467.469C230.446 468.742 226.486 470.015 222.526 468.317C218.637 466.55 215.809 463.014 213.899 459.408C211.707 455.377 210.647 450.923 210.01 446.326C209.303 441.377 209.02 436.427 208.172 431.477C207.253 426.598 205.768 421.436 202.586 417.547C200.818 415.355 198.202 414.153 195.444 414.082C192.969 414.012 190.706 414.86 188.373 415.497C183.989 416.487 179.393 416.274 175.15 414.86C165.958 412.032 159.099 404.041 157.189 394.637C156.694 392.162 156.553 389.758 156.624 387.283C156.765 385.162 151.745 385.374 151.603 387.637C151.038 397.678 155.846 407.577 163.907 413.517C171.827 419.315 182.292 420.729 191.555 418.113C193.535 417.547 195.444 416.911 197.141 418.325C199.05 419.951 200.182 422.497 201.101 424.689C202.939 429.214 203.576 434.235 204.071 439.114C204.636 443.922 204.919 448.872 206.263 453.61C207.535 457.994 209.586 462.166 212.485 465.63C215.314 469.025 219.132 471.429 223.516 472.277C228.324 473.126 232.708 471.57 237.163 470.085C239.072 469.449 241.123 468.812 243.174 469.025C245.295 469.166 247.133 470.156 248.618 471.499C252.225 474.681 253.851 479.419 254.134 484.086C254.699 494.268 249.962 503.956 251.093 514.138C251.659 519.229 253.851 523.967 257.74 527.432C261.7 530.967 266.65 533.088 271.741 534.361C281.923 536.907 292.671 535.351 302.853 537.897C310.49 539.877 318.41 545.392 319.612 553.807C319.895 555.645 319.753 557.484 319.188 559.322C318.268 561.514 323.218 561.797 323.855 559.746Z" fill="black"/>
</g>
<mask id="mask13_434_33" style="mask-type:luminance" maskUnits="userSpaceOnUse" x="155" y="155" width="398" height="398">
<path d="M213.192 213.193C135.673 290.712 135.673 416.395 213.192 493.914C290.711 571.433 416.395 571.433 493.914 493.914C571.433 416.395 571.433 290.712 493.914 213.193C416.395 135.674 290.711 135.674 213.192 213.193Z" fill="white"/>
</mask>
<g mask="url(#mask13_434_33)">
<path d="M250.103 541.149C242.961 532.734 240.274 521.845 241.901 511.026C242.608 506.359 243.739 501.551 242.891 496.884C241.901 491.51 237.87 487.904 232.85 486.277C227.122 484.368 221.112 485.146 215.172 484.722C210.081 484.297 205.626 482.247 202.02 478.641C198.626 475.246 196.363 470.862 195.727 466.125C195.019 461.175 196.717 456.367 196.646 451.488C196.575 445.194 192.262 440.74 186.534 438.972C180.029 436.851 173.028 438.618 166.664 440.315C165.887 440.527 164.331 441.093 164.543 442.154C164.755 443.214 166.594 443.073 167.23 442.861C172.392 441.517 177.978 439.891 183.281 441.517C185.756 442.295 188.161 443.709 189.716 445.831C191.201 447.74 191.696 450.215 191.767 452.69C191.767 457.498 190.211 462.165 190.777 466.973C191.343 471.64 193.464 476.024 196.504 479.489C199.616 483.025 203.858 485.712 208.455 486.914C214.111 488.328 219.98 487.409 225.708 488.186C230.87 488.823 235.961 491.368 237.587 496.672C238.931 501.127 237.941 505.793 237.234 510.319C236.314 516.046 236.102 521.774 237.587 527.502C239.002 533.3 241.759 538.745 245.578 543.27C246.638 544.189 251.376 542.563 250.103 541.149Z" fill="black"/>
</g>
<mask id="mask14_434_33" style="mask-type:luminance" maskUnits="userSpaceOnUse" x="155" y="155" width="398" height="398">
<path d="M213.192 213.193C135.673 290.712 135.673 416.395 213.192 493.914C290.711 571.433 416.395 571.433 493.914 493.914C571.433 416.395 571.433 290.712 493.914 213.193C416.395 135.674 290.711 135.674 213.192 213.193Z" fill="white"/>
</mask>
<g mask="url(#mask14_434_33)">
<path d="M555.503 408.283C545.745 408.425 536.976 412.809 528.915 418.041C524.673 420.728 520.572 423.698 516.4 426.456C512.016 429.284 507.349 432.254 502.116 432.961C497.237 433.598 491.509 431.689 489.176 426.951C486.913 422.284 488.752 416.627 490.025 411.96C491.651 405.808 493.419 399.657 495.045 393.505C496.389 388.626 498.51 383.252 498.156 378.09C497.449 366.776 484.297 368.332 476.448 370.241C466.266 372.787 454.599 375.261 445.194 368.968C441.163 366.21 438.123 362.18 437.628 357.301C437.204 353.058 438.547 349.028 439.961 345.068C442.719 337.502 446.537 329.158 442.366 321.309C438.335 313.743 428.86 310.208 420.657 310.349C410.263 310.561 401.071 318.339 390.535 316.43C385.656 315.511 381.696 312.258 380.706 307.308C379.928 302.995 381.13 298.54 382.756 294.51C386.08 285.954 390.676 277.964 391.312 268.559C391.949 258.73 386.999 250.245 378.302 245.79C368.614 240.77 357.23 240.699 346.623 241.406C340.684 241.83 334.744 242.538 328.875 243.74C324.137 244.659 318.339 246.214 314.521 242.255C310.561 238.153 311.268 232.072 312.965 227.123C314.591 222.244 316.996 217.718 317.985 212.627C319.753 203.788 318.975 193.535 312.116 186.959C305.611 180.736 296.136 180.029 287.651 181.585C283.125 182.433 278.6 183.989 274.428 185.898C270.044 187.878 265.872 190.494 261.346 192.05C257.033 193.535 252.083 193.818 248.053 191.343C244.729 189.292 242.396 185.828 241.335 182.08C240.345 178.403 240.628 174.443 242.749 171.19C243.315 170.342 242.749 170.059 241.972 170.271C240.84 170.554 239.921 171.756 239.355 172.605C235.042 179.039 236.739 188.232 242.537 193.323C249.891 199.828 259.649 195.727 267.215 191.838C275.63 187.525 284.61 183.777 294.297 184.413C303.843 185.05 311.834 190.919 314.167 200.465C315.298 205.273 315.157 210.364 314.096 215.102C312.965 220.193 310.702 224.718 309.005 229.668C307.379 234.406 306.813 239.78 309.712 244.235C312.541 248.477 317.42 248.831 322.016 248.053C327.673 247.204 333.259 246.002 338.987 245.366C344.856 244.73 350.866 244.376 356.806 244.8C367.129 245.507 378.797 248.548 384.454 258.023C389.474 266.438 387.282 276.549 383.959 285.247C380.918 293.096 374.978 301.722 376.817 310.49C379.08 321.238 391.454 321.451 399.868 318.834C405.03 317.208 410.051 314.733 415.566 314.167C420.021 313.672 424.617 314.45 428.718 316.147C432.607 317.774 436.214 320.531 438.335 324.208C440.527 328.097 440.669 332.623 439.679 336.866C437.769 344.856 432.466 352.563 433.81 360.978C435.436 371.09 446.113 376.11 455.447 376.393C460.892 376.464 466.266 375.474 471.569 374.13C476.377 372.999 481.327 371.443 486.348 372.362C491.509 373.282 494.479 377.241 494.196 382.474C494.055 385.02 493.348 387.565 492.712 390.04C491.863 393.151 491.085 396.192 490.237 399.303C488.54 405.384 486.843 411.465 485.287 417.546C484.156 421.931 483.448 426.88 485.853 430.981C488.328 435.012 493.348 436.78 497.873 436.497C503.177 436.285 508.056 433.668 512.511 431.052C521.137 425.82 528.986 419.243 538.249 415.072C542.633 413.092 547.442 411.819 552.321 411.748C553.311 411.748 554.301 410.9 555.008 410.193C555.149 410.051 556.493 408.283 555.503 408.283Z" fill="black"/>
</g>
<mask id="mask15_434_33" style="mask-type:luminance" maskUnits="userSpaceOnUse" x="155" y="155" width="398" height="398">
<path d="M213.192 213.193C135.673 290.712 135.673 416.395 213.192 493.914C290.711 571.433 416.395 571.433 493.914 493.914C571.433 416.395 571.433 290.712 493.914 213.193C416.395 135.674 290.711 135.674 213.192 213.193Z" fill="white"/>
</mask>
<g mask="url(#mask15_434_33)">
<path d="M563.847 380.707C554.654 386.081 545.603 391.455 536.411 396.829C532.734 398.95 528.633 402.062 524.178 401.425C520.784 401.001 517.885 398.809 515.834 396.051C510.814 389.334 511.45 381.343 512.935 373.495C513.713 369.181 514.774 364.868 515.056 360.484C515.339 356.524 514.844 351.928 511.309 349.382C504.733 344.927 494.975 346.907 487.833 348.392C479.701 350.019 471.145 351.928 463.084 348.675C459.266 347.119 456.154 344.15 454.528 340.261C453.114 336.584 453.185 332.412 453.75 328.593C454.811 320.886 457.922 313.108 456.225 305.188C455.447 301.582 453.75 298.188 450.639 296.066C447.669 293.945 444.063 293.309 440.386 293.309C432.325 293.309 424.405 296.703 416.274 295.359C412.384 294.723 408.778 292.814 406.798 289.278C404.606 285.389 404.536 280.651 404.748 276.338C405.172 267.429 407.93 258.731 407.93 249.822C407.93 241.619 405.526 233.275 398.525 228.396C391.737 223.588 382.969 222.739 374.908 222.881C366.493 222.952 357.867 224.083 349.593 221.891C345.492 220.901 340.33 218.992 338.421 214.82C336.653 210.931 337.926 205.698 338.28 201.526C338.987 192.617 339.058 183.354 335.239 175.01C331.491 166.878 324.42 161.787 315.582 161.009C301.369 159.665 279.802 169.07 270.61 153.231C268.983 150.332 268.276 146.938 269.266 143.685C269.62 142.624 268.347 143.19 267.852 143.402C267.003 143.826 265.66 144.746 265.377 145.735C263.185 152.312 267.003 158.958 272.66 162.494C279.661 166.949 288.641 166.171 296.49 165.252C305.046 164.191 314.733 162.847 322.441 167.585C330.502 172.535 333.825 182.364 334.461 191.344C334.815 196.081 334.461 200.819 334.108 205.557C333.754 209.587 332.764 214.396 334.603 218.214C336.441 222.032 341.32 223.941 345.209 225.002C349.311 226.134 353.482 226.487 357.654 226.558C366.352 226.628 374.979 225.497 383.605 227.194C392.232 228.891 399.657 233.77 402.414 242.468C405.243 251.094 403.404 260.287 401.919 268.984C401.212 273.368 400.505 277.894 400.576 282.348C400.647 286.52 401.283 291.117 404.111 294.369C409.415 300.521 418.961 299.46 426.102 298.117C433.456 296.703 442.931 294.864 448.73 301.087C454.457 307.239 452.619 316.855 450.993 324.28C449.366 331.563 447.598 340.119 452.195 346.695C457.003 353.625 466.549 354.686 474.398 353.908C482.812 352.988 491.015 349.736 499.571 350.514C503.743 350.867 508.41 352.14 510.177 356.312C511.874 360.413 510.884 365.504 510.107 369.676C508.692 377.596 506.147 386.081 509.046 393.93C511.379 400.365 517.178 406.163 524.532 404.607C528.845 403.688 532.593 401.072 536.34 398.88C541.078 396.122 545.674 393.364 550.412 390.607C554.867 387.99 559.321 385.374 563.776 382.758C564.2 382.475 566.109 381.131 565.827 380.424C565.473 379.646 564.342 380.495 563.847 380.707Z" fill="black"/>
</g>
<mask id="mask16_434_33" style="mask-type:luminance" maskUnits="userSpaceOnUse" x="155" y="155" width="398" height="398">
<path d="M213.192 213.193C135.673 290.712 135.673 416.395 213.192 493.914C290.711 571.433 416.395 571.433 493.914 493.914C571.433 416.395 571.433 290.712 493.914 213.193C416.395 135.674 290.711 135.674 213.192 213.193Z" fill="white"/>
</mask>
<g mask="url(#mask16_434_33)">
<path d="M570.493 353.695C566.321 360.695 559.745 366.282 552.038 369.181C546.593 371.231 538.461 372.292 534.997 366.282C532.522 362.11 533.582 356.524 534.289 351.998C535.067 346.836 535.845 341.391 534.007 336.3C531.532 329.3 524.39 326.401 517.46 325.835C510.036 325.199 502.682 326.754 495.257 326.118C488.115 325.482 481.61 322.653 478.499 315.865C475.387 308.935 476.024 301.228 476.731 293.874C477.438 286.379 478.074 278.671 475.6 271.388C474.327 267.852 472.135 264.388 468.741 262.549C465.912 260.993 462.66 260.711 459.407 260.993C453.467 261.418 447.457 264.034 441.517 262.054C435.719 260.074 431.476 254.983 429.143 249.397C427.941 246.498 427.163 243.457 426.88 240.346C426.597 236.81 427.092 233.346 427.516 229.81C428.365 222.456 427.941 215.102 422.142 209.728C416.485 204.496 408.354 202.869 400.858 202.445C393.222 202.021 385.514 202.799 377.948 201.172C371.16 199.758 365.291 195.727 363.665 188.727C362.109 182.363 363.311 175.787 362.533 169.352C361.755 161.645 357.654 155.14 351.432 150.614C344.714 145.735 336.582 143.684 328.521 142.836C324.491 142.482 320.46 142.27 316.359 142.129C315.086 142.129 313.743 142.624 313.46 144.038C313.248 145.24 314.238 146.513 315.511 146.513C323.854 146.796 332.552 147.008 340.471 149.978C347.684 152.665 354.543 157.968 356.735 165.675C358.573 172.039 357.371 178.898 358.008 185.474C358.644 192.333 361.755 198.697 367.907 202.304C381.979 210.435 398.808 203.506 413.303 209.657C416.485 211.001 419.385 213.193 421.082 216.163C422.849 219.345 423.062 223.093 422.779 226.628C422.496 230.305 421.789 233.982 421.718 237.73C421.647 241.053 422.213 244.306 423.132 247.488C424.971 253.71 428.718 259.579 434.022 263.327C439.608 267.216 445.901 267.711 452.406 266.58C458.275 265.519 465.417 263.468 469.236 269.549C473.337 275.913 472.559 284.469 471.923 291.611C471.216 299.248 470.438 306.955 472.7 314.451C474.822 321.663 480.266 327.108 487.479 329.229C494.691 331.351 502.187 330.643 509.541 330.219C516.046 329.795 525.309 329.866 528.703 336.654C530.966 341.179 529.976 346.553 529.34 351.291C528.633 356.382 527.643 362.039 529.764 366.989C532.38 373.423 539.31 375.828 545.886 375.333C553.876 374.696 561.654 370.312 567.523 365.009C570.493 362.322 572.968 359.14 575.019 355.675C576.645 352.776 572.049 351.291 570.493 353.695Z" fill="black"/>
</g>
<mask id="mask17_434_33" style="mask-type:luminance" maskUnits="userSpaceOnUse" x="155" y="155" width="398" height="398">
<path d="M213.192 213.193C135.673 290.712 135.673 416.395 213.192 493.914C290.711 571.433 416.395 571.433 493.914 493.914C571.433 416.395 571.433 290.712 493.914 213.193C416.395 135.674 290.711 135.674 213.192 213.193Z" fill="white"/>
</mask>
<g mask="url(#mask17_434_33)">
<path d="M566.745 341.886C562.149 344.078 556.28 341.745 553.24 337.997C549.492 333.401 549.704 326.966 547.866 321.592C545.886 315.936 541.29 312.754 535.491 311.622C529.41 310.491 523.258 311.269 517.248 309.925C510.955 308.582 505.086 305.258 501.267 300.026C498.298 295.924 497.166 290.833 496.601 285.884C495.611 276.408 497.378 266.297 494.126 257.104C492.499 252.65 489.671 248.973 485.64 246.498C481.61 244.023 476.731 242.962 472.135 242.184C463.579 240.841 452.265 240.982 446.537 233.416C443.214 228.961 443.143 223.234 443.426 217.86C443.709 212.203 444.345 206.334 442.295 200.889C440.173 195.091 435.789 190.141 430.274 187.454C424.263 184.555 417.405 184.343 410.899 184.343C404.464 184.272 397.676 184.131 392.019 180.737C387.423 177.979 385.16 173.312 384.312 168.221C383.534 163.625 383.746 158.887 383.676 154.15C383.605 149.836 383.322 145.169 381.342 141.209C380.423 139.3 379.15 137.603 377.524 136.26C376.675 135.553 375.332 135.765 374.342 136.048C373.917 136.189 372.15 137.108 372.928 137.745C380.281 143.967 378.514 155.069 378.867 163.625C379.079 168.221 379.716 172.817 381.979 176.777C385.302 182.363 391.595 184.979 397.676 185.969C404.394 187.03 411.182 186.323 417.9 187.101C424.405 187.808 430.132 190.848 434.163 196.152C437.981 201.243 438.901 207.112 438.688 213.264C438.476 218.85 437.557 224.577 439.325 230.022C442.648 240.275 453.538 242.255 462.801 243.599C472.135 244.871 482.883 246.003 487.903 255.266C490.166 259.367 490.732 264.175 491.014 268.701C491.368 273.721 491.156 278.742 491.368 283.762C491.651 288.571 492.287 293.591 494.408 297.975C497.166 303.844 502.328 308.157 508.268 310.562C514.278 313.036 520.571 313.107 527.006 313.461C532.734 313.814 538.673 314.804 541.785 320.178C544.754 325.411 544.259 331.845 547.017 337.149C549.704 342.24 555.22 345.068 560.877 345.21C563.917 345.28 566.816 344.644 569.574 343.301C570.352 342.947 570.988 342.169 570.14 341.604C569.291 341.038 567.594 341.462 566.745 341.886Z" fill="black"/>
</g>
<mask id="mask18_434_33" style="mask-type:luminance" maskUnits="userSpaceOnUse" x="155" y="155" width="398" height="398">
<path d="M213.192 213.193C135.673 290.712 135.673 416.395 213.192 493.914C290.711 571.433 416.395 571.433 493.914 493.914C571.433 416.395 571.433 290.712 493.914 213.193C416.395 135.674 290.711 135.674 213.192 213.193Z" fill="white"/>
</mask>
<g mask="url(#mask18_434_33)">
<path d="M557.553 309.359C554.725 298.611 541.573 297.48 532.734 294.863C527.926 293.449 522.622 291.257 519.794 286.873C516.966 282.348 518.097 277.256 518.663 272.307C519.37 266.65 519.723 260.922 519.723 255.265C519.723 250.599 519.228 245.719 516.541 241.76C512.511 235.891 505.581 233.769 499.005 232.426C491.934 231.012 484.439 230.305 477.863 227.123C474.751 225.567 471.923 223.446 470.014 220.546C467.751 217.152 466.832 213.122 466.478 209.091C465.7 200.677 466.761 191.697 462.448 184.131C457.639 175.645 448.093 171.332 438.901 169.352C434.093 168.362 429.214 168.008 424.405 167.867C419.597 167.726 414.576 167.655 409.839 166.17C405.313 164.756 401.566 161.857 399.515 157.543C397.465 153.371 396.828 148.634 395.838 144.108C395.343 141.916 394.707 139.724 393.858 137.603C393.505 136.825 392.373 138.522 392.303 138.734C391.949 139.371 391.03 140.856 391.313 141.704C394.778 149.977 393.858 160.796 401.141 167.089C408.283 173.524 419.314 171.827 428.294 172.605C437.84 173.382 448.235 175.999 455.447 182.787C458.912 185.969 461.175 190.07 462.306 194.596C463.296 198.697 463.296 202.94 463.438 207.182C463.72 214.96 464.428 223.163 470.791 228.537C476.307 233.204 483.873 234.406 490.661 235.679C497.449 236.951 505.015 237.871 510.602 242.325C518.45 248.477 517.39 259.437 516.824 268.347C516.612 271.246 516.4 274.145 516.046 277.044C515.763 279.448 515.339 281.853 515.481 284.257C515.693 289.419 518.38 293.378 522.693 295.995C531.603 301.369 543.553 300.025 551.472 307.379C553.311 309.076 554.513 311.127 555.149 313.46C555.361 314.238 556.634 312.4 556.705 312.329C557.059 311.551 557.766 310.278 557.553 309.359Z" fill="black"/>
</g>
<mask id="mask19_434_33" style="mask-type:luminance" maskUnits="userSpaceOnUse" x="155" y="155" width="398" height="398">
<path d="M213.192 213.193C135.673 290.712 135.673 416.395 213.192 493.914C290.711 571.433 416.395 571.433 493.914 493.914C571.433 416.395 571.433 290.712 493.914 213.193C416.395 135.674 290.711 135.674 213.192 213.193Z" fill="white"/>
</mask>
<g mask="url(#mask19_434_33)">
<path d="M550.624 261.7C548.785 262.549 547.229 262.832 545.603 262.478C543.411 261.983 541.36 260.781 539.593 259.296C535.421 255.973 533.087 251.094 531.956 245.861C530.683 239.78 531.037 233.487 531.178 227.264C531.32 221.466 530.895 215.102 525.238 211.991C519.582 208.879 512.652 209.445 506.571 210.718C503.742 211.283 500.773 211.991 497.873 212.061C495.469 212.061 493.206 211.213 491.156 210.011C486.701 207.253 483.307 202.445 482.458 197.212C481.963 194.172 482.458 190.99 482.812 187.949C483.095 184.838 483.166 181.797 482.317 178.827C478.145 164.332 462.377 159.028 449.012 156.978C448.305 156.836 446.396 156.624 445.901 157.261C445.406 158.038 447.245 158.321 447.598 158.392C454.174 159.453 460.892 161.079 466.549 164.756C471.569 167.938 475.882 172.958 477.367 178.827C479.064 185.05 476.377 191.272 477.579 197.566C478.569 202.798 481.963 207.465 486.418 210.364C491.651 213.758 498.015 214.324 504.025 213.405C509.399 212.556 516.046 209.869 521.137 212.839C526.935 216.233 526.158 223.799 526.087 229.527C525.875 235.82 525.804 242.255 527.572 248.407C529.198 253.993 532.592 258.801 537.684 261.771C542.775 264.599 549.351 265.519 554.725 262.973C555.715 262.549 554.371 261.912 553.876 261.842C553.098 261.347 551.614 261.135 550.624 261.7Z" fill="black"/>
</g>
</g>
<defs>
<clipPath id="clip0_434_33">
<rect width="500" height="500" fill="white" transform="translate(707.106 353.554) rotate(135)"/>
</clipPath>
</defs>
</svg>
