<svg width="441" height="436" viewBox="0 0 441 436" fill="none" xmlns="http://www.w3.org/2000/svg">
<path d="M269.7 319.1C332.6 332.6 395.6 305.6 440.5 265.2C404.5 287.7 355.1 305.7 314.6 278.7C373 260.7 418 206.8 431.5 148.3C413.5 188.8 377.6 220.2 332.6 224.7C350.6 202.2 359.6 175.3 373.1 148.3C386.6 112.3 368.6 80.9 368.6 49.4C368.6 94.3 359.6 143.8 319.2 166.3C332.7 107.9 310.2 40.4 265.3 0C292.3 36 305.8 85.4 278.8 125.9C265.2 58.4 206.8 22.5 148.4 4.5C184.3 27 229.3 58.4 224.8 107.9C179.8 62.9 107.9 53.9 49.5001 67.4C94.4001 62.9 143.9 80.9 170.9 116.8C108 98.8 45.0001 125.8 0.100098 170.7C36.1001 143.7 85.5001 130.2 126 157.2C63.1001 175.2 22.6001 229.1 4.6001 287.6C27.1001 247.1 63.0001 215.7 108 211.2C63.1001 260.6 54.1001 328.1 67.5001 386.5C67.5001 341.6 76.5001 292.1 116.9 269.6C107.9 332.5 130.4 395.5 170.8 435.9C152.8 395.4 134.8 350.5 157.3 310C175.3 377.4 229.2 408.9 287.7 431.4C247.3 409 215.8 373.1 211.3 328.1C260.7 373 328.2 382 386.6 368.6C341.7 373.1 292.2 355.1 269.7 319.1Z" fill="#7DFAFF"/>
</svg>
