<svg width="364" height="349" viewBox="0 0 364 349" fill="none" xmlns="http://www.w3.org/2000/svg">
<path d="M199.942 317L251.942 344.4C280.442 359.4 313.642 335.2 308.242 303.5L298.342 245.6C296.142 233 300.342 220.2 309.542 211.2L351.642 170.2C374.642 147.7 361.942 108.6 330.142 104L271.942 95.5C259.342 93.7 248.342 85.7 242.742 74.3L216.742 21.6C202.542 -7.2 161.342 -7.2 147.142 21.6L121.142 74.3C115.442 85.8 104.542 93.7 91.942 95.5L33.742 104C1.94202 108.6 -10.758 147.7 12.242 170.2L54.342 211.2C63.442 220.1 67.642 233 65.542 245.6L55.642 303.5C50.242 335.2 83.442 359.4 111.942 344.4L163.942 317C175.142 311.1 188.642 311.1 199.942 317Z" fill="#3300FF"/>
</svg>
