<svg width="347" height="379" viewBox="0 0 347 379" fill="none" xmlns="http://www.w3.org/2000/svg">
<path d="M346.734 150.825C346.734 143.725 340.534 137.225 329.334 132.525L280.834 112.225L329.334 91.925C340.534 87.225 346.734 80.725 346.734 73.625C346.734 66.525 340.534 60.025 329.334 55.325L213.134 6.825C191.434 -2.275 156.134 -2.275 134.434 6.825L18.3336 55.325C7.1336 60.025 0.933594 66.525 0.933594 73.625C0.933594 80.725 7.1336 87.225 18.3336 91.925L66.8336 112.225L18.3336 132.525C7.1336 137.225 0.933594 143.725 0.933594 150.825C0.933594 157.925 7.1336 164.425 18.3336 169.125L66.8336 189.425L18.3336 209.725C7.1336 214.425 0.933594 220.925 0.933594 228.025C0.933594 235.125 7.1336 241.625 18.3336 246.325L66.8336 266.625L18.3336 286.925C7.1336 291.625 0.933594 298.125 0.933594 305.225C0.933594 312.325 7.1336 318.825 18.3336 323.525L134.434 372.025C145.234 376.525 159.534 378.825 173.734 378.825C187.934 378.825 202.234 376.525 213.034 372.025L329.134 323.525C340.334 318.825 346.534 312.325 346.534 305.225C346.534 298.125 340.334 291.625 329.134 286.925L280.634 266.625L329.134 246.325C340.334 241.625 346.534 235.125 346.534 228.025C346.534 220.925 340.334 214.425 329.134 209.725L280.734 189.425L329.234 169.125C340.534 164.425 346.734 157.925 346.734 150.825ZM20.2336 87.325C11.1336 83.525 5.8336 78.525 5.8336 73.625C5.8336 68.725 11.0336 63.725 20.2336 59.925L136.434 11.425C146.734 7.125 160.334 4.925 173.834 4.925C187.434 4.925 200.934 7.125 211.234 11.425L327.334 59.925C336.434 63.725 341.734 68.725 341.734 73.625C341.734 78.525 336.534 83.525 327.334 87.325L274.234 109.525L213.134 84.025C191.434 74.925 156.134 74.925 134.434 84.025L73.3336 109.525L20.2336 87.325ZM267.834 112.225L211.234 135.825C190.634 144.425 157.034 144.425 136.434 135.825L79.8336 112.225L136.434 88.625C146.734 84.325 160.334 82.125 173.834 82.125C187.434 82.125 200.934 84.325 211.234 88.625L267.834 112.225ZM327.434 291.525C336.534 295.325 341.834 300.325 341.834 305.225C341.834 310.125 336.634 315.125 327.434 318.925L211.234 367.425C190.634 376.025 157.034 376.025 136.434 367.425L20.2336 318.925C11.1336 315.125 5.8336 310.125 5.8336 305.225C5.8336 300.325 11.0336 295.325 20.2336 291.525L73.3336 269.325L134.434 294.825C145.234 299.325 159.534 301.625 173.734 301.625C187.934 301.625 202.234 299.325 213.034 294.825L274.134 269.325L327.434 291.525ZM79.8336 266.625L136.434 243.025C146.734 238.725 160.334 236.525 173.834 236.525C187.434 236.525 200.934 238.725 211.234 243.025L267.834 266.625L211.234 290.225C190.634 298.825 157.034 298.825 136.434 290.225L79.8336 266.625ZM327.434 214.325C336.534 218.125 341.834 223.125 341.834 228.025C341.834 232.925 336.634 237.925 327.434 241.725L274.334 263.925L213.134 238.425C191.434 229.325 156.134 229.325 134.434 238.425L73.3336 263.925L20.2336 241.725C11.1336 237.925 5.8336 232.925 5.8336 228.025C5.8336 223.125 11.0336 218.125 20.2336 214.325L73.3336 192.125L134.434 217.625C145.234 222.125 159.534 224.425 173.734 224.425C187.934 224.425 202.234 222.125 213.034 217.625L274.134 192.125L327.434 214.325ZM79.8336 189.425L136.434 165.825C146.734 161.525 160.334 159.325 173.834 159.325C187.434 159.325 200.934 161.525 211.234 165.825L267.834 189.425L211.234 213.025C190.634 221.625 157.034 221.625 136.434 213.025L79.8336 189.425ZM274.334 186.725L213.234 161.225C191.534 152.125 156.234 152.125 134.534 161.225L73.4336 186.725L20.3336 164.525C11.2336 160.725 5.93359 155.725 5.93359 150.825C5.93359 145.925 11.1336 140.925 20.3336 137.125L73.4336 114.925L134.534 140.425C145.334 144.925 159.634 147.225 173.834 147.225C188.034 147.225 202.334 144.925 213.134 140.425L274.234 114.925L327.334 137.125C336.434 140.925 341.734 145.925 341.734 150.825C341.734 155.725 336.534 160.725 327.334 164.525L274.334 186.725Z" fill="#FF4910"/>
</svg>
